<ttFont>
<head>
    <!-- Most of this table will be recalculated by the compiler -->
    <tableVersion value="1.0"/>
    <fontRevision value="2.137"/>
    <checkSumAdjustment value="0x69fac759"/>
    <magicNumber value="0x5f0f3cf5"/>
    <flags value="00000000 00011111"/>
    <unitsPerEm value="2048"/>
    <created value="Fri Sep 12 12:29:34 2008"/>
    <modified value="Tue Apr 16 07:17:05 2019"/>
    <xMin value="-1476"/>
    <yMin value="-555"/>
    <xMax value="2482"/>
    <yMax value="2163"/>
    <macStyle value="00000000 00000000"/>
    <lowestRecPPEM value="8"/>
    <fontDirectionHint value="2"/>
    <indexToLocFormat value="0"/>
    <glyphDataFormat value="0"/>
  </head>
    <TTGlyph name=".notdef" xMin="100" yMin="0" xMax="808" yMax="1456">
      <contour>
        <pt x="808" y="0" on="1"/>
        <pt x="100" y="0" on="1"/>
        <pt x="100" y="1456" on="1"/>
        <pt x="808" y="1456" on="1"/>
      </contour>
      <contour>
        <pt x="754" y="84" on="1"/>
        <pt x="754" y="1371" on="1"/>
        <pt x="480" y="728" on="1"/>
      </contour>
      <contour>
        <pt x="154" y="1359" on="1"/>
        <pt x="154" y="96" on="1"/>
        <pt x="422" y="728" on="1"/>
      </contour>
      <contour>
        <pt x="194" y="54" on="1"/>
        <pt x="709" y="54" on="1"/>
        <pt x="451" y="660" on="1"/>
      </contour>
      <contour>
        <pt x="451" y="796" on="1"/>
        <pt x="709" y="1402" on="1"/>
        <pt x="194" y="1402" on="1"/>
      </contour>
    </TTGlyph>
    <TTGlyph name="A" xMin="-3" yMin="0" xMax="1399" yMax="1456">
      <contour>
        <pt x="937" y="272" on="1"/>
        <pt x="456" y="272" on="1"/>
        <pt x="372" y="0" on="1"/>
        <pt x="-3" y="0" on="1"/>
        <pt x="531" y="1456" on="1"/>
        <pt x="861" y="1456" on="1"/>
        <pt x="1399" y="0" on="1"/>
        <pt x="1022" y="0" on="1"/>
      </contour>
      <contour>
        <pt x="540" y="543" on="1"/>
        <pt x="853" y="543" on="1"/>
        <pt x="696" y="1048" on="1"/>
      </contour>
    </TTGlyph>
    <TTGlyph name="A.c2sc" xMin="-12" yMin="0" xMax="1223" yMax="1165">
      <contour>
        <pt x="812" y="204" on="1"/>
        <pt x="395" y="204" on="1"/>
        <pt x="326" y="0" on="1"/>
        <pt x="-12" y="0" on="1"/>
        <pt x="439" y="1165" on="1"/>
        <pt x="763" y="1165" on="1"/>
        <pt x="1223" y="0" on="1"/>
        <pt x="884" y="0" on="1"/>
      </contour>
      <contour>
        <pt x="472" y="434" on="1"/>
        <pt x="731" y="434" on="1"/>
        <pt x="604" y="794" on="1"/>
        <pt x="599" y="816" on="1"/>
        <pt x="595" y="796" on="1"/>
      </contour>
    </TTGlyph>
    <TTGlyph name="AE" xMin="16" yMin="0" xMax="1851" yMax="1456">
      <contour>
        <pt x="1851" y="0" on="1"/>
        <pt x="954" y="0" on="1"/>
        <pt x="940" y="329" on="1"/>
        <pt x="558" y="329" on="1"/>
        <pt x="406" y="0" on="1"/>
        <pt x="16" y="0" on="1"/>
        <pt x="751" y="1456" on="1"/>
        <pt x="1790" y="1456" on="1"/>
        <pt x="1790" y="1192" on="1"/>
        <pt x="1241" y="1192" on="1"/>
        <pt x="1254" y="876" on="1"/>
        <pt x="1709" y="876" on="1"/>
        <pt x="1709" y="612" on="1"/>
        <pt x="1265" y="612" on="1"/>
        <pt x="1280" y="264" on="1"/>
        <pt x="1851" y="264" on="1"/>
      </contour>
      <contour>
        <pt x="683" y="599" on="1"/>
        <pt x="929" y="599" on="1"/>
        <pt x="908" y="1085" on="1"/>
      </contour>
    </TTGlyph>
    <TTGlyph name="AE.c2sc" xMin="-68" yMin="0" xMax="1569" yMax="1165">
      <contour>
        <pt x="1464" y="475" on="1"/>
        <pt x="1023" y="475" on="1"/>
        <pt x="1031" y="258" on="1"/>
        <pt x="1569" y="258" on="1"/>
        <pt x="1569" y="0" on="1"/>
        <pt x="707" y="0" on="1"/>
        <pt x="699" y="199" on="1"/>
        <pt x="383" y="199" on="1"/>
        <pt x="298" y="0" on="1"/>
        <pt x="-68" y="0" on="1"/>
        <pt x="478" y="1165" on="1"/>
        <pt x="1523" y="1165" on="1"/>
        <pt x="1523" y="907" on="1"/>
        <pt x="1006" y="907" on="1"/>
        <pt x="1013" y="734" on="1"/>
        <pt x="1464" y="734" on="1"/>
      </contour>
      <contour>
        <pt x="491" y="453" on="1"/>
        <pt x="689" y="453" on="1"/>
        <pt x="673" y="877" on="1"/>
      </contour>
    </TTGlyph>
    <TTGlyph name="AEacute" xMin="16" yMin="0" xMax="1851" yMax="1858">
      <component glyphName="AE" x="0" y="0" flags="0x1204"/>
      <component glyphName="acute" x="689" y="322" flags="0x1004"/>
    </TTGlyph>
    <TTGlyph name="AEacute.c2sc" xMin="-68" yMin="0" xMax="1569" yMax="1536">
      <component glyphName="AE.c2sc" x="0" y="0" flags="0x1204"/>
      <component glyphName="acute" x="587" y="0" flags="0x1004"/>
    </TTGlyph>
    <TTGlyph name="A_uni030F.ccmp" xMin="-3" yMin="0" xMax="1399" yMax="1828">
      <component glyphName="A" x="0" y="0" flags="0x1204"/>
      <component glyphName="uni030F" x="1172" y="310" flags="0x1004"/>
    </TTGlyph>
    <TTGlyph name="Aacute" xMin="-3" yMin="0" xMax="1399" yMax="1846">
      <component glyphName="A" x="0" y="0" flags="0x1204"/>
      <component glyphName="acute" x="455" y="310" flags="0x1004"/>
    </TTGlyph>
    <TTGlyph name="Aacute.c2sc" xMin="-12" yMin="0" xMax="1223" yMax="1566">
      <component glyphName="A.c2sc" x="0" y="0" flags="0x1204"/>
      <component glyphName="acute" x="363" y="30" flags="0x1004"/>
    </TTGlyph>
    <TTGlyph name="Abreve" xMin="-3" yMin="0" xMax="1399" yMax="1848">
      <component glyphName="A" x="0" y="0" flags="0x1204"/>
      <component glyphName="breve" x="236" y="310" flags="0x1004"/>
    </TTGlyph>
    <TTGlyph name="Abreve.c2sc" xMin="-12" yMin="0" xMax="1223" yMax="1568">
      <component glyphName="A.c2sc" x="0" y="0" flags="0x1204"/>
      <component glyphName="breve" x="144" y="30" flags="0x1004"/>
    </TTGlyph>
    <TTGlyph name="Acircumflex" xMin="-3" yMin="0" xMax="1399" yMax="1846">
      <component glyphName="A" x="0" y="0" flags="0x1204"/>
      <component glyphName="circumflex" x="183" y="310" flags="0x1004"/>
    </TTGlyph>
    <TTGlyph name="Acircumflex.c2sc" xMin="-12" yMin="0" xMax="1223" yMax="1566">
      <component glyphName="A.c2sc" x="0" y="0" flags="0x1204"/>
      <component glyphName="circumflex" x="91" y="30" flags="0x1004"/>
    </TTGlyph>
    <TTGlyph name="Adieresis" xMin="-3" yMin="0" xMax="1399" yMax="1808">
      <component glyphName="A" x="0" y="0" flags="0x1204"/>
      <component glyphName="dieresis" x="192" y="310" flags="0x1004"/>
    </TTGlyph>
    <TTGlyph name="Adieresis.c2sc" xMin="-12" yMin="0" xMax="1223" yMax="1528">
      <component glyphName="A.c2sc" x="0" y="0" flags="0x1204"/>
      <component glyphName="dieresis" x="100" y="30" flags="0x1004"/>
    </TTGlyph>
    <TTGlyph name="Agrave" xMin="-3" yMin="0" xMax="1399" yMax="1846">
      <component glyphName="A" x="0" y="0" flags="0x1204"/>
      <component glyphName="grave" x="250" y="310" flags="0x1004"/>
    </TTGlyph>
    <TTGlyph name="Agrave.c2sc" xMin="-12" yMin="0" xMax="1223" yMax="1566">
      <component glyphName="A.c2sc" x="0" y="0" flags="0x1204"/>
      <component glyphName="grave" x="158" y="30" flags="0x1004"/>
    </TTGlyph>
    <TTGlyph name="Alpha" xMin="-3" yMin="0" xMax="1399" yMax="1456">
      <component glyphName="A" x="0" y="0" flags="0x1204"/>
    </TTGlyph>
    <TTGlyph name="Alpha.c2sc" xMin="-12" yMin="0" xMax="1223" yMax="1165">
      <component glyphName="A.c2sc" x="0" y="0" flags="0x1204"/>
    </TTGlyph>
    <TTGlyph name="Alphatonos" xMin="-3" yMin="0" xMax="1399" yMax="1602">
      <component glyphName="A" x="0" y="0" flags="0x1204"/>
      <component glyphName="tonos" x="-229" y="0" flags="0x1004"/>
    </TTGlyph>
    <TTGlyph name="Alphatonos.c2sc" xMin="-133" yMin="0" xMax="1223" yMax="1311">
      <component glyphName="A.c2sc" x="0" y="0" flags="0x1204"/>
      <component glyphName="tonos" x="-372" y="-291" flags="0x1004"/>
    </TTGlyph>
    <TTGlyph name="Amacron" xMin="-3" yMin="0" xMax="1399" yMax="1762">
      <component glyphName="A" x="0" y="0" flags="0x1204"/>
      <component glyphName="macron" x="171" y="304" flags="0x1004"/>
    </TTGlyph>
    <TTGlyph name="Amacron.c2sc" xMin="-12" yMin="0" xMax="1223" yMax="1482">
      <component glyphName="A.c2sc" x="0" y="0" flags="0x1204"/>
      <component glyphName="macron" x="79" y="24" flags="0x1004"/>
    </TTGlyph>
    <TTGlyph name="Aogonek" xMin="-3" yMin="-417" xMax="1399" yMax="1456">
      <contour>
        <pt x="861" y="1456" on="1"/>
        <pt x="1399" y="0" on="1"/>
        <pt x="1292" y="0" on="1"/>
        <pt x="1214" y="-39" on="0"/>
        <pt x="1147" y="-110" on="0"/>
        <pt x="1147" y="-161" on="1"/>
        <pt x="1147" y="-223" on="0"/>
        <pt x="1207" y="-223" on="1"/>
        <pt x="1237" y="-223" on="0"/>
        <pt x="1276" y="-205" on="1"/>
        <pt x="1314" y="-373" on="1"/>
        <pt x="1241" y="-417" on="0"/>
        <pt x="1148" y="-417" on="1"/>
        <pt x="1038" y="-417" on="0"/>
        <pt x="905" y="-301" on="0"/>
        <pt x="905" y="-203" on="1"/>
        <pt x="905" y="-73" on="0"/>
        <pt x="1019" y="10" on="1"/>
        <pt x="937" y="272" on="1"/>
        <pt x="456" y="272" on="1"/>
        <pt x="372" y="0" on="1"/>
        <pt x="-3" y="0" on="1"/>
        <pt x="531" y="1456" on="1"/>
      </contour>
      <contour>
        <pt x="540" y="543" on="1"/>
        <pt x="853" y="543" on="1"/>
        <pt x="696" y="1048" on="1"/>
      </contour>
    </TTGlyph>
    <TTGlyph name="Aogonek.c2sc" xMin="-12" yMin="-417" xMax="1223" yMax="1165">
      <contour>
        <pt x="763" y="1165" on="1"/>
        <pt x="1223" y="0" on="1"/>
        <pt x="1147" y="0" on="1"/>
        <pt x="1069" y="-39" on="0"/>
        <pt x="1002" y="-110" on="0"/>
        <pt x="1002" y="-161" on="1"/>
        <pt x="1002" y="-223" on="0"/>
        <pt x="1062" y="-223" on="1"/>
        <pt x="1092" y="-223" on="0"/>
        <pt x="1131" y="-205" on="1"/>
        <pt x="1169" y="-373" on="1"/>
        <pt x="1096" y="-417" on="0"/>
        <pt x="1003" y="-417" on="1"/>
        <pt x="893" y="-417" on="0"/>
        <pt x="760" y="-301" on="0"/>
        <pt x="760" y="-203" on="1"/>
        <pt x="760" y="-69" on="0"/>
        <pt x="879" y="14" on="1"/>
        <pt x="812" y="204" on="1"/>
        <pt x="395" y="204" on="1"/>
        <pt x="326" y="0" on="1"/>
        <pt x="-12" y="0" on="1"/>
        <pt x="439" y="1165" on="1"/>
      </contour>
      <contour>
        <pt x="472" y="434" on="1"/>
        <pt x="731" y="434" on="1"/>
        <pt x="604" y="794" on="1"/>
        <pt x="599" y="816" on="1"/>
        <pt x="595" y="796" on="1"/>
      </contour>
    </TTGlyph>
    <TTGlyph name="Aogonek.c2sc.locl" xMin="-12" yMin="-417" xMax="1223" yMax="1165">
      <component glyphName="A.c2sc" x="0" y="0" flags="0x1204"/>
      <component glyphName="ogonek" x="297" y="0" flags="0x1004"/>
    </TTGlyph>
    <TTGlyph name="Aogonek.locl" xMin="-3" yMin="-408" xMax="1399" yMax="1456">
      <component glyphName="A" x="0" y="0" flags="0x1204"/>
      <component glyphName="ogonek" x="392" y="9" flags="0x1004"/>
    </TTGlyph>
    <TTGlyph name="Aring" xMin="-3" yMin="0" xMax="1399" yMax="1932">
      <component glyphName="A" x="0" y="0" flags="0x1204"/>
      <component glyphName="ring" x="359" y="435" flags="0x1004"/>
    </TTGlyph>
    <TTGlyph name="Aring.c2sc" xMin="-12" yMin="0" xMax="1223" yMax="1652">
      <component glyphName="A.c2sc" x="0" y="0" flags="0x1204"/>
      <component glyphName="ring" x="267" y="155" flags="0x1004"/>
    </TTGlyph>
    <TTGlyph name="Aringacute" xMin="-3" yMin="0" xMax="1399" yMax="2019">
      <component glyphName="A" x="0" y="0" flags="0x1204"/>
      <component glyphName="glyph551" x="342" y="259" flags="0x1004"/>
    </TTGlyph>
    <TTGlyph name="Aringacute.c2sc" xMin="-12" yMin="0" xMax="1223" yMax="1740">
      <component glyphName="A.c2sc" x="0" y="0" flags="0x1204"/>
      <component glyphName="glyph551" x="250" y="-20" flags="0x1004"/>
    </TTGlyph>
    <TTGlyph name="Atilde" xMin="-3" yMin="0" xMax="1399" yMax="1848">
      <component glyphName="A" x="0" y="0" flags="0x1204"/>
      <component glyphName="tilde" x="200" y="305" flags="0x1004"/>
    </TTGlyph>
    <TTGlyph name="Atilde.c2sc" xMin="-12" yMin="0" xMax="1223" yMax="1568">
      <component glyphName="A.c2sc" x="0" y="0" flags="0x1204"/>
      <component glyphName="tilde" x="108" y="25" flags="0x1004"/>
    </TTGlyph>
    <TTGlyph name="B" xMin="110" yMin="0" xMax="1238" yMax="1456">
      <contour>
        <pt x="110" y="0" on="1"/>
        <pt x="110" y="1456" on="1"/>
        <pt x="633" y="1456" on="1"/>
        <pt x="914" y="1456" on="0"/>
        <pt x="1207" y="1250" on="0"/>
        <pt x="1207" y="1054" on="1"/>
        <pt x="1207" y="941" on="0"/>
        <pt x="1103" y="781" on="0"/>
        <pt x="1002" y="743" on="1"/>
        <pt x="1116" y="713" on="0"/>
        <pt x="1238" y="549" on="0"/>
        <pt x="1238" y="431" on="1"/>
        <pt x="1238" y="217" on="0"/>
        <pt x="967" y="2" on="0"/>
        <pt x="701" y="0" on="1"/>
      </contour>
      <contour>
        <pt x="461" y="619" on="1"/>
        <pt x="461" y="270" on="1"/>
        <pt x="691" y="270" on="1"/>
        <pt x="786" y="270" on="0"/>
        <pt x="888" y="357" on="0"/>
        <pt x="888" y="436" on="1"/>
        <pt x="888" y="618" on="0"/>
        <pt x="707" y="619" on="1"/>
      </contour>
      <contour>
        <pt x="461" y="849" on="1"/>
        <pt x="644" y="849" on="1"/>
        <pt x="759" y="850" on="0"/>
        <pt x="857" y="932" on="0"/>
        <pt x="857" y="1012" on="1"/>
        <pt x="857" y="1104" on="0"/>
        <pt x="751" y="1185" on="0"/>
        <pt x="633" y="1185" on="1"/>
        <pt x="461" y="1185" on="1"/>
      </contour>
    </TTGlyph>
    <TTGlyph name="B.c2sc" xMin="81" yMin="0" xMax="1084" yMax="1165">
      <contour>
        <pt x="81" y="0" on="1"/>
        <pt x="81" y="1165" on="1"/>
        <pt x="549" y="1165" on="1"/>
        <pt x="798" y="1165" on="0"/>
        <pt x="1059" y="1000" on="0"/>
        <pt x="1059" y="842" on="1"/>
        <pt x="1059" y="649" on="0"/>
        <pt x="886" y="585" on="1"/>
        <pt x="979" y="562" on="0"/>
        <pt x="1084" y="427" on="0"/>
        <pt x="1084" y="334" on="1"/>
        <pt x="1084" y="165" on="0"/>
        <pt x="853" y="2" on="0"/>
        <pt x="609" y="0" on="1"/>
      </contour>
      <contour>
        <pt x="419" y="470" on="1"/>
        <pt x="419" y="259" on="1"/>
        <pt x="597" y="259" on="1"/>
        <pt x="666" y="259" on="0"/>
        <pt x="746" y="314" on="0"/>
        <pt x="746" y="361" on="1"/>
        <pt x="746" y="466" on="0"/>
        <pt x="623" y="470" on="1"/>
      </contour>
      <contour>
        <pt x="419" y="683" on="1"/>
        <pt x="579" y="683" on="1"/>
        <pt x="656" y="684" on="0"/>
        <pt x="721" y="737" on="0"/>
        <pt x="721" y="790" on="1"/>
        <pt x="721" y="853" on="0"/>
        <pt x="654" y="905" on="0"/>
        <pt x="582" y="905" on="1"/>
        <pt x="419" y="905" on="1"/>
      </contour>
    </TTGlyph>
    <TTGlyph name="B_dotbelowcomb.ccmp" xMin="110" yMin="-369" xMax="1238" yMax="1456">
      <component glyphName="B" x="0" y="0" flags="0x1204"/>
      <component glyphName="dotbelowcomb" x="1190" y="10" flags="0x1004"/>
    </TTGlyph>
    <TTGlyph name="Beta" xMin="110" yMin="0" xMax="1238" yMax="1456">
      <component glyphName="B" x="0" y="0" flags="0x1204"/>
    </TTGlyph>
    <TTGlyph name="Beta.c2sc" xMin="81" yMin="0" xMax="1084" yMax="1165">
      <component glyphName="B.c2sc" x="0" y="0" flags="0x1204"/>
    </TTGlyph>
    <TTGlyph name="C" xMin="69" yMin="-20" xMax="1291" yMax="1477">
      <contour>
        <pt x="1288" y="493" on="1"/>
        <pt x="1281" y="341" on="0"/>
        <pt x="1131" y="108" on="0"/>
        <pt x="860" y="-20" on="0"/>
        <pt x="686" y="-20" on="1"/>
        <pt x="399" y="-20" on="0"/>
        <pt x="69" y="354" on="0"/>
        <pt x="69" y="695" on="1"/>
        <pt x="69" y="767" on="1"/>
        <pt x="69" y="981" on="0"/>
        <pt x="218" y="1302" on="0"/>
        <pt x="498" y="1477" on="0"/>
        <pt x="682" y="1477" on="1"/>
        <pt x="947" y="1477" on="0"/>
        <pt x="1269" y="1198" on="0"/>
        <pt x="1291" y="953" on="1"/>
        <pt x="941" y="953" on="1"/>
        <pt x="937" y="1086" on="0"/>
        <pt x="811" y="1202" on="0"/>
        <pt x="682" y="1202" on="1"/>
        <pt x="551" y="1202" on="0"/>
        <pt x="429" y="1006" on="0"/>
        <pt x="426" y="791" on="1"/>
        <pt x="426" y="688" on="1"/>
        <pt x="426" y="455" on="0"/>
        <pt x="543" y="255" on="0"/>
        <pt x="686" y="255" on="1"/>
        <pt x="807" y="255" on="0"/>
        <pt x="935" y="369" on="0"/>
        <pt x="939" y="493" on="1"/>
      </contour>
    </TTGlyph>
    <TTGlyph name="C.c2sc" xMin="47" yMin="-16" xMax="1121" yMax="1182">
      <contour>
        <pt x="1119" y="407" on="1"/>
        <pt x="1113" y="214" on="0"/>
        <pt x="821" y="-16" on="0"/>
        <pt x="589" y="-16" on="1"/>
        <pt x="332" y="-16" on="0"/>
        <pt x="47" y="288" on="0"/>
        <pt x="47" y="568" on="1"/>
        <pt x="47" y="601" on="1"/>
        <pt x="47" y="777" on="0"/>
        <pt x="179" y="1042" on="0"/>
        <pt x="421" y="1182" on="0"/>
        <pt x="580" y="1182" on="1"/>
        <pt x="817" y="1182" on="0"/>
        <pt x="1104" y="949" on="0"/>
        <pt x="1121" y="748" on="1"/>
        <pt x="784" y="748" on="1"/>
        <pt x="786" y="830" on="0"/>
        <pt x="678" y="922" on="0"/>
        <pt x="580" y="922" on="1"/>
        <pt x="400" y="922" on="0"/>
        <pt x="387" y="652" on="1"/>
        <pt x="386" y="563" on="1"/>
        <pt x="386" y="391" on="0"/>
        <pt x="476" y="243" on="0"/>
        <pt x="589" y="243" on="1"/>
        <pt x="786" y="243" on="0"/>
        <pt x="782" y="407" on="1"/>
      </contour>
    </TTGlyph>
    <TTGlyph name="C.ss06" xMin="67" yMin="-21" xMax="1319" yMax="1477">
      <contour>
        <pt x="1315" y="493" on="1"/>
        <pt x="1293" y="242" on="0"/>
        <pt x="979" y="-21" on="0"/>
        <pt x="707" y="-21" on="1"/>
        <pt x="514" y="-21" on="0"/>
        <pt x="225" y="154" on="0"/>
        <pt x="69" y="479" on="0"/>
        <pt x="67" y="694" on="1"/>
        <pt x="67" y="749" on="1"/>
        <pt x="67" y="965" on="0"/>
        <pt x="230" y="1298" on="0"/>
        <pt x="525" y="1477" on="0"/>
        <pt x="709" y="1477" on="1"/>
        <pt x="983" y="1477" on="0"/>
        <pt x="1296" y="1205" on="0"/>
        <pt x="1319" y="953" on="1"/>
        <pt x="968" y="953" on="1"/>
        <pt x="949" y="1099" on="0"/>
        <pt x="830" y="1206" on="0"/>
        <pt x="709" y="1206" on="1"/>
        <pt x="576" y="1206" on="0"/>
        <pt x="419" y="966" on="0"/>
        <pt x="418" y="755" on="1"/>
        <pt x="418" y="706" on="1"/>
        <pt x="418" y="484" on="0"/>
        <pt x="565" y="249" on="0"/>
        <pt x="707" y="249" on="1"/>
        <pt x="936" y="249" on="0"/>
        <pt x="966" y="493" on="1"/>
      </contour>
    </TTGlyph>
    <TTGlyph name="Cacute" xMin="69" yMin="-20" xMax="1291" yMax="1846">
      <component glyphName="C" x="0" y="0" flags="0x1204"/>
      <component glyphName="acute" x="448" y="310" flags="0x1004"/>
    </TTGlyph>
    <TTGlyph name="Cacute.c2sc" xMin="47" yMin="-16" xMax="1121" yMax="1566">
      <component glyphName="C.c2sc" x="0" y="0" flags="0x1204"/>
      <component glyphName="acute" x="355" y="30" flags="0x1004"/>
    </TTGlyph>
    <TTGlyph name="Ccaron" xMin="69" yMin="-20" xMax="1291" yMax="1847">
      <component glyphName="C" x="0" y="0" flags="0x1204"/>
      <component glyphName="caron" x="200" y="310" flags="0x1004"/>
    </TTGlyph>
    <TTGlyph name="Ccaron.c2sc" xMin="47" yMin="-16" xMax="1121" yMax="1567">
      <component glyphName="C.c2sc" x="0" y="0" flags="0x1204"/>
      <component glyphName="caron" x="107" y="30" flags="0x1004"/>
    </TTGlyph>
    <TTGlyph name="Ccedilla" xMin="69" yMin="-472" xMax="1291" yMax="1477">
      <component glyphName="C" x="0" y="0" flags="0x1204"/>
      <component glyphName="cedilla" x="445" y="0" flags="0x1004"/>
    </TTGlyph>
    <TTGlyph name="Ccedilla.c2sc" xMin="47" yMin="-467" xMax="1121" yMax="1182">
      <component glyphName="C.c2sc" x="0" y="0" flags="0x1204"/>
      <component glyphName="cedilla" x="351" y="5" flags="0x1004"/>
    </TTGlyph>
    <TTGlyph name="Ccircumflex" xMin="69" yMin="-20" xMax="1291" yMax="1846">
      <component glyphName="C" x="0" y="0" flags="0x1204"/>
      <component glyphName="circumflex" x="176" y="310" flags="0x1004"/>
    </TTGlyph>
    <TTGlyph name="Ccircumflex.c2sc" xMin="47" yMin="-16" xMax="1121" yMax="1566">
      <component glyphName="C.c2sc" x="0" y="0" flags="0x1204"/>
      <component glyphName="circumflex" x="83" y="30" flags="0x1004"/>
    </TTGlyph>
    <TTGlyph name="Cdotaccent" xMin="69" yMin="-20" xMax="1291" yMax="1858">
      <component glyphName="C" x="0" y="0" flags="0x1204"/>
      <component glyphName="dotaccent" x="418" y="333" flags="0x1004"/>
    </TTGlyph>
    <TTGlyph name="Cdotaccent.c2sc" xMin="47" yMin="-16" xMax="1121" yMax="1578">
      <component glyphName="C.c2sc" x="0" y="0" flags="0x1204"/>
      <component glyphName="dotaccent" x="325" y="53" flags="0x1004"/>
    </TTGlyph>
    <TTGlyph name="Chi" xMin="4" yMin="0" xMax="1303" yMax="1456">
      <component glyphName="X" x="0" y="0" flags="0x1204"/>
    </TTGlyph>
    <TTGlyph name="Chi.c2sc" xMin="-14" yMin="0" xMax="1136" yMax="1165">
      <component glyphName="X.c2sc" x="0" y="0" flags="0x1204"/>
    </TTGlyph>
    <TTGlyph name="D" xMin="110" yMin="0" xMax="1254" yMax="1456">
      <contour>
        <pt x="110" y="0" on="1"/>
        <pt x="110" y="1456" on="1"/>
        <pt x="579" y="1456" on="1"/>
        <pt x="772" y="1456" on="0"/>
        <pt x="1080" y="1281" on="0"/>
        <pt x="1253" y="962" on="0"/>
        <pt x="1254" y="764" on="1"/>
        <pt x="1254" y="697" on="1"/>
        <pt x="1254" y="497" on="0"/>
        <pt x="1085" y="180" on="0"/>
        <pt x="778" y="1" on="0"/>
        <pt x="589" y="0" on="1"/>
      </contour>
      <contour>
        <pt x="461" y="1185" on="1"/>
        <pt x="461" y="270" on="1"/>
        <pt x="583" y="270" on="1"/>
        <pt x="734" y="270" on="0"/>
        <pt x="896" y="485" on="0"/>
        <pt x="896" y="697" on="1"/>
        <pt x="896" y="760" on="1"/>
        <pt x="896" y="971" on="0"/>
        <pt x="734" y="1185" on="0"/>
        <pt x="579" y="1185" on="1"/>
      </contour>
    </TTGlyph>
    <TTGlyph name="D.c2sc" xMin="81" yMin="0" xMax="1086" yMax="1165">
      <contour>
        <pt x="81" y="0" on="1"/>
        <pt x="81" y="1165" on="1"/>
        <pt x="498" y="1165" on="1"/>
        <pt x="664" y="1165" on="0"/>
        <pt x="934" y="1020" on="0"/>
        <pt x="1086" y="761" on="0"/>
        <pt x="1086" y="603" on="1"/>
        <pt x="1086" y="562" on="1"/>
        <pt x="1086" y="405" on="0"/>
        <pt x="938" y="148" on="0"/>
        <pt x="674" y="1" on="0"/>
        <pt x="513" y="0" on="1"/>
      </contour>
      <contour>
        <pt x="419" y="905" on="1"/>
        <pt x="419" y="259" on="1"/>
        <pt x="508" y="259" on="1"/>
        <pt x="633" y="259" on="0"/>
        <pt x="743" y="385" on="0"/>
        <pt x="746" y="540" on="1"/>
        <pt x="746" y="604" on="1"/>
        <pt x="746" y="768" on="0"/>
        <pt x="635" y="902" on="0"/>
        <pt x="512" y="905" on="1"/>
      </contour>
    </TTGlyph>
    <TTGlyph name="D.ss06" xMin="108" yMin="0" xMax="1305" yMax="1456">
      <contour>
        <pt x="108" y="0" on="1"/>
        <pt x="108" y="1456" on="1"/>
        <pt x="570" y="1456" on="1"/>
        <pt x="785" y="1456" on="0"/>
        <pt x="1120" y="1276" on="0"/>
        <pt x="1305" y="951" on="0"/>
        <pt x="1305" y="748" on="1"/>
        <pt x="1305" y="706" on="1"/>
        <pt x="1305" y="506" on="0"/>
        <pt x="1124" y="184" on="0"/>
        <pt x="791" y="1" on="0"/>
        <pt x="581" y="0" on="1"/>
      </contour>
      <contour>
        <pt x="459" y="1185" on="1"/>
        <pt x="459" y="270" on="1"/>
        <pt x="550" y="270" on="1"/>
        <pt x="745" y="270" on="0"/>
        <pt x="954" y="495" on="0"/>
        <pt x="954" y="710" on="1"/>
        <pt x="954" y="751" on="1"/>
        <pt x="954" y="964" on="0"/>
        <pt x="745" y="1183" on="0"/>
        <pt x="554" y="1185" on="1"/>
      </contour>
    </TTGlyph>
    <TTGlyph name="D_dotbelowcomb.ccmp" xMin="110" yMin="-369" xMax="1254" yMax="1456">
      <component glyphName="D" x="0" y="0" flags="0x1204"/>
      <component glyphName="dotbelowcomb" x="1079" y="10" flags="0x1004"/>
    </TTGlyph>
    <TTGlyph name="D_uniF6C3.ccmp" xMin="110" yMin="-505" xMax="1254" yMax="1456">
      <component glyphName="D" x="0" y="0" flags="0x1204"/>
      <component glyphName="uniF6C3" x="262" y="-359" flags="0x1004"/>
    </TTGlyph>
    <TTGlyph name="Dcaron" xMin="45" yMin="0" xMax="1254" yMax="1847">
      <component glyphName="D" x="0" y="0" flags="0x1204"/>
      <component glyphName="caron" x="-10" y="310" flags="0x1004"/>
    </TTGlyph>
    <TTGlyph name="Dcaron.c2sc" xMin="-67" yMin="0" xMax="1086" yMax="1567">
      <component glyphName="D.c2sc" x="0" y="0" flags="0x1204"/>
      <component glyphName="caron" x="-122" y="30" flags="0x1004"/>
    </TTGlyph>
    <TTGlyph name="Dcroat" xMin="-30" yMin="0" xMax="1284" yMax="1456">
      <contour>
        <pt x="140" y="0" on="1"/>
        <pt x="140" y="635" on="1"/>
        <pt x="-30" y="635" on="1"/>
        <pt x="-30" y="826" on="1"/>
        <pt x="140" y="826" on="1"/>
        <pt x="140" y="1456" on="1"/>
        <pt x="609" y="1456" on="1"/>
        <pt x="802" y="1456" on="0"/>
        <pt x="1110" y="1281" on="0"/>
        <pt x="1283" y="962" on="0"/>
        <pt x="1284" y="764" on="1"/>
        <pt x="1284" y="697" on="1"/>
        <pt x="1284" y="497" on="0"/>
        <pt x="1115" y="180" on="0"/>
        <pt x="808" y="1" on="0"/>
        <pt x="619" y="0" on="1"/>
      </contour>
      <contour>
        <pt x="700" y="635" on="1"/>
        <pt x="491" y="635" on="1"/>
        <pt x="491" y="270" on="1"/>
        <pt x="613" y="270" on="1"/>
        <pt x="764" y="270" on="0"/>
        <pt x="926" y="485" on="0"/>
        <pt x="926" y="697" on="1"/>
        <pt x="926" y="760" on="1"/>
        <pt x="926" y="971" on="0"/>
        <pt x="764" y="1185" on="0"/>
        <pt x="609" y="1185" on="1"/>
        <pt x="491" y="1185" on="1"/>
        <pt x="491" y="826" on="1"/>
        <pt x="700" y="826" on="1"/>
      </contour>
    </TTGlyph>
    <TTGlyph name="Dcroat.c2sc" xMin="-129" yMin="0" xMax="1086" yMax="1165">
      <component glyphName="D.c2sc" x="0" y="0" flags="0x1204"/>
      <component glyphName="glyph550" x="-267" y="-167" flags="0x1004"/>
    </TTGlyph>
    <TTGlyph name="Delta" xMin="16" yMin="0" xMax="1531" yMax="1456">
      <contour>
        <pt x="765" y="1456" on="1"/>
        <pt x="769" y="1452" on="1"/>
        <pt x="773" y="1456" on="1"/>
        <pt x="960" y="1456" on="1"/>
        <pt x="1531" y="0" on="1"/>
        <pt x="16" y="0" on="1"/>
        <pt x="578" y="1456" on="1"/>
      </contour>
      <contour>
        <pt x="485" y="270" on="1"/>
        <pt x="1061" y="270" on="1"/>
        <pt x="770" y="1055" on="1"/>
      </contour>
    </TTGlyph>
    <TTGlyph name="Delta.c2sc" xMin="-12" yMin="0" xMax="1185" yMax="1165">
      <contour>
        <pt x="1185" y="0" on="1"/>
        <pt x="-12" y="0" on="1"/>
        <pt x="395" y="1165" on="1"/>
        <pt x="775" y="1165" on="1"/>
      </contour>
      <contour>
        <pt x="587" y="843" on="1"/>
        <pt x="584" y="858" on="1"/>
        <pt x="581" y="839" on="1"/>
        <pt x="414" y="260" on="1"/>
        <pt x="757" y="260" on="1"/>
      </contour>
    </TTGlyph>
    <TTGlyph name="E" xMin="110" yMin="0" xMax="1115" yMax="1456">
      <contour>
        <pt x="1013" y="617" on="1"/>
        <pt x="461" y="617" on="1"/>
        <pt x="461" y="270" on="1"/>
        <pt x="1113" y="270" on="1"/>
        <pt x="1113" y="0" on="1"/>
        <pt x="110" y="0" on="1"/>
        <pt x="110" y="1456" on="1"/>
        <pt x="1115" y="1456" on="1"/>
        <pt x="1115" y="1185" on="1"/>
        <pt x="461" y="1185" on="1"/>
        <pt x="461" y="878" on="1"/>
        <pt x="1013" y="878" on="1"/>
      </contour>
    </TTGlyph>
    <TTGlyph name="E.c2sc" xMin="81" yMin="0" xMax="967" yMax="1165">
      <contour>
        <pt x="877" y="472" on="1"/>
        <pt x="419" y="472" on="1"/>
        <pt x="419" y="259" on="1"/>
        <pt x="962" y="259" on="1"/>
        <pt x="962" y="0" on="1"/>
        <pt x="81" y="0" on="1"/>
        <pt x="81" y="1165" on="1"/>
        <pt x="967" y="1165" on="1"/>
        <pt x="967" y="905" on="1"/>
        <pt x="419" y="905" on="1"/>
        <pt x="419" y="732" on="1"/>
        <pt x="877" y="732" on="1"/>
      </contour>
    </TTGlyph>
    <TTGlyph name="E_uni030F.ccmp" xMin="47" yMin="0" xMax="1115" yMax="1828">
      <component glyphName="E" x="0" y="0" flags="0x1204"/>
      <component glyphName="uni030F" x="1116" y="310" flags="0x1004"/>
    </TTGlyph>
    <TTGlyph name="Eacute" xMin="110" yMin="0" xMax="1115" yMax="1846">
      <component glyphName="E" x="0" y="0" flags="0x1204"/>
      <component glyphName="acute" x="399" y="310" flags="0x1004"/>
    </TTGlyph>
    <TTGlyph name="Eacute.c2sc" xMin="81" yMin="0" xMax="967" yMax="1566">
      <component glyphName="E.c2sc" x="0" y="0" flags="0x1204"/>
      <component glyphName="acute" x="317" y="30" flags="0x1004"/>
    </TTGlyph>
    <TTGlyph name="Ebreve" xMin="110" yMin="0" xMax="1115" yMax="1848">
      <component glyphName="E" x="0" y="0" flags="0x1204"/>
      <component glyphName="breve" x="180" y="310" flags="0x1004"/>
    </TTGlyph>
    <TTGlyph name="Ebreve.c2sc" xMin="81" yMin="0" xMax="967" yMax="1568">
      <component glyphName="E.c2sc" x="0" y="0" flags="0x1204"/>
      <component glyphName="breve" x="98" y="30" flags="0x1004"/>
    </TTGlyph>
    <TTGlyph name="Ecaron" xMin="110" yMin="0" xMax="1115" yMax="1847">
      <component glyphName="E" x="0" y="0" flags="0x1204"/>
      <component glyphName="caron" x="151" y="310" flags="0x1004"/>
    </TTGlyph>
    <TTGlyph name="Ecaron.c2sc" xMin="81" yMin="0" xMax="995" yMax="1567">
      <component glyphName="E.c2sc" x="0" y="0" flags="0x1204"/>
      <component glyphName="caron" x="69" y="30" flags="0x1004"/>
    </TTGlyph>
    <TTGlyph name="Ecircumflex" xMin="110" yMin="0" xMax="1115" yMax="1846">
      <component glyphName="E" x="0" y="0" flags="0x1204"/>
      <component glyphName="circumflex" x="127" y="310" flags="0x1004"/>
    </TTGlyph>
    <TTGlyph name="Ecircumflex.c2sc" xMin="81" yMin="0" xMax="986" yMax="1566">
      <component glyphName="E.c2sc" x="0" y="0" flags="0x1204"/>
      <component glyphName="circumflex" x="45" y="30" flags="0x1004"/>
    </TTGlyph>
    <TTGlyph name="Edieresis" xMin="110" yMin="0" xMax="1115" yMax="1808">
      <component glyphName="E" x="0" y="0" flags="0x1204"/>
      <component glyphName="dieresis" x="136" y="310" flags="0x1004"/>
    </TTGlyph>
    <TTGlyph name="Edieresis.c2sc" xMin="81" yMin="0" xMax="970" yMax="1528">
      <component glyphName="E.c2sc" x="0" y="0" flags="0x1204"/>
      <component glyphName="dieresis" x="54" y="30" flags="0x1004"/>
    </TTGlyph>
    <TTGlyph name="Edotaccent" xMin="110" yMin="0" xMax="1115" yMax="1858">
      <component glyphName="E" x="0" y="0" flags="0x1204"/>
      <component glyphName="dotaccent" x="369" y="333" flags="0x1004"/>
    </TTGlyph>
    <TTGlyph name="Edotaccent.c2sc" xMin="81" yMin="0" xMax="967" yMax="1578">
      <component glyphName="E.c2sc" x="0" y="0" flags="0x1204"/>
      <component glyphName="dotaccent" x="287" y="53" flags="0x1004"/>
    </TTGlyph>
    <TTGlyph name="Egrave" xMin="110" yMin="0" xMax="1115" yMax="1846">
      <component glyphName="E" x="0" y="0" flags="0x1204"/>
      <component glyphName="grave" x="194" y="310" flags="0x1004"/>
    </TTGlyph>
    <TTGlyph name="Egrave.c2sc" xMin="81" yMin="0" xMax="967" yMax="1566">
      <component glyphName="E.c2sc" x="0" y="0" flags="0x1204"/>
      <component glyphName="grave" x="112" y="30" flags="0x1004"/>
    </TTGlyph>
    <TTGlyph name="Emacron" xMin="110" yMin="0" xMax="1115" yMax="1762">
      <component glyphName="E" x="0" y="0" flags="0x1204"/>
      <component glyphName="macron" x="115" y="304" flags="0x1004"/>
    </TTGlyph>
    <TTGlyph name="Emacron.c2sc" xMin="81" yMin="0" xMax="967" yMax="1482">
      <component glyphName="E.c2sc" x="0" y="0" flags="0x1204"/>
      <component glyphName="macron" x="33" y="24" flags="0x1004"/>
    </TTGlyph>
    <TTGlyph name="Eng" xMin="113" yMin="-437" xMax="1337" yMax="1456">
      <contour>
        <pt x="1337" y="1456" on="1"/>
        <pt x="1337" y="-4" on="1"/>
        <pt x="1337" y="-213" on="0"/>
        <pt x="1118" y="-437" on="0"/>
        <pt x="920" y="-437" on="1"/>
        <pt x="832" y="-437" on="0"/>
        <pt x="755" y="-420" on="1"/>
        <pt x="769" y="-155" on="1"/>
        <pt x="817" y="-166" on="0"/>
        <pt x="870" y="-166" on="1"/>
        <pt x="987" y="-166" on="0"/>
        <pt x="987" y="0" on="1"/>
        <pt x="463" y="907" on="1"/>
        <pt x="463" y="0" on="1"/>
        <pt x="113" y="0" on="1"/>
        <pt x="113" y="1456" on="1"/>
        <pt x="463" y="1456" on="1"/>
        <pt x="987" y="550" on="1"/>
        <pt x="987" y="1456" on="1"/>
      </contour>
    </TTGlyph>
    <TTGlyph name="Eng.c2sc" xMin="81" yMin="-437" xMax="1149" yMax="1165">
      <contour>
        <pt x="740" y="-437" on="1"/>
        <pt x="653" y="-437" on="0"/>
        <pt x="580" y="-420" on="1"/>
        <pt x="594" y="-165" on="1"/>
        <pt x="646" y="-177" on="0"/>
        <pt x="694" y="-177" on="1"/>
        <pt x="811" y="-177" on="0"/>
        <pt x="811" y="-12" on="1"/>
        <pt x="811" y="1" on="1"/>
        <pt x="419" y="678" on="1"/>
        <pt x="419" y="0" on="1"/>
        <pt x="81" y="0" on="1"/>
        <pt x="81" y="1165" on="1"/>
        <pt x="419" y="1165" on="1"/>
        <pt x="812" y="487" on="1"/>
        <pt x="812" y="1165" on="1"/>
        <pt x="1149" y="1165" on="1"/>
        <pt x="1149" y="-13" on="1"/>
        <pt x="1149" y="-217" on="0"/>
        <pt x="933" y="-437" on="0"/>
      </contour>
    </TTGlyph>
    <TTGlyph name="Eogonek" xMin="110" yMin="-417" xMax="1115" yMax="1456">
      <contour>
        <pt x="1013" y="617" on="1"/>
        <pt x="461" y="617" on="1"/>
        <pt x="461" y="270" on="1"/>
        <pt x="1113" y="270" on="1"/>
        <pt x="1113" y="0" on="1"/>
        <pt x="918" y="0" on="1"/>
        <pt x="840" y="-39" on="0"/>
        <pt x="773" y="-110" on="0"/>
        <pt x="773" y="-161" on="1"/>
        <pt x="773" y="-223" on="0"/>
        <pt x="833" y="-223" on="1"/>
        <pt x="863" y="-223" on="0"/>
        <pt x="902" y="-205" on="1"/>
        <pt x="940" y="-373" on="1"/>
        <pt x="867" y="-417" on="0"/>
        <pt x="774" y="-417" on="1"/>
        <pt x="664" y="-417" on="0"/>
        <pt x="531" y="-301" on="0"/>
        <pt x="531" y="-203" on="1"/>
        <pt x="531" y="-79" on="0"/>
        <pt x="631" y="0" on="1"/>
        <pt x="110" y="0" on="1"/>
        <pt x="110" y="1456" on="1"/>
        <pt x="1115" y="1456" on="1"/>
        <pt x="1115" y="1185" on="1"/>
        <pt x="461" y="1185" on="1"/>
        <pt x="461" y="878" on="1"/>
        <pt x="1013" y="878" on="1"/>
      </contour>
    </TTGlyph>
    <TTGlyph name="Eogonek.c2sc" xMin="81" yMin="-417" xMax="967" yMax="1165">
      <contour>
        <pt x="877" y="472" on="1"/>
        <pt x="419" y="472" on="1"/>
        <pt x="419" y="259" on="1"/>
        <pt x="962" y="259" on="1"/>
        <pt x="962" y="0" on="1"/>
        <pt x="797" y="0" on="1"/>
        <pt x="719" y="-39" on="0"/>
        <pt x="652" y="-110" on="0"/>
        <pt x="652" y="-161" on="1"/>
        <pt x="652" y="-223" on="0"/>
        <pt x="712" y="-223" on="1"/>
        <pt x="742" y="-223" on="0"/>
        <pt x="781" y="-205" on="1"/>
        <pt x="819" y="-373" on="1"/>
        <pt x="746" y="-417" on="0"/>
        <pt x="653" y="-417" on="1"/>
        <pt x="543" y="-417" on="0"/>
        <pt x="410" y="-301" on="0"/>
        <pt x="410" y="-203" on="1"/>
        <pt x="410" y="-79" on="0"/>
        <pt x="510" y="0" on="1"/>
        <pt x="81" y="0" on="1"/>
        <pt x="81" y="1165" on="1"/>
        <pt x="967" y="1165" on="1"/>
        <pt x="967" y="905" on="1"/>
        <pt x="419" y="905" on="1"/>
        <pt x="419" y="732" on="1"/>
        <pt x="877" y="732" on="1"/>
      </contour>
    </TTGlyph>
    <TTGlyph name="Eogonek.c2sc.locl" xMin="81" yMin="-409" xMax="967" yMax="1165">
      <component glyphName="E.c2sc" x="0" y="0" flags="0x1204"/>
      <component glyphName="ogonek" x="257" y="8" flags="0x1004"/>
    </TTGlyph>
    <TTGlyph name="Eogonek.locl" xMin="110" yMin="-407" xMax="1115" yMax="1456">
      <component glyphName="E" x="0" y="0" flags="0x1204"/>
      <component glyphName="ogonek" x="338" y="10" flags="0x1004"/>
    </TTGlyph>
    <TTGlyph name="Epsilon" xMin="110" yMin="0" xMax="1115" yMax="1456">
      <component glyphName="E" x="0" y="0" flags="0x1204"/>
    </TTGlyph>
    <TTGlyph name="Epsilon.c2sc" xMin="81" yMin="0" xMax="967" yMax="1165">
      <component glyphName="E.c2sc" x="0" y="0" flags="0x1204"/>
    </TTGlyph>
    <TTGlyph name="Epsilontonos" xMin="-416" yMin="0" xMax="1115" yMax="1604">
      <component glyphName="E" x="0" y="0" flags="0x1204"/>
      <component glyphName="tonos" x="-655" y="2" flags="0x1004"/>
    </TTGlyph>
    <TTGlyph name="Epsilontonos.c2sc" xMin="-321" yMin="0" xMax="1027" yMax="1314">
      <component glyphName="E.c2sc" x="60" y="0" flags="0x1004"/>
      <component glyphName="tonos" x="-560" y="-288" flags="0x1004"/>
    </TTGlyph>
    <TTGlyph name="Eta" xMin="110" yMin="0" xMax="1327" yMax="1456">
      <component glyphName="H" x="0" y="0" flags="0x1204"/>
    </TTGlyph>
    <TTGlyph name="Eta.c2sc" xMin="81" yMin="0" xMax="1150" yMax="1165">
      <component glyphName="H.c2sc" x="0" y="0" flags="0x1204"/>
    </TTGlyph>
    <TTGlyph name="Etatonos" xMin="-418" yMin="0" xMax="1327" yMax="1599">
      <component glyphName="H" x="0" y="0" flags="0x1204"/>
      <component glyphName="tonos" x="-657" y="-3" flags="0x1004"/>
    </TTGlyph>
    <TTGlyph name="Etatonos.c2sc" xMin="-346" yMin="0" xMax="1210" yMax="1306">
      <component glyphName="H.c2sc" x="60" y="0" flags="0x1004"/>
      <component glyphName="tonos" x="-585" y="-296" flags="0x1004"/>
    </TTGlyph>
    <TTGlyph name="Eth" xMin="-30" yMin="0" xMax="1284" yMax="1456">
      <contour>
        <pt x="140" y="0" on="1"/>
        <pt x="140" y="635" on="1"/>
        <pt x="-30" y="635" on="1"/>
        <pt x="-30" y="826" on="1"/>
        <pt x="140" y="826" on="1"/>
        <pt x="140" y="1456" on="1"/>
        <pt x="609" y="1456" on="1"/>
        <pt x="802" y="1456" on="0"/>
        <pt x="1110" y="1281" on="0"/>
        <pt x="1283" y="962" on="0"/>
        <pt x="1284" y="764" on="1"/>
        <pt x="1284" y="697" on="1"/>
        <pt x="1284" y="497" on="0"/>
        <pt x="1115" y="180" on="0"/>
        <pt x="808" y="1" on="0"/>
        <pt x="619" y="0" on="1"/>
      </contour>
      <contour>
        <pt x="700" y="635" on="1"/>
        <pt x="491" y="635" on="1"/>
        <pt x="491" y="270" on="1"/>
        <pt x="613" y="270" on="1"/>
        <pt x="764" y="270" on="0"/>
        <pt x="926" y="485" on="0"/>
        <pt x="926" y="697" on="1"/>
        <pt x="926" y="760" on="1"/>
        <pt x="926" y="971" on="0"/>
        <pt x="764" y="1185" on="0"/>
        <pt x="609" y="1185" on="1"/>
        <pt x="491" y="1185" on="1"/>
        <pt x="491" y="826" on="1"/>
        <pt x="700" y="826" on="1"/>
      </contour>
    </TTGlyph>
    <TTGlyph name="Eth.c2sc" xMin="-129" yMin="0" xMax="1086" yMax="1165">
      <component glyphName="D.c2sc" x="0" y="0" flags="0x1204"/>
      <component glyphName="glyph550" x="-267" y="-167" flags="0x1004"/>
    </TTGlyph>
    <TTGlyph name="Euro" xMin="85" yMin="-19" xMax="1112" yMax="1475">
      <contour>
        <pt x="914" y="508" on="1"/>
        <pt x="602" y="508" on="1"/>
        <pt x="607" y="376" on="0"/>
        <pt x="740" y="250" on="0"/>
        <pt x="893" y="250" on="1"/>
        <pt x="992" y="250" on="0"/>
        <pt x="1069" y="280" on="1"/>
        <pt x="1112" y="11" on="1"/>
        <pt x="979" y="-19" on="0"/>
        <pt x="849" y="-19" on="1"/>
        <pt x="579" y="-19" on="0"/>
        <pt x="258" y="261" on="0"/>
        <pt x="250" y="508" on="1"/>
        <pt x="85" y="508" on="1"/>
        <pt x="85" y="668" on="1"/>
        <pt x="250" y="668" on="1"/>
        <pt x="250" y="790" on="1"/>
        <pt x="85" y="790" on="1"/>
        <pt x="85" y="949" on="1"/>
        <pt x="253" y="949" on="1"/>
        <pt x="272" y="1197" on="0"/>
        <pt x="606" y="1475" on="0"/>
        <pt x="880" y="1475" on="1"/>
        <pt x="986" y="1475" on="0"/>
        <pt x="1112" y="1444" on="1"/>
        <pt x="1069" y="1174" on="1"/>
        <pt x="991" y="1205" on="0"/>
        <pt x="902" y="1205" on="1"/>
        <pt x="764" y="1205" on="0"/>
        <pt x="618" y="1080" on="0"/>
        <pt x="605" y="949" on="1"/>
        <pt x="914" y="949" on="1"/>
        <pt x="914" y="790" on="1"/>
        <pt x="602" y="790" on="1"/>
        <pt x="602" y="668" on="1"/>
        <pt x="914" y="668" on="1"/>
      </contour>
    </TTGlyph>
    <TTGlyph name="Euro.c2sc" xMin="72" yMin="-16" xMax="968" yMax="1185">
      <contour>
        <pt x="894" y="361" on="1"/>
        <pt x="567" y="361" on="1"/>
        <pt x="603" y="244" on="0"/>
        <pt x="746" y="244" on="1"/>
        <pt x="816" y="244" on="0"/>
        <pt x="946" y="270" on="1"/>
        <pt x="966" y="15" on="1"/>
        <pt x="850" y="-16" on="0"/>
        <pt x="746" y="-16" on="1"/>
        <pt x="538" y="-16" on="0"/>
        <pt x="259" y="181" on="0"/>
        <pt x="224" y="361" on="1"/>
        <pt x="72" y="361" on="1"/>
        <pt x="72" y="544" on="1"/>
        <pt x="214" y="544" on="1"/>
        <pt x="214" y="610" on="1"/>
        <pt x="72" y="610" on="1"/>
        <pt x="72" y="794" on="1"/>
        <pt x="225" y="794" on="1"/>
        <pt x="260" y="981" on="0"/>
        <pt x="535" y="1185" on="0"/>
        <pt x="744" y="1185" on="1"/>
        <pt x="855" y="1185" on="0"/>
        <pt x="968" y="1151" on="1"/>
        <pt x="947" y="896" on="1"/>
        <pt x="871" y="915" on="0"/>
        <pt x="799" y="925" on="0"/>
        <pt x="744" y="925" on="1"/>
        <pt x="602" y="925" on="0"/>
        <pt x="567" y="794" on="1"/>
        <pt x="894" y="794" on="1"/>
        <pt x="894" y="610" on="1"/>
        <pt x="553" y="610" on="1"/>
        <pt x="553" y="544" on="1"/>
        <pt x="894" y="544" on="1"/>
      </contour>
    </TTGlyph>
    <TTGlyph name="F" xMin="110" yMin="0" xMax="1084" yMax="1456">
      <contour>
        <pt x="1027" y="580" on="1"/>
        <pt x="461" y="580" on="1"/>
        <pt x="461" y="0" on="1"/>
        <pt x="110" y="0" on="1"/>
        <pt x="110" y="1456" on="1"/>
        <pt x="1084" y="1456" on="1"/>
        <pt x="1084" y="1185" on="1"/>
        <pt x="461" y="1185" on="1"/>
        <pt x="461" y="850" on="1"/>
        <pt x="1027" y="850" on="1"/>
      </contour>
    </TTGlyph>
    <TTGlyph name="F.c2sc" xMin="81" yMin="0" xMax="937" yMax="1165">
      <contour>
        <pt x="898" y="440" on="1"/>
        <pt x="419" y="440" on="1"/>
        <pt x="419" y="0" on="1"/>
        <pt x="81" y="0" on="1"/>
        <pt x="81" y="1165" on="1"/>
        <pt x="937" y="1165" on="1"/>
        <pt x="937" y="905" on="1"/>
        <pt x="419" y="905" on="1"/>
        <pt x="419" y="700" on="1"/>
        <pt x="898" y="700" on="1"/>
      </contour>
    </TTGlyph>
    <TTGlyph name="G" xMin="82" yMin="-20" xMax="1302" yMax="1477">
      <contour>
        <pt x="1302" y="180" on="1"/>
        <pt x="1221" y="90" on="0"/>
        <pt x="909" y="-20" on="0"/>
        <pt x="723" y="-20" on="1"/>
        <pt x="437" y="-20" on="0"/>
        <pt x="95" y="330" on="0"/>
        <pt x="83" y="642" on="1"/>
        <pt x="82" y="768" on="1"/>
        <pt x="82" y="983" on="0"/>
        <pt x="234" y="1304" on="0"/>
        <pt x="517" y="1477" on="0"/>
        <pt x="703" y="1477" on="1"/>
        <pt x="975" y="1477" on="0"/>
        <pt x="1276" y="1228" on="0"/>
        <pt x="1301" y="981" on="1"/>
        <pt x="963" y="981" on="1"/>
        <pt x="945" y="1103" on="0"/>
        <pt x="825" y="1207" on="0"/>
        <pt x="715" y="1207" on="1"/>
        <pt x="583" y="1207" on="0"/>
        <pt x="439" y="983" on="0"/>
        <pt x="438" y="775" on="1"/>
        <pt x="438" y="687" on="1"/>
        <pt x="438" y="469" on="0"/>
        <pt x="587" y="250" on="0"/>
        <pt x="747" y="250" on="1"/>
        <pt x="884" y="250" on="0"/>
        <pt x="951" y="311" on="1"/>
        <pt x="951" y="537" on="1"/>
        <pt x="707" y="537" on="1"/>
        <pt x="707" y="778" on="1"/>
        <pt x="1302" y="778" on="1"/>
      </contour>
    </TTGlyph>
    <TTGlyph name="G.c2sc" xMin="62" yMin="-16" xMax="1134" yMax="1182">
      <contour>
        <pt x="1134" y="138" on="1"/>
        <pt x="1057" y="67" on="0"/>
        <pt x="779" y="-16" on="0"/>
        <pt x="620" y="-16" on="1"/>
        <pt x="369" y="-16" on="0"/>
        <pt x="74" y="263" on="0"/>
        <pt x="63" y="515" on="1"/>
        <pt x="62" y="610" on="1"/>
        <pt x="62" y="783" on="0"/>
        <pt x="197" y="1042" on="0"/>
        <pt x="445" y="1182" on="0"/>
        <pt x="604" y="1182" on="1"/>
        <pt x="846" y="1182" on="0"/>
        <pt x="1111" y="977" on="0"/>
        <pt x="1132" y="765" on="1"/>
        <pt x="810" y="765" on="1"/>
        <pt x="798" y="849" on="0"/>
        <pt x="710" y="922" on="0"/>
        <pt x="617" y="922" on="1"/>
        <pt x="516" y="922" on="0"/>
        <pt x="399" y="762" on="0"/>
        <pt x="399" y="612" on="1"/>
        <pt x="399" y="554" on="1"/>
        <pt x="399" y="390" on="0"/>
        <pt x="517" y="243" on="0"/>
        <pt x="647" y="243" on="1"/>
        <pt x="746" y="243" on="0"/>
        <pt x="794" y="274" on="1"/>
        <pt x="794" y="417" on="1"/>
        <pt x="594" y="417" on="1"/>
        <pt x="594" y="642" on="1"/>
        <pt x="1134" y="642" on="1"/>
      </contour>
    </TTGlyph>
    <TTGlyph name="G.ss06" xMin="67" yMin="-21" xMax="1319" yMax="1477">
      <contour>
        <pt x="1319" y="179" on="1"/>
        <pt x="1240" y="88" on="0"/>
        <pt x="946" y="-21" on="0"/>
        <pt x="773" y="-21" on="1"/>
        <pt x="572" y="-21" on="0"/>
        <pt x="250" y="157" on="0"/>
        <pt x="69" y="480" on="0"/>
        <pt x="67" y="683" on="1"/>
        <pt x="67" y="751" on="1"/>
        <pt x="67" y="962" on="0"/>
        <pt x="230" y="1293" on="0"/>
        <pt x="530" y="1477" on="0"/>
        <pt x="719" y="1477" on="1"/>
        <pt x="982" y="1477" on="0"/>
        <pt x="1294" y="1220" on="0"/>
        <pt x="1318" y="981" on="1"/>
        <pt x="979" y="981" on="1"/>
        <pt x="966" y="1090" on="0"/>
        <pt x="837" y="1206" on="0"/>
        <pt x="732" y="1206" on="1"/>
        <pt x="589" y="1206" on="0"/>
        <pt x="419" y="961" on="0"/>
        <pt x="418" y="756" on="1"/>
        <pt x="418" y="693" on="1"/>
        <pt x="418" y="492" on="0"/>
        <pt x="611" y="249" on="0"/>
        <pt x="773" y="249" on="1"/>
        <pt x="918" y="249" on="0"/>
        <pt x="967" y="298" on="1"/>
        <pt x="967" y="519" on="1"/>
        <pt x="748" y="519" on="1"/>
        <pt x="748" y="761" on="1"/>
        <pt x="1319" y="761" on="1"/>
      </contour>
    </TTGlyph>
    <TTGlyph name="G_acutecomb.ccmp" xMin="82" yMin="-20" xMax="1302" yMax="1846">
      <component glyphName="G" x="0" y="0" flags="0x1204"/>
      <component glyphName="acute" x="465" y="310" flags="0x1004"/>
    </TTGlyph>
    <TTGlyph name="Gamma" xMin="108" yMin="0" xMax="1092" yMax="1456">
      <contour>
        <pt x="1092" y="1185" on="1"/>
        <pt x="459" y="1185" on="1"/>
        <pt x="459" y="0" on="1"/>
        <pt x="108" y="0" on="1"/>
        <pt x="108" y="1456" on="1"/>
        <pt x="1092" y="1456" on="1"/>
      </contour>
    </TTGlyph>
    <TTGlyph name="Gamma.c2sc" xMin="81" yMin="0" xMax="954" yMax="1165">
      <contour>
        <pt x="954" y="905" on="1"/>
        <pt x="419" y="905" on="1"/>
        <pt x="419" y="0" on="1"/>
        <pt x="81" y="0" on="1"/>
        <pt x="81" y="1165" on="1"/>
        <pt x="954" y="1165" on="1"/>
      </contour>
    </TTGlyph>
    <TTGlyph name="Gbreve" xMin="82" yMin="-20" xMax="1302" yMax="1848">
      <component glyphName="G" x="0" y="0" flags="0x1204"/>
      <component glyphName="breve" x="246" y="310" flags="0x1004"/>
    </TTGlyph>
    <TTGlyph name="Gbreve.c2sc" xMin="62" yMin="-16" xMax="1134" yMax="1568">
      <component glyphName="G.c2sc" x="0" y="0" flags="0x1204"/>
      <component glyphName="breve" x="160" y="30" flags="0x1004"/>
    </TTGlyph>
    <TTGlyph name="Gcircumflex" xMin="82" yMin="-20" xMax="1302" yMax="1846">
      <component glyphName="G" x="0" y="0" flags="0x1204"/>
      <component glyphName="circumflex" x="193" y="310" flags="0x1004"/>
    </TTGlyph>
    <TTGlyph name="Gcircumflex.c2sc" xMin="62" yMin="-16" xMax="1134" yMax="1566">
      <component glyphName="G.c2sc" x="0" y="0" flags="0x1204"/>
      <component glyphName="circumflex" x="107" y="30" flags="0x1004"/>
    </TTGlyph>
    <TTGlyph name="Gdotaccent" xMin="82" yMin="-20" xMax="1302" yMax="1858">
      <component glyphName="G" x="0" y="0" flags="0x1204"/>
      <component glyphName="dotaccent" x="435" y="333" flags="0x1004"/>
    </TTGlyph>
    <TTGlyph name="Gdotaccent.c2sc" xMin="62" yMin="-16" xMax="1134" yMax="1578">
      <component glyphName="G.c2sc" x="0" y="0" flags="0x1204"/>
      <component glyphName="dotaccent" x="349" y="53" flags="0x1004"/>
    </TTGlyph>
    <TTGlyph name="H" xMin="110" yMin="0" xMax="1327" yMax="1456">
      <contour>
        <pt x="1327" y="0" on="1"/>
        <pt x="978" y="0" on="1"/>
        <pt x="978" y="608" on="1"/>
        <pt x="461" y="608" on="1"/>
        <pt x="461" y="0" on="1"/>
        <pt x="110" y="0" on="1"/>
        <pt x="110" y="1456" on="1"/>
        <pt x="461" y="1456" on="1"/>
        <pt x="461" y="878" on="1"/>
        <pt x="978" y="878" on="1"/>
        <pt x="978" y="1456" on="1"/>
        <pt x="1327" y="1456" on="1"/>
      </contour>
    </TTGlyph>
    <TTGlyph name="H.c2sc" xMin="81" yMin="0" xMax="1150" yMax="1165">
      <contour>
        <pt x="1150" y="0" on="1"/>
        <pt x="814" y="0" on="1"/>
        <pt x="814" y="440" on="1"/>
        <pt x="419" y="440" on="1"/>
        <pt x="419" y="0" on="1"/>
        <pt x="81" y="0" on="1"/>
        <pt x="81" y="1165" on="1"/>
        <pt x="419" y="1165" on="1"/>
        <pt x="419" y="700" on="1"/>
        <pt x="814" y="700" on="1"/>
        <pt x="814" y="1165" on="1"/>
        <pt x="1150" y="1165" on="1"/>
      </contour>
    </TTGlyph>
    <TTGlyph name="H_dotbelowcomb.ccmp" xMin="110" yMin="-369" xMax="1327" yMax="1456">
      <component glyphName="H" x="0" y="0" flags="0x1204"/>
      <component glyphName="dotbelowcomb" x="1328" y="10" flags="0x1004"/>
    </TTGlyph>
    <TTGlyph name="Hbar" xMin="33" yMin="0" xMax="1469" yMax="1456">
      <contour>
        <pt x="1352" y="1243" on="1"/>
        <pt x="1469" y="1243" on="1"/>
        <pt x="1469" y="1060" on="1"/>
        <pt x="1352" y="1060" on="1"/>
        <pt x="1352" y="0" on="1"/>
        <pt x="1003" y="0" on="1"/>
        <pt x="1003" y="608" on="1"/>
        <pt x="486" y="608" on="1"/>
        <pt x="486" y="0" on="1"/>
        <pt x="135" y="0" on="1"/>
        <pt x="135" y="1060" on="1"/>
        <pt x="33" y="1060" on="1"/>
        <pt x="33" y="1243" on="1"/>
        <pt x="135" y="1243" on="1"/>
        <pt x="135" y="1456" on="1"/>
        <pt x="486" y="1456" on="1"/>
        <pt x="486" y="1243" on="1"/>
        <pt x="1003" y="1243" on="1"/>
        <pt x="1003" y="1456" on="1"/>
        <pt x="1352" y="1456" on="1"/>
      </contour>
      <contour>
        <pt x="486" y="878" on="1"/>
        <pt x="1003" y="878" on="1"/>
        <pt x="1003" y="1060" on="1"/>
        <pt x="486" y="1060" on="1"/>
      </contour>
    </TTGlyph>
    <TTGlyph name="Hbar.c2sc" xMin="59" yMin="0" xMax="1309" yMax="1165">
      <contour>
        <pt x="1309" y="851" on="1"/>
        <pt x="1219" y="851" on="1"/>
        <pt x="1219" y="0" on="1"/>
        <pt x="883" y="0" on="1"/>
        <pt x="883" y="440" on="1"/>
        <pt x="488" y="440" on="1"/>
        <pt x="488" y="0" on="1"/>
        <pt x="149" y="0" on="1"/>
        <pt x="149" y="851" on="1"/>
        <pt x="59" y="851" on="1"/>
        <pt x="59" y="1042" on="1"/>
        <pt x="149" y="1042" on="1"/>
        <pt x="149" y="1165" on="1"/>
        <pt x="488" y="1165" on="1"/>
        <pt x="488" y="1042" on="1"/>
        <pt x="883" y="1042" on="1"/>
        <pt x="883" y="1165" on="1"/>
        <pt x="1219" y="1165" on="1"/>
        <pt x="1219" y="1042" on="1"/>
        <pt x="1309" y="1042" on="1"/>
      </contour>
      <contour>
        <pt x="488" y="700" on="1"/>
        <pt x="883" y="700" on="1"/>
        <pt x="883" y="851" on="1"/>
        <pt x="488" y="851" on="1"/>
      </contour>
    </TTGlyph>
    <TTGlyph name="Hcircumflex" xMin="110" yMin="0" xMax="1327" yMax="1846">
      <component glyphName="H" x="0" y="0" flags="0x1204"/>
      <component glyphName="circumflex" x="211" y="310" flags="0x1004"/>
    </TTGlyph>
    <TTGlyph name="Hcircumflex.c2sc" xMin="81" yMin="0" xMax="1150" yMax="1566">
      <component glyphName="H.c2sc" x="0" y="0" flags="0x1204"/>
      <component glyphName="circumflex" x="93" y="30" flags="0x1004"/>
    </TTGlyph>
    <TTGlyph name="I" xMin="134" yMin="0" xMax="484" yMax="1456">
      <contour>
        <pt x="484" y="0" on="1"/>
        <pt x="134" y="0" on="1"/>
        <pt x="134" y="1456" on="1"/>
        <pt x="484" y="1456" on="1"/>
      </contour>
    </TTGlyph>
    <TTGlyph name="I.c2sc" xMin="104" yMin="0" xMax="441" yMax="1165">
      <contour>
        <pt x="441" y="0" on="1"/>
        <pt x="104" y="0" on="1"/>
        <pt x="104" y="1165" on="1"/>
        <pt x="441" y="1165" on="1"/>
      </contour>
    </TTGlyph>
    <TTGlyph name="IJ" xMin="134" yMin="-20" xMax="1658" yMax="1456">
      <component glyphName="I" x="0" y="0" flags="0x1004"/>
      <component glyphName="J" x="618" y="0" flags="0x1004"/>
    </TTGlyph>
    <TTGlyph name="IJ.c2sc" xMin="104" yMin="-16" xMax="1456" yMax="1165">
      <component glyphName="I.c2sc" x="0" y="0" flags="0x1004"/>
      <component glyphName="J.c2sc" x="546" y="0" flags="0x1004"/>
    </TTGlyph>
    <TTGlyph name="I_uni030F.ccmp" xMin="-288" yMin="0" xMax="647" yMax="1828">
      <component glyphName="I" x="0" y="0" flags="0x1204"/>
      <component glyphName="uni030F" x="781" y="310" flags="0x1004"/>
    </TTGlyph>
    <TTGlyph name="Iacute" xMin="134" yMin="0" xMax="707" yMax="1846">
      <component glyphName="I" x="0" y="0" flags="0x1204"/>
      <component glyphName="acute" x="64" y="310" flags="0x1004"/>
    </TTGlyph>
    <TTGlyph name="Iacute.c2sc" xMin="104" yMin="0" xMax="673" yMax="1566">
      <component glyphName="I.c2sc" x="0" y="0" flags="0x1204"/>
      <component glyphName="acute" x="30" y="30" flags="0x1004"/>
    </TTGlyph>
    <TTGlyph name="Ibreve" xMin="-60" yMin="0" xMax="680" yMax="1848">
      <component glyphName="I" x="0" y="0" flags="0x1204"/>
      <component glyphName="breve" x="-154" y="310" flags="0x1004"/>
    </TTGlyph>
    <TTGlyph name="Ibreve.c2sc" xMin="-94" yMin="0" xMax="646" yMax="1568">
      <component glyphName="I.c2sc" x="0" y="0" flags="0x1204"/>
      <component glyphName="breve" x="-188" y="30" flags="0x1004"/>
    </TTGlyph>
    <TTGlyph name="Icircumflex" xMin="-110" yMin="0" xMax="734" yMax="1846">
      <component glyphName="I" x="0" y="0" flags="0x1204"/>
      <component glyphName="circumflex" x="-207" y="310" flags="0x1004"/>
    </TTGlyph>
    <TTGlyph name="Icircumflex.c2sc" xMin="-144" yMin="0" xMax="700" yMax="1566">
      <component glyphName="I.c2sc" x="0" y="0" flags="0x1204"/>
      <component glyphName="circumflex" x="-241" y="30" flags="0x1004"/>
    </TTGlyph>
    <TTGlyph name="Idieresis" xMin="-103" yMin="0" xMax="718" yMax="1808">
      <component glyphName="I" x="0" y="0" flags="0x1204"/>
      <component glyphName="dieresis" x="-198" y="310" flags="0x1004"/>
    </TTGlyph>
    <TTGlyph name="Idieresis.c2sc" xMin="-137" yMin="0" xMax="684" yMax="1528">
      <component glyphName="I.c2sc" x="0" y="0" flags="0x1204"/>
      <component glyphName="dieresis" x="-232" y="30" flags="0x1004"/>
    </TTGlyph>
    <TTGlyph name="Idotaccent" xMin="134" yMin="0" xMax="484" yMax="1858">
      <component glyphName="I" x="0" y="0" flags="0x1204"/>
      <component glyphName="dotaccent" x="34" y="333" flags="0x1004"/>
    </TTGlyph>
    <TTGlyph name="Idotaccent.c2sc" xMin="104" yMin="0" xMax="441" yMax="1578">
      <component glyphName="I.c2sc" x="0" y="0" flags="0x1204"/>
      <component glyphName="dotaccent" x="0" y="53" flags="0x1004"/>
    </TTGlyph>
    <TTGlyph name="Igrave" xMin="-86" yMin="0" xMax="484" yMax="1846">
      <component glyphName="I" x="0" y="0" flags="0x1204"/>
      <component glyphName="grave" x="-140" y="310" flags="0x1004"/>
    </TTGlyph>
    <TTGlyph name="Igrave.c2sc" xMin="-120" yMin="0" xMax="441" yMax="1566">
      <component glyphName="I.c2sc" x="0" y="0" flags="0x1204"/>
      <component glyphName="grave" x="-174" y="30" flags="0x1004"/>
    </TTGlyph>
    <TTGlyph name="Imacron" xMin="-38" yMin="0" xMax="656" yMax="1762">
      <component glyphName="I" x="0" y="0" flags="0x1204"/>
      <component glyphName="macron" x="-219" y="304" flags="0x1004"/>
    </TTGlyph>
    <TTGlyph name="Imacron.c2sc" xMin="-72" yMin="0" xMax="622" yMax="1482">
      <component glyphName="I.c2sc" x="0" y="0" flags="0x1204"/>
      <component glyphName="macron" x="-253" y="24" flags="0x1004"/>
    </TTGlyph>
    <TTGlyph name="Iogonek" xMin="25" yMin="-417" xMax="484" yMax="1456">
      <component glyphName="I" x="0" y="0" flags="0x1204"/>
      <component glyphName="ogonek" x="0" y="0" flags="0x1004"/>
    </TTGlyph>
    <TTGlyph name="Iogonek.c2sc" xMin="54" yMin="-417" xMax="463" yMax="1165">
      <component glyphName="I.c2sc" x="0" y="0" flags="0x1204"/>
      <component glyphName="ogonek" x="29" y="0" flags="0x1004"/>
    </TTGlyph>
    <TTGlyph name="Iota" xMin="134" yMin="0" xMax="484" yMax="1456">
      <component glyphName="I" x="0" y="0" flags="0x1204"/>
    </TTGlyph>
    <TTGlyph name="Iota.c2sc" xMin="104" yMin="0" xMax="441" yMax="1165">
      <component glyphName="I.c2sc" x="0" y="0" flags="0x1204"/>
    </TTGlyph>
    <TTGlyph name="Iotadieresis" xMin="-103" yMin="0" xMax="718" yMax="1808">
      <component glyphName="I" x="0" y="0" flags="0x1204"/>
      <component glyphName="dieresis" x="-198" y="310" flags="0x1004"/>
    </TTGlyph>
    <TTGlyph name="Iotadieresis.c2sc" xMin="-137" yMin="0" xMax="684" yMax="1528">
      <component glyphName="I.c2sc" x="0" y="0" flags="0x1204"/>
      <component glyphName="dieresis" x="-232" y="30" flags="0x1004"/>
    </TTGlyph>
    <TTGlyph name="Iotatonos" xMin="-418" yMin="0" xMax="484" yMax="1604">
      <component glyphName="I" x="0" y="0" flags="0x1204"/>
      <component glyphName="tonos" x="-657" y="2" flags="0x1004"/>
    </TTGlyph>
    <TTGlyph name="Iotatonos.c2sc" xMin="-346" yMin="0" xMax="501" yMax="1314">
      <component glyphName="I.c2sc" x="60" y="0" flags="0x1004"/>
      <component glyphName="tonos" x="-585" y="-288" flags="0x1004"/>
    </TTGlyph>
    <TTGlyph name="Itilde" xMin="-78" yMin="0" xMax="695" yMax="1848">
      <component glyphName="I" x="0" y="0" flags="0x1204"/>
      <component glyphName="tilde" x="-190" y="305" flags="0x1004"/>
    </TTGlyph>
    <TTGlyph name="Itilde.c2sc" xMin="-112" yMin="0" xMax="661" yMax="1568">
      <component glyphName="I.c2sc" x="0" y="0" flags="0x1204"/>
      <component glyphName="tilde" x="-224" y="25" flags="0x1004"/>
    </TTGlyph>
    <TTGlyph name="J" xMin="36" yMin="-20" xMax="1040" yMax="1456">
      <contour>
        <pt x="690" y="1456" on="1"/>
        <pt x="1040" y="1456" on="1"/>
        <pt x="1040" y="457" on="1"/>
        <pt x="1040" y="318" on="0"/>
        <pt x="911" y="100" on="0"/>
        <pt x="680" y="-20" on="0"/>
        <pt x="538" y="-20" on="1"/>
        <pt x="300" y="-20" on="0"/>
        <pt x="36" y="220" on="0"/>
        <pt x="36" y="440" on="1"/>
        <pt x="388" y="440" on="1"/>
        <pt x="388" y="340" on="0"/>
        <pt x="457" y="250" on="0"/>
        <pt x="538" y="250" on="1"/>
        <pt x="611" y="250" on="0"/>
        <pt x="690" y="359" on="0"/>
        <pt x="690" y="457" on="1"/>
      </contour>
    </TTGlyph>
    <TTGlyph name="J.c2sc" xMin="28" yMin="-16" xMax="910" yMax="1165">
      <contour>
        <pt x="572" y="1165" on="1"/>
        <pt x="910" y="1165" on="1"/>
        <pt x="910" y="415" on="1"/>
        <pt x="910" y="223" on="0"/>
        <pt x="665" y="-16" on="0"/>
        <pt x="476" y="-16" on="1"/>
        <pt x="259" y="-16" on="0"/>
        <pt x="28" y="190" on="0"/>
        <pt x="28" y="388" on="1"/>
        <pt x="367" y="388" on="1"/>
        <pt x="367" y="313" on="0"/>
        <pt x="416" y="243" on="0"/>
        <pt x="476" y="243" on="1"/>
        <pt x="528" y="243" on="0"/>
        <pt x="572" y="323" on="0"/>
        <pt x="572" y="415" on="1"/>
      </contour>
    </TTGlyph>
    <TTGlyph name="Jcircumflex" xMin="36" yMin="-20" xMax="1284" yMax="1846">
      <component glyphName="J" x="0" y="0" flags="0x1204"/>
      <component glyphName="circumflex" x="343" y="310" flags="0x1004"/>
    </TTGlyph>
    <TTGlyph name="Jcircumflex.c2sc" xMin="28" yMin="-16" xMax="1168" yMax="1566">
      <component glyphName="J.c2sc" x="0" y="0" flags="0x1204"/>
      <component glyphName="circumflex" x="227" y="30" flags="0x1004"/>
    </TTGlyph>
    <TTGlyph name="K" xMin="110" yMin="0" xMax="1331" yMax="1456">
      <contour>
        <pt x="605" y="542" on="1"/>
        <pt x="461" y="384" on="1"/>
        <pt x="461" y="0" on="1"/>
        <pt x="110" y="0" on="1"/>
        <pt x="110" y="1456" on="1"/>
        <pt x="461" y="1456" on="1"/>
        <pt x="461" y="814" on="1"/>
        <pt x="583" y="999" on="1"/>
        <pt x="897" y="1456" on="1"/>
        <pt x="1331" y="1456" on="1"/>
        <pt x="839" y="812" on="1"/>
        <pt x="1331" y="0" on="1"/>
        <pt x="915" y="0" on="1"/>
      </contour>
    </TTGlyph>
    <TTGlyph name="K.c2sc" xMin="81" yMin="0" xMax="1155" yMax="1165">
      <contour>
        <pt x="533" y="396" on="1"/>
        <pt x="423" y="287" on="1"/>
        <pt x="419" y="300" on="1"/>
        <pt x="419" y="0" on="1"/>
        <pt x="81" y="0" on="1"/>
        <pt x="81" y="1165" on="1"/>
        <pt x="419" y="1165" on="1"/>
        <pt x="419" y="704" on="1"/>
        <pt x="729" y="1165" on="1"/>
        <pt x="1154" y="1165" on="1"/>
        <pt x="762" y="646" on="1"/>
        <pt x="1155" y="0" on="1"/>
        <pt x="758" y="0" on="1"/>
      </contour>
    </TTGlyph>
    <TTGlyph name="K.ss04" xMin="108" yMin="0" xMax="1349" yMax="1456">
      <contour>
        <pt x="625" y="576" on="1"/>
        <pt x="459" y="576" on="1"/>
        <pt x="459" y="0" on="1"/>
        <pt x="108" y="0" on="1"/>
        <pt x="108" y="1456" on="1"/>
        <pt x="459" y="1456" on="1"/>
        <pt x="459" y="893" on="1"/>
        <pt x="594" y="893" on="1"/>
        <pt x="874" y="1456" on="1"/>
        <pt x="1299" y="1456" on="1"/>
        <pt x="899" y="784" on="1"/>
        <pt x="1349" y="0" on="1"/>
        <pt x="934" y="0" on="1"/>
      </contour>
    </TTGlyph>
    <TTGlyph name="K.ss05" xMin="108" yMin="0" xMax="1319" yMax="1456">
      <contour>
        <pt x="459" y="622" on="1"/>
        <pt x="459" y="0" on="1"/>
        <pt x="108" y="0" on="1"/>
        <pt x="108" y="1456" on="1"/>
        <pt x="459" y="1456" on="1"/>
        <pt x="459" y="825" on="1"/>
        <pt x="859" y="1456" on="1"/>
        <pt x="1292" y="1456" on="1"/>
        <pt x="789" y="739" on="1"/>
        <pt x="1319" y="0" on="1"/>
        <pt x="879" y="0" on="1"/>
      </contour>
    </TTGlyph>
    <TTGlyph name="K_acutecomb.ccmp" xMin="110" yMin="0" xMax="1331" yMax="1846">
      <component glyphName="K" x="0" y="0" flags="0x1204"/>
      <component glyphName="acute" x="348" y="310" flags="0x1004"/>
    </TTGlyph>
    <TTGlyph name="K_dotbelowcomb.ccmp" xMin="110" yMin="-326" xMax="1331" yMax="1456">
      <component glyphName="K" x="0" y="0" flags="0x1204"/>
      <component glyphName="dotbelowcomb" x="1244" y="53" flags="0x1004"/>
    </TTGlyph>
    <TTGlyph name="Kappa" xMin="110" yMin="0" xMax="1331" yMax="1456">
      <component glyphName="K" x="0" y="0" flags="0x1204"/>
    </TTGlyph>
    <TTGlyph name="Kappa.c2sc" xMin="81" yMin="0" xMax="1155" yMax="1165">
      <component glyphName="K.c2sc" x="0" y="0" flags="0x1204"/>
    </TTGlyph>
    <TTGlyph name="L" xMin="110" yMin="0" xMax="1072" yMax="1456">
      <contour>
        <pt x="461" y="270" on="1"/>
        <pt x="1072" y="270" on="1"/>
        <pt x="1072" y="0" on="1"/>
        <pt x="110" y="0" on="1"/>
        <pt x="110" y="1456" on="1"/>
        <pt x="461" y="1456" on="1"/>
      </contour>
    </TTGlyph>
    <TTGlyph name="L.c2sc" xMin="81" yMin="0" xMax="925" yMax="1165">
      <contour>
        <pt x="419" y="259" on="1"/>
        <pt x="925" y="259" on="1"/>
        <pt x="925" y="0" on="1"/>
        <pt x="81" y="0" on="1"/>
        <pt x="81" y="1165" on="1"/>
        <pt x="419" y="1165" on="1"/>
      </contour>
    </TTGlyph>
    <TTGlyph name="L_dotbelowcomb.ccmp" xMin="110" yMin="-369" xMax="1072" yMax="1456">
      <component glyphName="L" x="0" y="0" flags="0x1204"/>
      <component glyphName="dotbelowcomb" x="1190" y="10" flags="0x1004"/>
    </TTGlyph>
    <TTGlyph name="Lacute" xMin="110" yMin="0" xMax="1072" yMax="1846">
      <component glyphName="L" x="0" y="0" flags="0x1204"/>
      <component glyphName="acute" x="53" y="310" flags="0x1004"/>
    </TTGlyph>
    <TTGlyph name="Lacute.c2sc" xMin="81" yMin="0" xMax="925" yMax="1566">
      <component glyphName="L.c2sc" x="0" y="0" flags="0x1204"/>
      <component glyphName="acute" x="21" y="30" flags="0x1004"/>
    </TTGlyph>
    <TTGlyph name="Lambda" xMin="1" yMin="0" xMax="1317" yMax="1456">
      <contour>
        <pt x="659" y="1017" on="1"/>
        <pt x="380" y="0" on="1"/>
        <pt x="1" y="0" on="1"/>
        <pt x="468" y="1456" on="1"/>
        <pt x="848" y="1456" on="1"/>
        <pt x="1317" y="0" on="1"/>
        <pt x="936" y="0" on="1"/>
      </contour>
    </TTGlyph>
    <TTGlyph name="Lambda.c2sc" xMin="-12" yMin="0" xMax="1185" yMax="1165">
      <contour>
        <pt x="339" y="0" on="1"/>
        <pt x="-12" y="0" on="1"/>
        <pt x="395" y="1165" on="1"/>
        <pt x="775" y="1165" on="1"/>
        <pt x="1185" y="0" on="1"/>
        <pt x="833" y="0" on="1"/>
        <pt x="587" y="843" on="1"/>
        <pt x="584" y="858" on="1"/>
        <pt x="581" y="839" on="1"/>
      </contour>
    </TTGlyph>
    <TTGlyph name="Lcaron" xMin="110" yMin="0" xMax="1072" yMax="1457">
      <component glyphName="L" x="0" y="0" flags="0x1204"/>
      <component glyphName="uniF6C3" x="615" y="1172" flags="0x1004"/>
    </TTGlyph>
    <TTGlyph name="Lcaron.c2sc" xMin="81" yMin="0" xMax="925" yMax="1170">
      <component glyphName="L.c2sc" x="0" y="0" flags="0x1204"/>
      <component glyphName="uniF6C3" x="436" y="885" flags="0x1004"/>
    </TTGlyph>
    <TTGlyph name="Ldot" xMin="110" yMin="0" xMax="1072" yMax="1456">
      <component glyphName="L" x="0" y="0" flags="0x1204"/>
      <component glyphName="dotaccent" x="490" y="-538" flags="0x1004"/>
    </TTGlyph>
    <TTGlyph name="Ldot.c2sc" xMin="81" yMin="0" xMax="925" yMax="1165">
      <component glyphName="L.c2sc" x="0" y="0" flags="0x1204"/>
      <component glyphName="dotaccent" x="399" y="-680" flags="0x1004"/>
    </TTGlyph>
    <TTGlyph name="Lslash" xMin="25" yMin="0" xMax="1123" yMax="1456">
      <contour>
        <pt x="512" y="914" on="1"/>
        <pt x="706" y="967" on="1"/>
        <pt x="706" y="789" on="1"/>
        <pt x="512" y="736" on="1"/>
        <pt x="512" y="270" on="1"/>
        <pt x="1123" y="270" on="1"/>
        <pt x="1123" y="0" on="1"/>
        <pt x="161" y="0" on="1"/>
        <pt x="161" y="639" on="1"/>
        <pt x="25" y="602" on="1"/>
        <pt x="25" y="780" on="1"/>
        <pt x="161" y="817" on="1"/>
        <pt x="161" y="1456" on="1"/>
        <pt x="512" y="1456" on="1"/>
      </contour>
    </TTGlyph>
    <TTGlyph name="Lslash.c2sc" xMin="11" yMin="0" xMax="959" yMax="1165">
      <contour>
        <pt x="692" y="689" on="1"/>
        <pt x="453" y="623" on="1"/>
        <pt x="453" y="259" on="1"/>
        <pt x="959" y="259" on="1"/>
        <pt x="959" y="0" on="1"/>
        <pt x="114" y="0" on="1"/>
        <pt x="114" y="530" on="1"/>
        <pt x="11" y="502" on="1"/>
        <pt x="11" y="680" on="1"/>
        <pt x="114" y="708" on="1"/>
        <pt x="114" y="1165" on="1"/>
        <pt x="453" y="1165" on="1"/>
        <pt x="453" y="801" on="1"/>
        <pt x="692" y="867" on="1"/>
      </contour>
    </TTGlyph>
    <TTGlyph name="M" xMin="110" yMin="0" xMax="1682" yMax="1456">
      <contour>
        <pt x="571" y="1456" on="1"/>
        <pt x="896" y="443" on="1"/>
        <pt x="1220" y="1456" on="1"/>
        <pt x="1682" y="1456" on="1"/>
        <pt x="1682" y="0" on="1"/>
        <pt x="1330" y="0" on="1"/>
        <pt x="1330" y="340" on="1"/>
        <pt x="1364" y="1036" on="1"/>
        <pt x="1012" y="0" on="1"/>
        <pt x="780" y="0" on="1"/>
        <pt x="427" y="1037" on="1"/>
        <pt x="461" y="340" on="1"/>
        <pt x="461" y="0" on="1"/>
        <pt x="110" y="0" on="1"/>
        <pt x="110" y="1456" on="1"/>
      </contour>
    </TTGlyph>
    <TTGlyph name="M.c2sc" xMin="81" yMin="0" xMax="1463" yMax="1165">
      <contour>
        <pt x="528" y="1165" on="1"/>
        <pt x="771" y="422" on="1"/>
        <pt x="1014" y="1165" on="1"/>
        <pt x="1463" y="1165" on="1"/>
        <pt x="1463" y="0" on="1"/>
        <pt x="1123" y="0" on="1"/>
        <pt x="1123" y="180" on="1"/>
        <pt x="1157" y="803" on="1"/>
        <pt x="880" y="0" on="1"/>
        <pt x="662" y="0" on="1"/>
        <pt x="385" y="802" on="1"/>
        <pt x="420" y="180" on="1"/>
        <pt x="420" y="0" on="1"/>
        <pt x="81" y="0" on="1"/>
        <pt x="81" y="1165" on="1"/>
      </contour>
    </TTGlyph>
    <TTGlyph name="M_dotbelowcomb.ccmp" xMin="110" yMin="-369" xMax="1682" yMax="1456">
      <component glyphName="M" x="0" y="0" flags="0x1204"/>
      <component glyphName="dotbelowcomb" x="1494" y="10" flags="0x1004"/>
    </TTGlyph>
    <TTGlyph name="Mu" xMin="110" yMin="0" xMax="1682" yMax="1456">
      <component glyphName="M" x="0" y="0" flags="0x1204"/>
    </TTGlyph>
    <TTGlyph name="Mu.c2sc" xMin="81" yMin="0" xMax="1463" yMax="1165">
      <component glyphName="M.c2sc" x="0" y="0" flags="0x1204"/>
    </TTGlyph>
    <TTGlyph name="N" xMin="110" yMin="0" xMax="1326" yMax="1456">
      <contour>
        <pt x="1326" y="0" on="1"/>
        <pt x="977" y="0" on="1"/>
        <pt x="461" y="906" on="1"/>
        <pt x="461" y="0" on="1"/>
        <pt x="110" y="0" on="1"/>
        <pt x="110" y="1456" on="1"/>
        <pt x="461" y="1456" on="1"/>
        <pt x="976" y="550" on="1"/>
        <pt x="976" y="1456" on="1"/>
        <pt x="1326" y="1456" on="1"/>
      </contour>
    </TTGlyph>
    <TTGlyph name="N.c2sc" xMin="81" yMin="0" xMax="1149" yMax="1165">
      <contour>
        <pt x="1149" y="0" on="1"/>
        <pt x="812" y="0" on="1"/>
        <pt x="419" y="678" on="1"/>
        <pt x="419" y="0" on="1"/>
        <pt x="81" y="0" on="1"/>
        <pt x="81" y="1165" on="1"/>
        <pt x="419" y="1165" on="1"/>
        <pt x="812" y="487" on="1"/>
        <pt x="812" y="1165" on="1"/>
        <pt x="1149" y="1165" on="1"/>
      </contour>
    </TTGlyph>
    <TTGlyph name="N_dotbelowcomb.ccmp" xMin="110" yMin="-379" xMax="1326" yMax="1456">
      <component glyphName="N" x="0" y="0" flags="0x1204"/>
      <component glyphName="dotbelowcomb" x="1324" y="0" flags="0x1004"/>
    </TTGlyph>
    <TTGlyph name="N_gravecomb.ccmp" xMin="110" yMin="0" xMax="1326" yMax="1846">
      <component glyphName="N" x="0" y="0" flags="0x1204"/>
      <component glyphName="grave" x="277" y="310" flags="0x1004"/>
    </TTGlyph>
    <TTGlyph name="Nacute" xMin="110" yMin="0" xMax="1326" yMax="1846">
      <component glyphName="N" x="0" y="0" flags="0x1204"/>
      <component glyphName="acute" x="482" y="310" flags="0x1004"/>
    </TTGlyph>
    <TTGlyph name="Nacute.c2sc" xMin="81" yMin="0" xMax="1149" yMax="1566">
      <component glyphName="N.c2sc" x="0" y="0" flags="0x1204"/>
      <component glyphName="acute" x="380" y="30" flags="0x1004"/>
    </TTGlyph>
    <TTGlyph name="Ncaron" xMin="110" yMin="0" xMax="1326" yMax="1847">
      <component glyphName="N" x="0" y="0" flags="0x1204"/>
      <component glyphName="caron" x="234" y="310" flags="0x1004"/>
    </TTGlyph>
    <TTGlyph name="Ncaron.c2sc" xMin="81" yMin="0" xMax="1149" yMax="1567">
      <component glyphName="N.c2sc" x="0" y="0" flags="0x1204"/>
      <component glyphName="caron" x="132" y="30" flags="0x1004"/>
    </TTGlyph>
    <TTGlyph name="Ntilde" xMin="110" yMin="0" xMax="1326" yMax="1848">
      <component glyphName="N" x="0" y="0" flags="0x1204"/>
      <component glyphName="tilde" x="227" y="305" flags="0x1004"/>
    </TTGlyph>
    <TTGlyph name="Ntilde.c2sc" xMin="81" yMin="0" xMax="1149" yMax="1568">
      <component glyphName="N.c2sc" x="0" y="0" flags="0x1204"/>
      <component glyphName="tilde" x="125" y="25" flags="0x1004"/>
    </TTGlyph>
    <TTGlyph name="Nu" xMin="110" yMin="0" xMax="1326" yMax="1456">
      <component glyphName="N" x="0" y="0" flags="0x1204"/>
    </TTGlyph>
    <TTGlyph name="Nu.c2sc" xMin="81" yMin="0" xMax="1149" yMax="1165">
      <component glyphName="N.c2sc" x="0" y="0" flags="0x1204"/>
    </TTGlyph>
    <TTGlyph name="O" xMin="69" yMin="-20" xMax="1343" yMax="1476">
      <contour>
        <pt x="1343" y="698" on="1"/>
        <pt x="1343" y="485" on="0"/>
        <pt x="1185" y="157" on="0"/>
        <pt x="894" y="-20" on="0"/>
        <pt x="522" y="-20" on="0"/>
        <pt x="234" y="151" on="0"/>
        <pt x="73" y="469" on="0"/>
        <pt x="69" y="675" on="1"/>
        <pt x="69" y="757" on="1"/>
        <pt x="69" y="971" on="0"/>
        <pt x="226" y="1298" on="0"/>
        <pt x="519" y="1476" on="0"/>
        <pt x="706" y="1476" on="1"/>
        <pt x="891" y="1476" on="0"/>
        <pt x="1181" y="1300" on="0"/>
        <pt x="1342" y="975" on="0"/>
        <pt x="1343" y="765" on="1"/>
      </contour>
      <contour>
        <pt x="986" y="759" on="1"/>
        <pt x="986" y="976" on="0"/>
        <pt x="841" y="1201" on="0"/>
        <pt x="706" y="1201" on="1"/>
        <pt x="442" y="1201" on="0"/>
        <pt x="427" y="805" on="1"/>
        <pt x="426" y="698" on="1"/>
        <pt x="426" y="484" on="0"/>
        <pt x="568" y="254" on="0"/>
        <pt x="708" y="254" on="1"/>
        <pt x="841" y="254" on="0"/>
        <pt x="985" y="480" on="0"/>
        <pt x="986" y="692" on="1"/>
      </contour>
    </TTGlyph>
    <TTGlyph name="O.c2sc" xMin="47" yMin="-16" xMax="1167" yMax="1181">
      <contour>
        <pt x="1167" y="562" on="1"/>
        <pt x="1167" y="391" on="0"/>
        <pt x="1026" y="126" on="0"/>
        <pt x="770" y="-16" on="0"/>
        <pt x="609" y="-16" on="1"/>
        <pt x="445" y="-16" on="0"/>
        <pt x="189" y="124" on="0"/>
        <pt x="47" y="389" on="0"/>
        <pt x="47" y="561" on="1"/>
        <pt x="47" y="602" on="1"/>
        <pt x="47" y="773" on="0"/>
        <pt x="185" y="1037" on="0"/>
        <pt x="442" y="1181" on="0"/>
        <pt x="607" y="1181" on="1"/>
        <pt x="768" y="1181" on="0"/>
        <pt x="1024" y="1038" on="0"/>
        <pt x="1165" y="779" on="0"/>
        <pt x="1167" y="612" on="1"/>
      </contour>
      <contour>
        <pt x="827" y="603" on="1"/>
        <pt x="827" y="757" on="0"/>
        <pt x="711" y="924" on="0"/>
        <pt x="607" y="924" on="1"/>
        <pt x="387" y="924" on="0"/>
        <pt x="387" y="597" on="1"/>
        <pt x="387" y="562" on="1"/>
        <pt x="387" y="412" on="0"/>
        <pt x="497" y="240" on="0"/>
        <pt x="609" y="240" on="1"/>
        <pt x="709" y="240" on="0"/>
        <pt x="825" y="408" on="0"/>
        <pt x="827" y="554" on="1"/>
      </contour>
    </TTGlyph>
    <TTGlyph name="O.ss06" xMin="67" yMin="-21" xMax="1415" yMax="1477">
      <contour>
        <pt x="1415" y="707" on="1"/>
        <pt x="1415" y="504" on="0"/>
        <pt x="1243" y="168" on="0"/>
        <pt x="934" y="-21" on="0"/>
        <pt x="550" y="-21" on="0"/>
        <pt x="243" y="165" on="0"/>
        <pt x="70" y="494" on="0"/>
        <pt x="67" y="693" on="1"/>
        <pt x="67" y="749" on="1"/>
        <pt x="67" y="952" on="0"/>
        <pt x="241" y="1291" on="0"/>
        <pt x="551" y="1477" on="0"/>
        <pt x="740" y="1477" on="1"/>
        <pt x="931" y="1477" on="0"/>
        <pt x="1239" y="1289" on="0"/>
        <pt x="1413" y="958" on="0"/>
        <pt x="1415" y="758" on="1"/>
      </contour>
      <contour>
        <pt x="1065" y="751" on="1"/>
        <pt x="1065" y="953" on="0"/>
        <pt x="886" y="1207" on="0"/>
        <pt x="740" y="1207" on="1"/>
        <pt x="592" y="1207" on="0"/>
        <pt x="418" y="956" on="0"/>
        <pt x="418" y="742" on="1"/>
        <pt x="418" y="707" on="1"/>
        <pt x="418" y="500" on="0"/>
        <pt x="594" y="248" on="0"/>
        <pt x="742" y="248" on="1"/>
        <pt x="889" y="248" on="0"/>
        <pt x="1065" y="506" on="0"/>
        <pt x="1065" y="716" on="1"/>
      </contour>
    </TTGlyph>
    <TTGlyph name="OE" xMin="92" yMin="-20" xMax="1920" yMax="1476">
      <contour>
        <pt x="1918" y="0" on="1"/>
        <pt x="1010" y="0" on="1"/>
        <pt x="843" y="-20" on="0"/>
        <pt x="722" y="-20" on="1"/>
        <pt x="539" y="-20" on="0"/>
        <pt x="251" y="130" on="0"/>
        <pt x="92" y="403" on="0"/>
        <pt x="92" y="575" on="1"/>
        <pt x="92" y="880" on="1"/>
        <pt x="92" y="1053" on="0"/>
        <pt x="250" y="1327" on="0"/>
        <pt x="538" y="1476" on="0"/>
        <pt x="720" y="1476" on="1"/>
        <pt x="843" y="1476" on="0"/>
        <pt x="1010" y="1456" on="1"/>
        <pt x="1920" y="1456" on="1"/>
        <pt x="1920" y="1185" on="1"/>
        <pt x="1266" y="1185" on="1"/>
        <pt x="1266" y="878" on="1"/>
        <pt x="1818" y="878" on="1"/>
        <pt x="1818" y="617" on="1"/>
        <pt x="1266" y="617" on="1"/>
        <pt x="1266" y="270" on="1"/>
        <pt x="1918" y="270" on="1"/>
      </contour>
      <contour>
        <pt x="722" y="240" on="1"/>
        <pt x="823" y="240" on="0"/>
        <pt x="915" y="252" on="1"/>
        <pt x="915" y="1203" on="1"/>
        <pt x="813" y="1216" on="0"/>
        <pt x="720" y="1216" on="1"/>
        <pt x="585" y="1216" on="0"/>
        <pt x="430" y="1050" on="0"/>
        <pt x="430" y="882" on="1"/>
        <pt x="430" y="576" on="1"/>
        <pt x="430" y="408" on="0"/>
        <pt x="587" y="240" on="0"/>
      </contour>
    </TTGlyph>
    <TTGlyph name="OE.c2sc" xMin="47" yMin="-16" xMax="1653" yMax="1181">
      <contour>
        <pt x="1648" y="0" on="1"/>
        <pt x="944" y="0" on="1"/>
        <pt x="609" y="-16" on="1"/>
        <pt x="445" y="-16" on="0"/>
        <pt x="189" y="124" on="0"/>
        <pt x="47" y="389" on="0"/>
        <pt x="47" y="561" on="1"/>
        <pt x="47" y="602" on="1"/>
        <pt x="47" y="773" on="0"/>
        <pt x="185" y="1037" on="0"/>
        <pt x="442" y="1181" on="0"/>
        <pt x="607" y="1181" on="1"/>
        <pt x="943" y="1165" on="1"/>
        <pt x="1653" y="1165" on="1"/>
        <pt x="1653" y="905" on="1"/>
        <pt x="1105" y="905" on="1"/>
        <pt x="1105" y="732" on="1"/>
        <pt x="1563" y="732" on="1"/>
        <pt x="1563" y="472" on="1"/>
        <pt x="1105" y="472" on="1"/>
        <pt x="1105" y="259" on="1"/>
        <pt x="1648" y="259" on="1"/>
      </contour>
      <contour>
        <pt x="609" y="240" on="1"/>
        <pt x="767" y="248" on="1"/>
        <pt x="767" y="914" on="1"/>
        <pt x="607" y="924" on="1"/>
        <pt x="387" y="924" on="0"/>
        <pt x="387" y="597" on="1"/>
        <pt x="387" y="562" on="1"/>
        <pt x="387" y="412" on="0"/>
        <pt x="497" y="240" on="0"/>
      </contour>
    </TTGlyph>
    <TTGlyph name="O_tildecomb_acutecomb.ccmp" xMin="69" yMin="-20" xMax="1343" yMax="1997">
      <component glyphName="O" x="0" y="0" flags="0x1204"/>
      <component glyphName="glyph566" x="1258" y="342" flags="0x1004"/>
    </TTGlyph>
    <TTGlyph name="O_uni030F.ccmp" xMin="69" yMin="-20" xMax="1343" yMax="1828">
      <component glyphName="O" x="0" y="0" flags="0x1204"/>
      <component glyphName="uni030F" x="1177" y="310" flags="0x1004"/>
    </TTGlyph>
    <TTGlyph name="Oacute" xMin="69" yMin="-20" xMax="1343" yMax="1846">
      <component glyphName="O" x="0" y="0" flags="0x1204"/>
      <component glyphName="acute" x="460" y="310" flags="0x1004"/>
    </TTGlyph>
    <TTGlyph name="Oacute.c2sc" xMin="47" yMin="-16" xMax="1167" yMax="1566">
      <component glyphName="O.c2sc" x="0" y="0" flags="0x1204"/>
      <component glyphName="acute" x="359" y="30" flags="0x1004"/>
    </TTGlyph>
    <TTGlyph name="Obreve" xMin="69" yMin="-20" xMax="1343" yMax="1848">
      <component glyphName="O" x="0" y="0" flags="0x1204"/>
      <component glyphName="breve" x="241" y="310" flags="0x1004"/>
    </TTGlyph>
    <TTGlyph name="Obreve.c2sc" xMin="47" yMin="-16" xMax="1167" yMax="1568">
      <component glyphName="O.c2sc" x="0" y="0" flags="0x1204"/>
      <component glyphName="breve" x="140" y="30" flags="0x1004"/>
    </TTGlyph>
    <TTGlyph name="Ocircumflex" xMin="69" yMin="-20" xMax="1343" yMax="1846">
      <component glyphName="O" x="0" y="0" flags="0x1204"/>
      <component glyphName="circumflex" x="188" y="310" flags="0x1004"/>
    </TTGlyph>
    <TTGlyph name="Ocircumflex.c2sc" xMin="47" yMin="-16" xMax="1167" yMax="1566">
      <component glyphName="O.c2sc" x="0" y="0" flags="0x1204"/>
      <component glyphName="circumflex" x="87" y="30" flags="0x1004"/>
    </TTGlyph>
    <TTGlyph name="Odieresis" xMin="69" yMin="-20" xMax="1343" yMax="1808">
      <component glyphName="O" x="0" y="0" flags="0x1204"/>
      <component glyphName="dieresis" x="197" y="310" flags="0x1004"/>
    </TTGlyph>
    <TTGlyph name="Odieresis.c2sc" xMin="47" yMin="-16" xMax="1167" yMax="1528">
      <component glyphName="O.c2sc" x="0" y="0" flags="0x1204"/>
      <component glyphName="dieresis" x="96" y="30" flags="0x1004"/>
    </TTGlyph>
    <TTGlyph name="Ograve" xMin="69" yMin="-20" xMax="1343" yMax="1846">
      <component glyphName="O" x="0" y="0" flags="0x1204"/>
      <component glyphName="grave" x="255" y="310" flags="0x1004"/>
    </TTGlyph>
    <TTGlyph name="Ograve.c2sc" xMin="47" yMin="-16" xMax="1167" yMax="1566">
      <component glyphName="O.c2sc" x="0" y="0" flags="0x1204"/>
      <component glyphName="grave" x="154" y="30" flags="0x1004"/>
    </TTGlyph>
    <TTGlyph name="Ohorn" xMin="72" yMin="-20" xMax="1484" yMax="1556">
      <contour>
        <pt x="1346" y="698" on="1"/>
        <pt x="1346" y="484" on="0"/>
        <pt x="1187" y="156" on="0"/>
        <pt x="896" y="-20" on="0"/>
        <pt x="524" y="-20" on="0"/>
        <pt x="236" y="152" on="0"/>
        <pt x="75" y="472" on="0"/>
        <pt x="72" y="680" on="1"/>
        <pt x="72" y="757" on="1"/>
        <pt x="72" y="972" on="0"/>
        <pt x="229" y="1298" on="0"/>
        <pt x="520" y="1476" on="0"/>
        <pt x="708" y="1476" on="1"/>
        <pt x="851" y="1476" on="0"/>
        <pt x="1089" y="1372" on="0"/>
        <pt x="1175" y="1274" on="1"/>
        <pt x="1229" y="1293" on="0"/>
        <pt x="1280" y="1420" on="0"/>
        <pt x="1280" y="1556" on="1"/>
        <pt x="1484" y="1556" on="1"/>
        <pt x="1484" y="1206" on="0"/>
        <pt x="1270" y="1126" on="1"/>
        <pt x="1345" y="967" on="0"/>
        <pt x="1346" y="761" on="1"/>
      </contour>
      <contour>
        <pt x="989" y="759" on="1"/>
        <pt x="989" y="976" on="0"/>
        <pt x="843" y="1201" on="0"/>
        <pt x="708" y="1201" on="1"/>
        <pt x="445" y="1201" on="0"/>
        <pt x="430" y="805" on="1"/>
        <pt x="429" y="698" on="1"/>
        <pt x="429" y="483" on="0"/>
        <pt x="570" y="254" on="0"/>
        <pt x="710" y="254" on="1"/>
        <pt x="844" y="254" on="0"/>
        <pt x="988" y="480" on="0"/>
        <pt x="989" y="692" on="1"/>
      </contour>
    </TTGlyph>
    <TTGlyph name="Ohungarumlaut" xMin="69" yMin="-20" xMax="1343" yMax="1845">
      <component glyphName="O" x="0" y="0" flags="0x1204"/>
      <component glyphName="hungarumlaut" x="332" y="310" flags="0x1004"/>
    </TTGlyph>
    <TTGlyph name="Ohungarumlaut.c2sc" xMin="47" yMin="-16" xMax="1167" yMax="1565">
      <component glyphName="O.c2sc" x="0" y="0" flags="0x1204"/>
      <component glyphName="hungarumlaut" x="231" y="30" flags="0x1004"/>
    </TTGlyph>
    <TTGlyph name="Omacron" xMin="69" yMin="-20" xMax="1343" yMax="1762">
      <component glyphName="O" x="0" y="0" flags="0x1204"/>
      <component glyphName="macron" x="176" y="304" flags="0x1004"/>
    </TTGlyph>
    <TTGlyph name="Omacron.c2sc" xMin="47" yMin="-16" xMax="1167" yMax="1482">
      <component glyphName="O.c2sc" x="0" y="0" flags="0x1204"/>
      <component glyphName="macron" x="75" y="24" flags="0x1004"/>
    </TTGlyph>
    <TTGlyph name="Omega" xMin="98" yMin="0" xMax="1270" yMax="1475">
      <contour>
        <pt x="735" y="278" on="1"/>
        <pt x="800" y="322" on="0"/>
        <pt x="868" y="584" on="0"/>
        <pt x="868" y="791" on="1"/>
        <pt x="868" y="871" on="1"/>
        <pt x="868" y="1036" on="0"/>
        <pt x="771" y="1201" on="0"/>
        <pt x="683" y="1201" on="1"/>
        <pt x="596" y="1201" on="0"/>
        <pt x="499" y="1036" on="0"/>
        <pt x="499" y="871" on="1"/>
        <pt x="499" y="794" on="1"/>
        <pt x="499" y="582" on="0"/>
        <pt x="567" y="324" on="0"/>
        <pt x="639" y="278" on="1"/>
        <pt x="639" y="0" on="1"/>
        <pt x="120" y="0" on="1"/>
        <pt x="120" y="274" on="1"/>
        <pt x="341" y="274" on="1"/>
        <pt x="228" y="372" on="0"/>
        <pt x="99" y="639" on="0"/>
        <pt x="98" y="788" on="1"/>
        <pt x="98" y="869" on="1"/>
        <pt x="98" y="1044" on="0"/>
        <pt x="246" y="1321" on="0"/>
        <pt x="513" y="1475" on="0"/>
        <pt x="683" y="1475" on="1"/>
        <pt x="850" y="1475" on="0"/>
        <pt x="1117" y="1324" on="0"/>
        <pt x="1268" y="1050" on="0"/>
        <pt x="1270" y="879" on="1"/>
        <pt x="1270" y="794" on="1"/>
        <pt x="1270" y="605" on="0"/>
        <pt x="1169" y="440" on="1"/>
        <pt x="1111" y="346" on="0"/>
        <pt x="1028" y="274" on="1"/>
        <pt x="1247" y="274" on="1"/>
        <pt x="1247" y="0" on="1"/>
        <pt x="735" y="0" on="1"/>
      </contour>
    </TTGlyph>
    <TTGlyph name="Omega.c2sc" xMin="53" yMin="0" xMax="1161" yMax="1181">
      <contour>
        <pt x="658" y="268" on="1"/>
        <pt x="742" y="312" on="0"/>
        <pt x="822" y="470" on="0"/>
        <pt x="823" y="596" on="1"/>
        <pt x="823" y="655" on="1"/>
        <pt x="823" y="785" on="0"/>
        <pt x="713" y="924" on="0"/>
        <pt x="606" y="924" on="1"/>
        <pt x="391" y="924" on="0"/>
        <pt x="391" y="645" on="1"/>
        <pt x="391" y="604" on="1"/>
        <pt x="391" y="469" on="0"/>
        <pt x="471" y="312" on="0"/>
        <pt x="561" y="268" on="1"/>
        <pt x="561" y="0" on="1"/>
        <pt x="82" y="0" on="1"/>
        <pt x="82" y="264" on="1"/>
        <pt x="282" y="264" on="1"/>
        <pt x="179" y="332" on="0"/>
        <pt x="53" y="543" on="0"/>
        <pt x="53" y="669" on="1"/>
        <pt x="53" y="699" on="1"/>
        <pt x="53" y="829" on="0"/>
        <pt x="195" y="1053" on="0"/>
        <pt x="447" y="1181" on="0"/>
        <pt x="606" y="1181" on="1"/>
        <pt x="847" y="1181" on="0"/>
        <pt x="1161" y="901" on="0"/>
        <pt x="1161" y="688" on="1"/>
        <pt x="1161" y="668" on="1"/>
        <pt x="1161" y="546" on="0"/>
        <pt x="1039" y="336" on="0"/>
        <pt x="932" y="264" on="1"/>
        <pt x="1139" y="264" on="1"/>
        <pt x="1139" y="0" on="1"/>
        <pt x="658" y="0" on="1"/>
      </contour>
    </TTGlyph>
    <TTGlyph name="Omegatonos" xMin="-182" yMin="0" xMax="1290" yMax="1602">
      <component glyphName="Omega" x="20" y="0" flags="0x1004"/>
      <component glyphName="tonos" x="-421" y="0" flags="0x1004"/>
    </TTGlyph>
    <TTGlyph name="Omegatonos.c2sc" xMin="-227" yMin="0" xMax="1171" yMax="1314">
      <component glyphName="Omega.c2sc" x="10" y="0" flags="0x1004"/>
      <component glyphName="tonos" x="-466" y="-288" flags="0x1004"/>
    </TTGlyph>
    <TTGlyph name="Omicron" xMin="69" yMin="-20" xMax="1343" yMax="1476">
      <component glyphName="O" x="0" y="0" flags="0x1204"/>
    </TTGlyph>
    <TTGlyph name="Omicron.c2sc" xMin="47" yMin="-16" xMax="1167" yMax="1181">
      <component glyphName="O.c2sc" x="0" y="0" flags="0x1204"/>
    </TTGlyph>
    <TTGlyph name="Omicrontonos" xMin="-216" yMin="-20" xMax="1363" yMax="1602">
      <component glyphName="O" x="20" y="0" flags="0x1004"/>
      <component glyphName="tonos" x="-455" y="0" flags="0x1004"/>
    </TTGlyph>
    <TTGlyph name="Omicrontonos.c2sc" xMin="-236" yMin="-16" xMax="1177" yMax="1311">
      <component glyphName="O.c2sc" x="10" y="0" flags="0x1004"/>
      <component glyphName="tonos" x="-475" y="-291" flags="0x1004"/>
    </TTGlyph>
    <TTGlyph name="Oslash" xMin="81" yMin="-95" xMax="1354" yMax="1518">
      <contour>
        <pt x="1354" y="698" on="1"/>
        <pt x="1354" y="485" on="0"/>
        <pt x="1196" y="157" on="0"/>
        <pt x="905" y="-20" on="0"/>
        <pt x="719" y="-20" on="1"/>
        <pt x="557" y="-20" on="0"/>
        <pt x="427" y="45" on="1"/>
        <pt x="346" y="-95" on="1"/>
        <pt x="139" y="-95" on="1"/>
        <pt x="280" y="150" on="1"/>
        <pt x="81" y="349" on="0"/>
        <pt x="81" y="706" on="1"/>
        <pt x="81" y="757" on="1"/>
        <pt x="81" y="972" on="0"/>
        <pt x="238" y="1298" on="0"/>
        <pt x="529" y="1476" on="0"/>
        <pt x="717" y="1476" on="1"/>
        <pt x="874" y="1476" on="0"/>
        <pt x="1004" y="1412" on="1"/>
        <pt x="1065" y="1518" on="1"/>
        <pt x="1273" y="1518" on="1"/>
        <pt x="1152" y="1307" on="1"/>
        <pt x="1354" y="1107" on="0"/>
        <pt x="1354" y="749" on="1"/>
      </contour>
      <contour>
        <pt x="997" y="759" on="1"/>
        <pt x="997" y="892" on="0"/>
        <pt x="968" y="988" on="1"/>
        <pt x="572" y="299" on="1"/>
        <pt x="632" y="254" on="0"/>
        <pt x="719" y="254" on="1"/>
        <pt x="853" y="254" on="0"/>
        <pt x="996" y="480" on="0"/>
        <pt x="997" y="692" on="1"/>
      </contour>
      <contour>
        <pt x="437" y="698" on="1"/>
        <pt x="437" y="565" on="0"/>
        <pt x="464" y="471" on="1"/>
        <pt x="858" y="1158" on="1"/>
        <pt x="798" y="1201" on="0"/>
        <pt x="717" y="1201" on="1"/>
        <pt x="578" y="1201" on="0"/>
        <pt x="438" y="979" on="0"/>
        <pt x="437" y="765" on="1"/>
      </contour>
    </TTGlyph>
    <TTGlyph name="Oslash.c2sc" xMin="46" yMin="-55" xMax="1168" yMax="1219">
      <contour>
        <pt x="1016" y="1016" on="1"/>
        <pt x="1166" y="859" on="0"/>
        <pt x="1167" y="603" on="1"/>
        <pt x="1167" y="562" on="1"/>
        <pt x="1167" y="391" on="0"/>
        <pt x="1026" y="126" on="0"/>
        <pt x="770" y="-16" on="0"/>
        <pt x="609" y="-16" on="1"/>
        <pt x="437" y="-16" on="0"/>
        <pt x="305" y="61" on="1"/>
        <pt x="219" y="-55" on="1"/>
        <pt x="46" y="-55" on="1"/>
        <pt x="196" y="147" on="1"/>
        <pt x="48" y="304" on="0"/>
        <pt x="47" y="561" on="1"/>
        <pt x="47" y="602" on="1"/>
        <pt x="47" y="773" on="0"/>
        <pt x="185" y="1037" on="0"/>
        <pt x="442" y="1181" on="0"/>
        <pt x="607" y="1181" on="1"/>
        <pt x="776" y="1181" on="0"/>
        <pt x="907" y="1103" on="1"/>
        <pt x="994" y="1219" on="1"/>
        <pt x="1168" y="1219" on="1"/>
      </contour>
      <contour>
        <pt x="387" y="562" on="1"/>
        <pt x="387" y="475" on="0"/>
        <pt x="401" y="423" on="1"/>
        <pt x="738" y="875" on="1"/>
        <pt x="684" y="924" on="0"/>
        <pt x="607" y="924" on="1"/>
        <pt x="387" y="924" on="0"/>
        <pt x="387" y="597" on="1"/>
      </contour>
      <contour>
        <pt x="827" y="603" on="1"/>
        <pt x="827" y="680" on="0"/>
        <pt x="811" y="740" on="1"/>
        <pt x="474" y="288" on="1"/>
        <pt x="526" y="240" on="0"/>
        <pt x="609" y="240" on="1"/>
        <pt x="709" y="240" on="0"/>
        <pt x="825" y="408" on="0"/>
        <pt x="827" y="554" on="1"/>
      </contour>
    </TTGlyph>
    <TTGlyph name="Oslashacute" xMin="81" yMin="-95" xMax="1354" yMax="1920">
      <component glyphName="Oslash" x="0" y="0" flags="0x1204"/>
      <component glyphName="acute" x="472" y="384" flags="0x1004"/>
    </TTGlyph>
    <TTGlyph name="Oslashacute.c2sc" xMin="46" yMin="-55" xMax="1168" yMax="1566">
      <component glyphName="Oslash.c2sc" x="0" y="0" flags="0x1204"/>
      <component glyphName="acute" x="359" y="30" flags="0x1004"/>
    </TTGlyph>
    <TTGlyph name="Otilde" xMin="69" yMin="-20" xMax="1343" yMax="1848">
      <component glyphName="O" x="0" y="0" flags="0x1204"/>
      <component glyphName="tilde" x="205" y="305" flags="0x1004"/>
    </TTGlyph>
    <TTGlyph name="Otilde.c2sc" xMin="47" yMin="-16" xMax="1167" yMax="1568">
      <component glyphName="O.c2sc" x="0" y="0" flags="0x1204"/>
      <component glyphName="tilde" x="104" y="25" flags="0x1004"/>
    </TTGlyph>
    <TTGlyph name="P" xMin="110" yMin="0" xMax="1256" yMax="1456">
      <contour>
        <pt x="461" y="494" on="1"/>
        <pt x="461" y="0" on="1"/>
        <pt x="110" y="0" on="1"/>
        <pt x="110" y="1456" on="1"/>
        <pt x="691" y="1456" on="1"/>
        <pt x="858" y="1456" on="0"/>
        <pt x="1115" y="1333" on="0"/>
        <pt x="1256" y="1106" on="0"/>
        <pt x="1256" y="962" on="1"/>
        <pt x="1256" y="749" on="0"/>
        <pt x="951" y="494" on="0"/>
        <pt x="685" y="494" on="1"/>
      </contour>
      <contour>
        <pt x="461" y="765" on="1"/>
        <pt x="691" y="765" on="1"/>
        <pt x="793" y="765" on="0"/>
        <pt x="900" y="867" on="0"/>
        <pt x="900" y="960" on="1"/>
        <pt x="900" y="1062" on="0"/>
        <pt x="790" y="1184" on="0"/>
        <pt x="695" y="1185" on="1"/>
        <pt x="461" y="1185" on="1"/>
      </contour>
    </TTGlyph>
    <TTGlyph name="P.c2sc" xMin="81" yMin="0" xMax="1087" yMax="1165">
      <contour>
        <pt x="419" y="365" on="1"/>
        <pt x="419" y="0" on="1"/>
        <pt x="81" y="0" on="1"/>
        <pt x="81" y="1165" on="1"/>
        <pt x="589" y="1165" on="1"/>
        <pt x="736" y="1165" on="0"/>
        <pt x="962" y="1060" on="0"/>
        <pt x="1087" y="869" on="0"/>
        <pt x="1087" y="749" on="1"/>
        <pt x="1087" y="581" on="0"/>
        <pt x="822" y="369" on="0"/>
        <pt x="604" y="365" on="1"/>
      </contour>
      <contour>
        <pt x="419" y="625" on="1"/>
        <pt x="589" y="625" on="1"/>
        <pt x="671" y="625" on="0"/>
        <pt x="750" y="695" on="0"/>
        <pt x="750" y="747" on="1"/>
        <pt x="750" y="816" on="0"/>
        <pt x="665" y="905" on="0"/>
        <pt x="589" y="905" on="1"/>
        <pt x="419" y="905" on="1"/>
      </contour>
    </TTGlyph>
    <TTGlyph name="P_acutecomb.ccmp" xMin="110" yMin="0" xMax="1256" yMax="1858">
      <component glyphName="P" x="0" y="0" flags="0x1204"/>
      <component glyphName="acute" x="350" y="322" flags="0x1004"/>
    </TTGlyph>
    <TTGlyph name="Phi" xMin="72" yMin="0" xMax="1576" yMax="1456">
      <contour>
        <pt x="1001" y="1293" on="1"/>
        <pt x="1172" y="1285" on="0"/>
        <pt x="1434" y="1139" on="0"/>
        <pt x="1576" y="883" on="0"/>
        <pt x="1576" y="718" on="1"/>
        <pt x="1576" y="559" on="0"/>
        <pt x="1434" y="312" on="0"/>
        <pt x="1172" y="171" on="0"/>
        <pt x="1001" y="163" on="1"/>
        <pt x="1001" y="0" on="1"/>
        <pt x="652" y="0" on="1"/>
        <pt x="652" y="163" on="1"/>
        <pt x="388" y="173" on="0"/>
        <pt x="72" y="474" on="0"/>
        <pt x="72" y="716" on="1"/>
        <pt x="72" y="882" on="0"/>
        <pt x="216" y="1140" on="0"/>
        <pt x="478" y="1285" on="0"/>
        <pt x="652" y="1293" on="1"/>
        <pt x="652" y="1456" on="1"/>
        <pt x="1001" y="1456" on="1"/>
      </contour>
      <contour>
        <pt x="416" y="716" on="1"/>
        <pt x="416" y="600" on="0"/>
        <pt x="542" y="467" on="0"/>
        <pt x="652" y="458" on="1"/>
        <pt x="652" y="997" on="1"/>
        <pt x="540" y="986" on="0"/>
        <pt x="416" y="840" on="0"/>
      </contour>
      <contour>
        <pt x="1233" y="718" on="1"/>
        <pt x="1233" y="841" on="0"/>
        <pt x="1112" y="986" on="0"/>
        <pt x="1001" y="997" on="1"/>
        <pt x="1001" y="459" on="1"/>
        <pt x="1113" y="470" on="0"/>
        <pt x="1233" y="604" on="0"/>
      </contour>
    </TTGlyph>
    <TTGlyph name="Phi.c2sc" xMin="48" yMin="0" xMax="1506" yMax="1165">
      <contour>
        <pt x="948" y="1048" on="1"/>
        <pt x="1214" y="1033" on="0"/>
        <pt x="1506" y="794" on="0"/>
        <pt x="1506" y="588" on="1"/>
        <pt x="1506" y="375" on="0"/>
        <pt x="1216" y="124" on="0"/>
        <pt x="948" y="106" on="1"/>
        <pt x="948" y="0" on="1"/>
        <pt x="611" y="0" on="1"/>
        <pt x="611" y="106" on="1"/>
        <pt x="346" y="121" on="0"/>
        <pt x="48" y="371" on="0"/>
        <pt x="48" y="586" on="1"/>
        <pt x="48" y="792" on="0"/>
        <pt x="337" y="1033" on="0"/>
        <pt x="611" y="1049" on="1"/>
        <pt x="611" y="1165" on="1"/>
        <pt x="948" y="1165" on="1"/>
      </contour>
      <contour>
        <pt x="387" y="586" on="1"/>
        <pt x="383" y="484" on="0"/>
        <pt x="501" y="359" on="0"/>
        <pt x="611" y="348" on="1"/>
        <pt x="611" y="806" on="1"/>
        <pt x="391" y="784" on="0"/>
      </contour>
      <contour>
        <pt x="1167" y="588" on="1"/>
        <pt x="1167" y="784" on="0"/>
        <pt x="948" y="806" on="1"/>
        <pt x="948" y="349" on="1"/>
        <pt x="1054" y="360" on="0"/>
        <pt x="1167" y="481" on="0"/>
      </contour>
    </TTGlyph>
    <TTGlyph name="Pi" xMin="108" yMin="0" xMax="1333" yMax="1456">
      <contour>
        <pt x="1333" y="0" on="1"/>
        <pt x="982" y="0" on="1"/>
        <pt x="982" y="1185" on="1"/>
        <pt x="459" y="1185" on="1"/>
        <pt x="459" y="0" on="1"/>
        <pt x="108" y="0" on="1"/>
        <pt x="108" y="1456" on="1"/>
        <pt x="1333" y="1456" on="1"/>
      </contour>
    </TTGlyph>
    <TTGlyph name="Pi.c2sc" xMin="81" yMin="0" xMax="1175" yMax="1165">
      <contour>
        <pt x="1175" y="0" on="1"/>
        <pt x="837" y="0" on="1"/>
        <pt x="837" y="905" on="1"/>
        <pt x="419" y="905" on="1"/>
        <pt x="419" y="0" on="1"/>
        <pt x="81" y="0" on="1"/>
        <pt x="81" y="1165" on="1"/>
        <pt x="1175" y="1165" on="1"/>
      </contour>
    </TTGlyph>
    <TTGlyph name="Psi" xMin="35" yMin="0" xMax="1494" yMax="1456">
      <contour>
        <pt x="952" y="675" on="1"/>
        <pt x="1051" y="694" on="0"/>
        <pt x="1142" y="856" on="0"/>
        <pt x="1142" y="1016" on="1"/>
        <pt x="1142" y="1456" on="1"/>
        <pt x="1494" y="1456" on="1"/>
        <pt x="1494" y="1007" on="1"/>
        <pt x="1491" y="744" on="0"/>
        <pt x="1206" y="428" on="0"/>
        <pt x="952" y="402" on="1"/>
        <pt x="952" y="0" on="1"/>
        <pt x="602" y="0" on="1"/>
        <pt x="602" y="400" on="1"/>
        <pt x="333" y="421" on="0"/>
        <pt x="37" y="742" on="0"/>
        <pt x="35" y="1011" on="1"/>
        <pt x="35" y="1456" on="1"/>
        <pt x="386" y="1456" on="1"/>
        <pt x="386" y="998" on="1"/>
        <pt x="392" y="721" on="0"/>
        <pt x="602" y="676" on="1"/>
        <pt x="602" y="1456" on="1"/>
        <pt x="952" y="1456" on="1"/>
      </contour>
    </TTGlyph>
    <TTGlyph name="Psi.c2sc" xMin="48" yMin="0" xMax="1431" yMax="1165">
      <contour>
        <pt x="909" y="528" on="1"/>
        <pt x="1008" y="543" on="0"/>
        <pt x="1091" y="677" on="0"/>
        <pt x="1093" y="852" on="1"/>
        <pt x="1093" y="1165" on="1"/>
        <pt x="1431" y="1165" on="1"/>
        <pt x="1431" y="868" on="1"/>
        <pt x="1428" y="602" on="0"/>
        <pt x="1159" y="291" on="0"/>
        <pt x="909" y="267" on="1"/>
        <pt x="909" y="0" on="1"/>
        <pt x="571" y="0" on="1"/>
        <pt x="571" y="267" on="1"/>
        <pt x="321" y="291" on="0"/>
        <pt x="51" y="600" on="0"/>
        <pt x="48" y="869" on="1"/>
        <pt x="48" y="1165" on="1"/>
        <pt x="387" y="1165" on="1"/>
        <pt x="387" y="867" on="1"/>
        <pt x="388" y="706" on="0"/>
        <pt x="474" y="556" on="0"/>
        <pt x="571" y="534" on="1"/>
        <pt x="571" y="1165" on="1"/>
        <pt x="909" y="1165" on="1"/>
      </contour>
    </TTGlyph>
    <TTGlyph name="Q" xMin="72" yMin="-266" xMax="1345" yMax="1476">
      <contour>
        <pt x="1345" y="698" on="1"/>
        <pt x="1345" y="496" on="0"/>
        <pt x="1211" y="195" on="0"/>
        <pt x="1093" y="104" on="1"/>
        <pt x="1328" y="-82" on="1"/>
        <pt x="1111" y="-266" on="1"/>
        <pt x="798" y="-14" on="1"/>
        <pt x="754" y="-20" on="0"/>
        <pt x="710" y="-20" on="1"/>
        <pt x="524" y="-20" on="0"/>
        <pt x="236" y="152" on="0"/>
        <pt x="75" y="472" on="0"/>
        <pt x="72" y="680" on="1"/>
        <pt x="72" y="757" on="1"/>
        <pt x="72" y="972" on="0"/>
        <pt x="229" y="1298" on="0"/>
        <pt x="520" y="1476" on="0"/>
        <pt x="708" y="1476" on="1"/>
        <pt x="893" y="1476" on="0"/>
        <pt x="1183" y="1300" on="0"/>
        <pt x="1344" y="975" on="0"/>
        <pt x="1345" y="765" on="1"/>
      </contour>
      <contour>
        <pt x="988" y="759" on="1"/>
        <pt x="988" y="976" on="0"/>
        <pt x="843" y="1201" on="0"/>
        <pt x="708" y="1201" on="1"/>
        <pt x="569" y="1201" on="0"/>
        <pt x="429" y="979" on="0"/>
        <pt x="428" y="765" on="1"/>
        <pt x="428" y="698" on="1"/>
        <pt x="428" y="483" on="0"/>
        <pt x="570" y="254" on="0"/>
        <pt x="710" y="254" on="1"/>
        <pt x="844" y="254" on="0"/>
        <pt x="987" y="480" on="0"/>
        <pt x="988" y="692" on="1"/>
      </contour>
    </TTGlyph>
    <TTGlyph name="Q.c2sc" xMin="54" yMin="-221" xMax="1171" yMax="1181">
      <contour>
        <pt x="1171" y="562" on="1"/>
        <pt x="1171" y="405" on="0"/>
        <pt x="1059" y="168" on="0"/>
        <pt x="960" y="93" on="1"/>
        <pt x="1150" y="-50" on="1"/>
        <pt x="944" y="-221" on="1"/>
        <pt x="674" y="-13" on="1"/>
        <pt x="613" y="-16" on="1"/>
        <pt x="451" y="-16" on="0"/>
        <pt x="198" y="122" on="0"/>
        <pt x="57" y="379" on="0"/>
        <pt x="54" y="547" on="1"/>
        <pt x="54" y="602" on="1"/>
        <pt x="54" y="773" on="0"/>
        <pt x="192" y="1037" on="0"/>
        <pt x="447" y="1181" on="0"/>
        <pt x="612" y="1181" on="1"/>
        <pt x="772" y="1181" on="0"/>
        <pt x="1028" y="1039" on="0"/>
        <pt x="1170" y="776" on="0"/>
        <pt x="1171" y="609" on="1"/>
      </contour>
      <contour>
        <pt x="833" y="603" on="1"/>
        <pt x="833" y="757" on="0"/>
        <pt x="716" y="924" on="0"/>
        <pt x="612" y="924" on="1"/>
        <pt x="391" y="924" on="0"/>
        <pt x="391" y="592" on="1"/>
        <pt x="391" y="562" on="1"/>
        <pt x="391" y="412" on="0"/>
        <pt x="502" y="240" on="0"/>
        <pt x="613" y="240" on="1"/>
        <pt x="715" y="240" on="0"/>
        <pt x="831" y="408" on="0"/>
        <pt x="833" y="554" on="1"/>
      </contour>
    </TTGlyph>
    <TTGlyph name="Q.ss06" xMin="67" yMin="-253" xMax="1416" yMax="1477">
      <contour>
        <pt x="1415" y="718" on="1"/>
        <pt x="1415" y="533" on="0"/>
        <pt x="1292" y="236" on="0"/>
        <pt x="1180" y="137" on="1"/>
        <pt x="1416" y="-69" on="1"/>
        <pt x="1199" y="-253" on="1"/>
        <pt x="914" y="0" on="1"/>
        <pt x="833" y="-21" on="0"/>
        <pt x="742" y="-21" on="1"/>
        <pt x="546" y="-21" on="0"/>
        <pt x="239" y="164" on="0"/>
        <pt x="70" y="495" on="0"/>
        <pt x="67" y="704" on="1"/>
        <pt x="67" y="737" on="1"/>
        <pt x="67" y="950" on="0"/>
        <pt x="236" y="1290" on="0"/>
        <pt x="543" y="1477" on="0"/>
        <pt x="740" y="1477" on="1"/>
        <pt x="935" y="1477" on="0"/>
        <pt x="1242" y="1292" on="0"/>
        <pt x="1414" y="954" on="0"/>
        <pt x="1415" y="743" on="1"/>
      </contour>
      <contour>
        <pt x="1065" y="739" on="1"/>
        <pt x="1065" y="956" on="0"/>
        <pt x="890" y="1207" on="0"/>
        <pt x="740" y="1207" on="1"/>
        <pt x="587" y="1207" on="0"/>
        <pt x="418" y="959" on="0"/>
        <pt x="418" y="718" on="1"/>
        <pt x="418" y="497" on="0"/>
        <pt x="590" y="248" on="0"/>
        <pt x="742" y="248" on="1"/>
        <pt x="893" y="248" on="0"/>
        <pt x="1065" y="502" on="0"/>
      </contour>
    </TTGlyph>
    <TTGlyph name="R" xMin="110" yMin="0" xMax="1284" yMax="1456">
      <contour>
        <pt x="651" y="514" on="1"/>
        <pt x="461" y="514" on="1"/>
        <pt x="461" y="0" on="1"/>
        <pt x="110" y="0" on="1"/>
        <pt x="110" y="1456" on="1"/>
        <pt x="683" y="1456" on="1"/>
        <pt x="942" y="1456" on="0"/>
        <pt x="1234" y="1226" on="0"/>
        <pt x="1234" y="1016" on="1"/>
        <pt x="1234" y="864" on="0"/>
        <pt x="1111" y="664" on="0"/>
        <pt x="980" y="602" on="1"/>
        <pt x="1284" y="15" on="1"/>
        <pt x="1284" y="0" on="1"/>
        <pt x="908" y="0" on="1"/>
      </contour>
      <contour>
        <pt x="461" y="785" on="1"/>
        <pt x="683" y="785" on="1"/>
        <pt x="783" y="785" on="0"/>
        <pt x="884" y="890" on="0"/>
        <pt x="884" y="1078" on="0"/>
        <pt x="782" y="1185" on="0"/>
        <pt x="683" y="1185" on="1"/>
        <pt x="461" y="1185" on="1"/>
      </contour>
    </TTGlyph>
    <TTGlyph name="R.c2sc" xMin="81" yMin="0" xMax="1119" yMax="1165">
      <contour>
        <pt x="552" y="386" on="1"/>
        <pt x="419" y="386" on="1"/>
        <pt x="419" y="0" on="1"/>
        <pt x="81" y="0" on="1"/>
        <pt x="81" y="1165" on="1"/>
        <pt x="596" y="1165" on="1"/>
        <pt x="823" y="1165" on="0"/>
        <pt x="1079" y="982" on="0"/>
        <pt x="1079" y="818" on="1"/>
        <pt x="1079" y="691" on="0"/>
        <pt x="981" y="529" on="0"/>
        <pt x="866" y="475" on="1"/>
        <pt x="1119" y="13" on="1"/>
        <pt x="1119" y="0" on="1"/>
        <pt x="755" y="0" on="1"/>
      </contour>
      <contour>
        <pt x="419" y="646" on="1"/>
        <pt x="596" y="646" on="1"/>
        <pt x="742" y="646" on="0"/>
        <pt x="742" y="778" on="1"/>
        <pt x="742" y="905" on="0"/>
        <pt x="586" y="905" on="1"/>
        <pt x="419" y="905" on="1"/>
      </contour>
    </TTGlyph>
    <TTGlyph name="R.ss03" xMin="108" yMin="0" xMax="1286" yMax="1456">
      <contour>
        <pt x="459" y="550" on="1"/>
        <pt x="459" y="0" on="1"/>
        <pt x="108" y="0" on="1"/>
        <pt x="108" y="1456" on="1"/>
        <pt x="708" y="1456" on="1"/>
        <pt x="958" y="1456" on="0"/>
        <pt x="1225" y="1232" on="0"/>
        <pt x="1225" y="1025" on="1"/>
        <pt x="1225" y="907" on="0"/>
        <pt x="1095" y="748" on="0"/>
        <pt x="955" y="695" on="1"/>
        <pt x="1085" y="659" on="0"/>
        <pt x="1209" y="488" on="0"/>
        <pt x="1209" y="343" on="1"/>
        <pt x="1210" y="233" on="1"/>
        <pt x="1221" y="79" on="0"/>
        <pt x="1286" y="30" on="1"/>
        <pt x="1286" y="0" on="1"/>
        <pt x="926" y="0" on="1"/>
        <pt x="865" y="48" on="0"/>
        <pt x="859" y="246" on="1"/>
        <pt x="859" y="341" on="1"/>
        <pt x="859" y="444" on="0"/>
        <pt x="767" y="550" on="0"/>
        <pt x="661" y="550" on="1"/>
      </contour>
      <contour>
        <pt x="459" y="820" on="1"/>
        <pt x="674" y="820" on="1"/>
        <pt x="771" y="820" on="0"/>
        <pt x="874" y="910" on="0"/>
        <pt x="874" y="993" on="1"/>
        <pt x="874" y="1084" on="0"/>
        <pt x="773" y="1185" on="0"/>
        <pt x="683" y="1185" on="1"/>
        <pt x="459" y="1185" on="1"/>
      </contour>
    </TTGlyph>
    <TTGlyph name="R_dotbelowcomb.ccmp" xMin="110" yMin="-369" xMax="1284" yMax="1456">
      <component glyphName="R" x="0" y="0" flags="0x1204"/>
      <component glyphName="dotbelowcomb" x="1211" y="10" flags="0x1004"/>
    </TTGlyph>
    <TTGlyph name="R_uni030F.ccmp" xMin="-4" yMin="0" xMax="1284" yMax="1828">
      <component glyphName="R" x="0" y="0" flags="0x1204"/>
      <component glyphName="uni030F" x="1065" y="310" flags="0x1004"/>
    </TTGlyph>
    <TTGlyph name="Racute" xMin="110" yMin="0" xMax="1284" yMax="1846">
      <component glyphName="R" x="0" y="0" flags="0x1204"/>
      <component glyphName="acute" x="348" y="310" flags="0x1004"/>
    </TTGlyph>
    <TTGlyph name="Racute.c2sc" xMin="81" yMin="0" xMax="1119" yMax="1566">
      <component glyphName="R.c2sc" x="0" y="0" flags="0x1204"/>
      <component glyphName="acute" x="259" y="30" flags="0x1004"/>
    </TTGlyph>
    <TTGlyph name="Rcaron" xMin="110" yMin="0" xMax="1284" yMax="1847">
      <component glyphName="R" x="0" y="0" flags="0x1204"/>
      <component glyphName="caron" x="100" y="310" flags="0x1004"/>
    </TTGlyph>
    <TTGlyph name="Rcaron.c2sc" xMin="66" yMin="0" xMax="1119" yMax="1567">
      <component glyphName="R.c2sc" x="0" y="0" flags="0x1204"/>
      <component glyphName="caron" x="11" y="30" flags="0x1004"/>
    </TTGlyph>
    <TTGlyph name="Rho" xMin="110" yMin="0" xMax="1256" yMax="1456">
      <component glyphName="P" x="0" y="0" flags="0x1204"/>
    </TTGlyph>
    <TTGlyph name="Rho.c2sc" xMin="81" yMin="0" xMax="1087" yMax="1165">
      <component glyphName="P.c2sc" x="0" y="0" flags="0x1204"/>
    </TTGlyph>
    <TTGlyph name="S" xMin="64" yMin="-20" xMax="1212" yMax="1476">
      <contour>
        <pt x="861" y="387" on="1"/>
        <pt x="861" y="464" on="0"/>
        <pt x="752" y="550" on="0"/>
        <pt x="478" y="642" on="0"/>
        <pt x="391" y="685" on="1"/>
        <pt x="108" y="824" on="0"/>
        <pt x="108" y="1067" on="1"/>
        <pt x="108" y="1188" on="0"/>
        <pt x="249" y="1373" on="0"/>
        <pt x="507" y="1476" on="0"/>
        <pt x="668" y="1476" on="1"/>
        <pt x="825" y="1476" on="0"/>
        <pt x="1074" y="1364" on="0"/>
        <pt x="1212" y="1157" on="0"/>
        <pt x="1212" y="1024" on="1"/>
        <pt x="862" y="1024" on="1"/>
        <pt x="862" y="1113" on="0"/>
        <pt x="753" y="1211" on="0"/>
        <pt x="660" y="1211" on="1"/>
        <pt x="566" y="1211" on="0"/>
        <pt x="457" y="1128" on="0"/>
        <pt x="457" y="1064" on="1"/>
        <pt x="457" y="1008" on="0"/>
        <pt x="577" y="917" on="0"/>
        <pt x="879" y="820" on="0"/>
        <pt x="976" y="764" on="1"/>
        <pt x="1212" y="628" on="0"/>
        <pt x="1212" y="389" on="1"/>
        <pt x="1212" y="198" on="0"/>
        <pt x="924" y="-20" on="0"/>
        <pt x="673" y="-20" on="1"/>
        <pt x="496" y="-20" on="0"/>
        <pt x="209" y="107" on="0"/>
        <pt x="64" y="328" on="0"/>
        <pt x="64" y="472" on="1"/>
        <pt x="416" y="472" on="1"/>
        <pt x="416" y="355" on="0"/>
        <pt x="537" y="244" on="0"/>
        <pt x="673" y="244" on="1"/>
        <pt x="760" y="244" on="0"/>
        <pt x="861" y="319" on="0"/>
      </contour>
    </TTGlyph>
    <TTGlyph name="S.c2sc" xMin="54" yMin="-16" xMax="1045" yMax="1181">
      <contour>
        <pt x="724" y="318" on="1"/>
        <pt x="724" y="371" on="0"/>
        <pt x="632" y="435" on="0"/>
        <pt x="401" y="489" on="0"/>
        <pt x="244" y="549" on="0"/>
        <pt x="142" y="632" on="0"/>
        <pt x="94" y="748" on="0"/>
        <pt x="94" y="830" on="1"/>
        <pt x="94" y="931" on="0"/>
        <pt x="211" y="1092" on="0"/>
        <pt x="420" y="1181" on="0"/>
        <pt x="547" y="1181" on="1"/>
        <pt x="775" y="1181" on="0"/>
        <pt x="1045" y="984" on="0"/>
        <pt x="1045" y="815" on="1"/>
        <pt x="707" y="815" on="1"/>
        <pt x="707" y="869" on="0"/>
        <pt x="618" y="947" on="0"/>
        <pt x="550" y="947" on="1"/>
        <pt x="487" y="947" on="0"/>
        <pt x="409" y="886" on="0"/>
        <pt x="409" y="845" on="1"/>
        <pt x="409" y="800" on="0"/>
        <pt x="488" y="746" on="0"/>
        <pt x="588" y="720" on="1"/>
        <pt x="837" y="668" on="0"/>
        <pt x="1040" y="487" on="0"/>
        <pt x="1040" y="329" on="1"/>
        <pt x="1040" y="169" on="0"/>
        <pt x="790" y="-16" on="0"/>
        <pt x="572" y="-16" on="1"/>
        <pt x="421" y="-16" on="0"/>
        <pt x="183" y="79" on="0"/>
        <pt x="54" y="256" on="0"/>
        <pt x="54" y="379" on="1"/>
        <pt x="393" y="379" on="1"/>
        <pt x="393" y="289" on="0"/>
        <pt x="486" y="217" on="0"/>
        <pt x="595" y="217" on="1"/>
        <pt x="656" y="217" on="0"/>
        <pt x="724" y="272" on="0"/>
      </contour>
    </TTGlyph>
    <TTGlyph name="S_dotbelowcomb.ccmp" xMin="64" yMin="-379" xMax="1212" yMax="1476">
      <component glyphName="S" x="0" y="0" flags="0x1204"/>
      <component glyphName="dotbelowcomb" x="1259" y="0" flags="0x1004"/>
    </TTGlyph>
    <TTGlyph name="Sacute" xMin="64" yMin="-20" xMax="1212" yMax="1846">
      <component glyphName="S" x="0" y="0" flags="0x1204"/>
      <component glyphName="acute" x="418" y="310" flags="0x1004"/>
    </TTGlyph>
    <TTGlyph name="Sacute.c2sc" xMin="54" yMin="-16" xMax="1045" yMax="1566">
      <component glyphName="S.c2sc" x="0" y="0" flags="0x1204"/>
      <component glyphName="acute" x="341" y="30" flags="0x1004"/>
    </TTGlyph>
    <TTGlyph name="Scaron" xMin="64" yMin="-20" xMax="1212" yMax="1847">
      <component glyphName="S" x="0" y="0" flags="0x1204"/>
      <component glyphName="caron" x="170" y="310" flags="0x1004"/>
    </TTGlyph>
    <TTGlyph name="Scaron.c2sc" xMin="54" yMin="-16" xMax="1045" yMax="1567">
      <component glyphName="S.c2sc" x="0" y="0" flags="0x1204"/>
      <component glyphName="caron" x="93" y="30" flags="0x1004"/>
    </TTGlyph>
    <TTGlyph name="Scedilla" xMin="64" yMin="-472" xMax="1212" yMax="1476">
      <component glyphName="S" x="0" y="0" flags="0x1204"/>
      <component glyphName="cedilla" x="419" y="0" flags="0x1004"/>
    </TTGlyph>
    <TTGlyph name="Scedilla.c2sc" xMin="54" yMin="-472" xMax="1045" yMax="1181">
      <component glyphName="S.c2sc" x="0" y="0" flags="0x1204"/>
      <component glyphName="cedilla" x="335" y="0" flags="0x1004"/>
    </TTGlyph>
    <TTGlyph name="Scircumflex" xMin="64" yMin="-20" xMax="1212" yMax="1846">
      <component glyphName="S" x="0" y="0" flags="0x1204"/>
      <component glyphName="circumflex" x="146" y="310" flags="0x1004"/>
    </TTGlyph>
    <TTGlyph name="Scircumflex.c2sc" xMin="54" yMin="-16" xMax="1045" yMax="1566">
      <component glyphName="S.c2sc" x="0" y="0" flags="0x1204"/>
      <component glyphName="circumflex" x="69" y="30" flags="0x1004"/>
    </TTGlyph>
    <TTGlyph name="Sigma" xMin="73" yMin="0" xMax="1110" yMax="1456">
      <contour>
        <pt x="863" y="732" on="1"/>
        <pt x="548" y="269" on="1"/>
        <pt x="1110" y="269" on="1"/>
        <pt x="1110" y="0" on="1"/>
        <pt x="73" y="0" on="1"/>
        <pt x="73" y="151" on="1"/>
        <pt x="493" y="739" on="1"/>
        <pt x="73" y="1306" on="1"/>
        <pt x="73" y="1456" on="1"/>
        <pt x="1098" y="1456" on="1"/>
        <pt x="1098" y="1185" on="1"/>
        <pt x="555" y="1185" on="1"/>
        <pt x="863" y="745" on="1"/>
      </contour>
    </TTGlyph>
    <TTGlyph name="Sigma.c2sc" xMin="76" yMin="0" xMax="1059" yMax="1165">
      <contour>
        <pt x="704" y="600" on="1"/>
        <pt x="499" y="260" on="1"/>
        <pt x="1059" y="260" on="1"/>
        <pt x="1059" y="0" on="1"/>
        <pt x="76" y="0" on="1"/>
        <pt x="76" y="152" on="1"/>
        <pt x="373" y="607" on="1"/>
        <pt x="76" y="1015" on="1"/>
        <pt x="76" y="1165" on="1"/>
        <pt x="1044" y="1165" on="1"/>
        <pt x="1044" y="905" on="1"/>
        <pt x="513" y="905" on="1"/>
        <pt x="704" y="614" on="1"/>
      </contour>
    </TTGlyph>
    <TTGlyph name="T" xMin="36" yMin="0" xMax="1253" yMax="1456">
      <contour>
        <pt x="1253" y="1185" on="1"/>
        <pt x="816" y="1185" on="1"/>
        <pt x="816" y="0" on="1"/>
        <pt x="465" y="0" on="1"/>
        <pt x="465" y="1185" on="1"/>
        <pt x="36" y="1185" on="1"/>
        <pt x="36" y="1456" on="1"/>
        <pt x="1253" y="1456" on="1"/>
      </contour>
    </TTGlyph>
    <TTGlyph name="T.c2sc" xMin="28" yMin="0" xMax="1098" yMax="1165">
      <contour>
        <pt x="1098" y="905" on="1"/>
        <pt x="727" y="905" on="1"/>
        <pt x="727" y="0" on="1"/>
        <pt x="388" y="0" on="1"/>
        <pt x="388" y="905" on="1"/>
        <pt x="28" y="905" on="1"/>
        <pt x="28" y="1165" on="1"/>
        <pt x="1098" y="1165" on="1"/>
      </contour>
    </TTGlyph>
    <TTGlyph name="T_dotbelowcomb.ccmp" xMin="36" yMin="-369" xMax="1253" yMax="1456">
      <component glyphName="T" x="0" y="0" flags="0x1204"/>
      <component glyphName="dotbelowcomb" x="1234" y="10" flags="0x1004"/>
    </TTGlyph>
    <TTGlyph name="Tau" xMin="36" yMin="0" xMax="1253" yMax="1456">
      <component glyphName="T" x="0" y="0" flags="0x1204"/>
    </TTGlyph>
    <TTGlyph name="Tau.c2sc" xMin="28" yMin="0" xMax="1098" yMax="1165">
      <component glyphName="T.c2sc" x="0" y="0" flags="0x1204"/>
    </TTGlyph>
    <TTGlyph name="Tbar" xMin="36" yMin="0" xMax="1253" yMax="1456">
      <contour>
        <pt x="976" y="723" on="1"/>
        <pt x="816" y="723" on="1"/>
        <pt x="816" y="0" on="1"/>
        <pt x="465" y="0" on="1"/>
        <pt x="465" y="723" on="1"/>
        <pt x="246" y="723" on="1"/>
        <pt x="246" y="914" on="1"/>
        <pt x="465" y="914" on="1"/>
        <pt x="465" y="1185" on="1"/>
        <pt x="36" y="1185" on="1"/>
        <pt x="36" y="1456" on="1"/>
        <pt x="1253" y="1456" on="1"/>
        <pt x="1253" y="1185" on="1"/>
        <pt x="816" y="1185" on="1"/>
        <pt x="816" y="914" on="1"/>
        <pt x="976" y="914" on="1"/>
      </contour>
    </TTGlyph>
    <TTGlyph name="Tbar.c2sc" xMin="28" yMin="0" xMax="1098" yMax="1165">
      <component glyphName="T.c2sc" x="0" y="0" flags="0x1204"/>
      <component glyphName="glyph550" x="18" y="-133" flags="0x1004"/>
    </TTGlyph>
    <TTGlyph name="Tcaron" xMin="36" yMin="0" xMax="1253" yMax="1847">
      <component glyphName="T" x="0" y="0" flags="0x1204"/>
      <component glyphName="caron" x="144" y="310" flags="0x1004"/>
    </TTGlyph>
    <TTGlyph name="Tcaron.c2sc" xMin="28" yMin="0" xMax="1098" yMax="1567">
      <component glyphName="T.c2sc" x="0" y="0" flags="0x1204"/>
      <component glyphName="caron" x="63" y="30" flags="0x1004"/>
    </TTGlyph>
    <TTGlyph name="Theta" xMin="73" yMin="-20" xMax="1346" yMax="1476">
      <contour>
        <pt x="870" y="589" on="1"/>
        <pt x="554" y="589" on="1"/>
        <pt x="554" y="848" on="1"/>
        <pt x="870" y="848" on="1"/>
      </contour>
      <contour>
        <pt x="1346" y="698" on="1"/>
        <pt x="1346" y="485" on="0"/>
        <pt x="1188" y="157" on="0"/>
        <pt x="897" y="-20" on="0"/>
        <pt x="525" y="-20" on="0"/>
        <pt x="237" y="152" on="0"/>
        <pt x="76" y="472" on="0"/>
        <pt x="73" y="680" on="1"/>
        <pt x="73" y="757" on="1"/>
        <pt x="73" y="972" on="0"/>
        <pt x="230" y="1298" on="0"/>
        <pt x="521" y="1476" on="0"/>
        <pt x="709" y="1476" on="1"/>
        <pt x="894" y="1476" on="0"/>
        <pt x="1184" y="1300" on="0"/>
        <pt x="1345" y="975" on="0"/>
        <pt x="1346" y="765" on="1"/>
      </contour>
      <contour>
        <pt x="989" y="759" on="1"/>
        <pt x="989" y="976" on="0"/>
        <pt x="844" y="1201" on="0"/>
        <pt x="709" y="1201" on="1"/>
        <pt x="570" y="1201" on="0"/>
        <pt x="430" y="979" on="0"/>
        <pt x="429" y="765" on="1"/>
        <pt x="429" y="698" on="1"/>
        <pt x="429" y="483" on="0"/>
        <pt x="571" y="254" on="0"/>
        <pt x="711" y="254" on="1"/>
        <pt x="845" y="254" on="0"/>
        <pt x="988" y="480" on="0"/>
        <pt x="989" y="692" on="1"/>
      </contour>
    </TTGlyph>
    <TTGlyph name="Theta.c2sc" xMin="47" yMin="-16" xMax="1167" yMax="1181">
      <contour>
        <pt x="771" y="439" on="1"/>
        <pt x="450" y="439" on="1"/>
        <pt x="450" y="699" on="1"/>
        <pt x="771" y="699" on="1"/>
      </contour>
      <contour>
        <pt x="1167" y="562" on="1"/>
        <pt x="1167" y="391" on="0"/>
        <pt x="1026" y="126" on="0"/>
        <pt x="770" y="-16" on="0"/>
        <pt x="609" y="-16" on="1"/>
        <pt x="445" y="-16" on="0"/>
        <pt x="189" y="124" on="0"/>
        <pt x="47" y="389" on="0"/>
        <pt x="47" y="561" on="1"/>
        <pt x="47" y="602" on="1"/>
        <pt x="47" y="773" on="0"/>
        <pt x="185" y="1037" on="0"/>
        <pt x="442" y="1181" on="0"/>
        <pt x="607" y="1181" on="1"/>
        <pt x="768" y="1181" on="0"/>
        <pt x="1024" y="1038" on="0"/>
        <pt x="1165" y="779" on="0"/>
        <pt x="1167" y="612" on="1"/>
      </contour>
      <contour>
        <pt x="827" y="603" on="1"/>
        <pt x="827" y="757" on="0"/>
        <pt x="711" y="924" on="0"/>
        <pt x="607" y="924" on="1"/>
        <pt x="387" y="924" on="0"/>
        <pt x="387" y="597" on="1"/>
        <pt x="387" y="562" on="1"/>
        <pt x="387" y="412" on="0"/>
        <pt x="497" y="240" on="0"/>
        <pt x="609" y="240" on="1"/>
        <pt x="709" y="240" on="0"/>
        <pt x="825" y="408" on="0"/>
        <pt x="827" y="554" on="1"/>
      </contour>
    </TTGlyph>
    <TTGlyph name="Thorn" xMin="116" yMin="0" xMax="1214" yMax="1456">
      <contour>
        <pt x="455" y="1456" on="1"/>
        <pt x="455" y="1198" on="1"/>
        <pt x="660" y="1198" on="1"/>
        <pt x="831" y="1197" on="0"/>
        <pt x="1082" y="1083" on="0"/>
        <pt x="1214" y="875" on="0"/>
        <pt x="1214" y="738" on="1"/>
        <pt x="1214" y="529" on="0"/>
        <pt x="917" y="280" on="0"/>
        <pt x="660" y="278" on="1"/>
        <pt x="455" y="278" on="1"/>
        <pt x="455" y="0" on="1"/>
        <pt x="116" y="0" on="1"/>
        <pt x="116" y="1456" on="1"/>
      </contour>
      <contour>
        <pt x="455" y="938" on="1"/>
        <pt x="455" y="538" on="1"/>
        <pt x="653" y="538" on="1"/>
        <pt x="756" y="538" on="0"/>
        <pt x="875" y="642" on="0"/>
        <pt x="875" y="736" on="1"/>
        <pt x="875" y="831" on="0"/>
        <pt x="757" y="938" on="0"/>
        <pt x="655" y="938" on="1"/>
      </contour>
    </TTGlyph>
    <TTGlyph name="Thorn.c2sc" xMin="81" yMin="0" xMax="1020" yMax="1165">
      <contour>
        <pt x="81" y="1165" on="1"/>
        <pt x="419" y="1165" on="1"/>
        <pt x="419" y="1015" on="1"/>
        <pt x="525" y="1015" on="1"/>
        <pt x="670" y="1015" on="0"/>
        <pt x="898" y="914" on="0"/>
        <pt x="1020" y="733" on="0"/>
        <pt x="1020" y="619" on="1"/>
        <pt x="1020" y="437" on="0"/>
        <pt x="746" y="215" on="0"/>
        <pt x="519" y="215" on="1"/>
        <pt x="419" y="215" on="1"/>
        <pt x="419" y="0" on="1"/>
        <pt x="81" y="0" on="1"/>
      </contour>
      <contour>
        <pt x="419" y="755" on="1"/>
        <pt x="419" y="475" on="1"/>
        <pt x="523" y="475" on="1"/>
        <pt x="598" y="475" on="0"/>
        <pt x="684" y="552" on="0"/>
        <pt x="684" y="617" on="1"/>
        <pt x="684" y="678" on="0"/>
        <pt x="598" y="755" on="0"/>
        <pt x="523" y="755" on="1"/>
      </contour>
    </TTGlyph>
    <TTGlyph name="U" xMin="105" yMin="-20" xMax="1252" yMax="1456">
      <contour>
        <pt x="1252" y="1456" on="1"/>
        <pt x="1252" y="503" on="1"/>
        <pt x="1252" y="341" on="0"/>
        <pt x="1114" y="104" on="0"/>
        <pt x="856" y="-20" on="0"/>
        <pt x="680" y="-20" on="1"/>
        <pt x="414" y="-20" on="0"/>
        <pt x="108" y="256" on="0"/>
        <pt x="105" y="496" on="1"/>
        <pt x="105" y="1456" on="1"/>
        <pt x="458" y="1456" on="1"/>
        <pt x="458" y="489" on="1"/>
        <pt x="464" y="250" on="0"/>
        <pt x="680" y="250" on="1"/>
        <pt x="789" y="250" on="0"/>
        <pt x="901" y="370" on="0"/>
        <pt x="901" y="505" on="1"/>
        <pt x="901" y="1456" on="1"/>
      </contour>
    </TTGlyph>
    <TTGlyph name="U.c2sc" xMin="83" yMin="-16" xMax="1092" yMax="1165">
      <contour>
        <pt x="1092" y="1165" on="1"/>
        <pt x="1092" y="419" on="1"/>
        <pt x="1092" y="213" on="0"/>
        <pt x="828" y="-16" on="0"/>
        <pt x="589" y="-16" on="1"/>
        <pt x="354" y="-16" on="0"/>
        <pt x="85" y="214" on="0"/>
        <pt x="83" y="412" on="1"/>
        <pt x="83" y="1165" on="1"/>
        <pt x="422" y="1165" on="1"/>
        <pt x="422" y="418" on="1"/>
        <pt x="422" y="324" on="0"/>
        <pt x="506" y="243" on="0"/>
        <pt x="589" y="243" on="1"/>
        <pt x="674" y="243" on="0"/>
        <pt x="753" y="324" on="0"/>
        <pt x="753" y="418" on="1"/>
        <pt x="753" y="1165" on="1"/>
      </contour>
    </TTGlyph>
    <TTGlyph name="U_tildecomb_acutecomb.ccmp" xMin="105" yMin="-20" xMax="1252" yMax="1997">
      <component glyphName="U" x="0" y="0" flags="0x1204"/>
      <component glyphName="glyph566" x="1228" y="342" flags="0x1004"/>
    </TTGlyph>
    <TTGlyph name="U_uni030F.ccmp" xMin="78" yMin="-20" xMax="1252" yMax="1828">
      <component glyphName="U" x="0" y="0" flags="0x1204"/>
      <component glyphName="uni030F" x="1147" y="310" flags="0x1004"/>
    </TTGlyph>
    <TTGlyph name="Uacute" xMin="105" yMin="-20" xMax="1252" yMax="1846">
      <component glyphName="U" x="0" y="0" flags="0x1204"/>
      <component glyphName="acute" x="430" y="310" flags="0x1004"/>
    </TTGlyph>
    <TTGlyph name="Uacute.c2sc" xMin="83" yMin="-16" xMax="1092" yMax="1566">
      <component glyphName="U.c2sc" x="0" y="0" flags="0x1204"/>
      <component glyphName="acute" x="338" y="30" flags="0x1004"/>
    </TTGlyph>
    <TTGlyph name="Ubreve" xMin="105" yMin="-20" xMax="1252" yMax="1848">
      <component glyphName="U" x="0" y="0" flags="0x1204"/>
      <component glyphName="breve" x="211" y="310" flags="0x1004"/>
    </TTGlyph>
    <TTGlyph name="Ubreve.c2sc" xMin="83" yMin="-16" xMax="1092" yMax="1568">
      <component glyphName="U.c2sc" x="0" y="0" flags="0x1204"/>
      <component glyphName="breve" x="119" y="30" flags="0x1004"/>
    </TTGlyph>
    <TTGlyph name="Ucircumflex" xMin="105" yMin="-20" xMax="1252" yMax="1846">
      <component glyphName="U" x="0" y="0" flags="0x1204"/>
      <component glyphName="circumflex" x="158" y="310" flags="0x1004"/>
    </TTGlyph>
    <TTGlyph name="Ucircumflex.c2sc" xMin="83" yMin="-16" xMax="1092" yMax="1566">
      <component glyphName="U.c2sc" x="0" y="0" flags="0x1204"/>
      <component glyphName="circumflex" x="66" y="30" flags="0x1004"/>
    </TTGlyph>
    <TTGlyph name="Udieresis" xMin="105" yMin="-20" xMax="1252" yMax="1808">
      <component glyphName="U" x="0" y="0" flags="0x1204"/>
      <component glyphName="dieresis" x="167" y="310" flags="0x1004"/>
    </TTGlyph>
    <TTGlyph name="Udieresis.c2sc" xMin="83" yMin="-16" xMax="1092" yMax="1528">
      <component glyphName="U.c2sc" x="0" y="0" flags="0x1204"/>
      <component glyphName="dieresis" x="75" y="30" flags="0x1004"/>
    </TTGlyph>
    <TTGlyph name="Ugrave" xMin="105" yMin="-20" xMax="1252" yMax="1846">
      <component glyphName="U" x="0" y="0" flags="0x1204"/>
      <component glyphName="grave" x="225" y="310" flags="0x1004"/>
    </TTGlyph>
    <TTGlyph name="Ugrave.c2sc" xMin="83" yMin="-16" xMax="1092" yMax="1566">
      <component glyphName="U.c2sc" x="0" y="0" flags="0x1204"/>
      <component glyphName="grave" x="133" y="30" flags="0x1004"/>
    </TTGlyph>
    <TTGlyph name="Uhorn" xMin="105" yMin="-20" xMax="1644" yMax="1537">
      <contour>
        <pt x="1252" y="1456" on="1"/>
        <pt x="1252" y="1224" on="1"/>
        <pt x="1325" y="1229" on="0"/>
        <pt x="1405" y="1285" on="0"/>
        <pt x="1439" y="1388" on="0"/>
        <pt x="1439" y="1537" on="1"/>
        <pt x="1644" y="1537" on="1"/>
        <pt x="1644" y="1285" on="0"/>
        <pt x="1455" y="1067" on="0"/>
        <pt x="1252" y="1060" on="1"/>
        <pt x="1252" y="503" on="1"/>
        <pt x="1252" y="341" on="0"/>
        <pt x="1114" y="104" on="0"/>
        <pt x="856" y="-20" on="0"/>
        <pt x="680" y="-20" on="1"/>
        <pt x="414" y="-20" on="0"/>
        <pt x="108" y="256" on="0"/>
        <pt x="105" y="496" on="1"/>
        <pt x="105" y="1456" on="1"/>
        <pt x="458" y="1456" on="1"/>
        <pt x="458" y="489" on="1"/>
        <pt x="464" y="250" on="0"/>
        <pt x="680" y="250" on="1"/>
        <pt x="789" y="250" on="0"/>
        <pt x="901" y="370" on="0"/>
        <pt x="901" y="505" on="1"/>
        <pt x="901" y="1456" on="1"/>
      </contour>
    </TTGlyph>
    <TTGlyph name="Uhungarumlaut" xMin="105" yMin="-20" xMax="1252" yMax="1845">
      <component glyphName="U" x="0" y="0" flags="0x1204"/>
      <component glyphName="hungarumlaut" x="302" y="310" flags="0x1004"/>
    </TTGlyph>
    <TTGlyph name="Uhungarumlaut.c2sc" xMin="83" yMin="-16" xMax="1142" yMax="1565">
      <component glyphName="U.c2sc" x="0" y="0" flags="0x1204"/>
      <component glyphName="hungarumlaut" x="210" y="30" flags="0x1004"/>
    </TTGlyph>
    <TTGlyph name="Umacron" xMin="105" yMin="-20" xMax="1252" yMax="1762">
      <component glyphName="U" x="0" y="0" flags="0x1204"/>
      <component glyphName="macron" x="146" y="304" flags="0x1004"/>
    </TTGlyph>
    <TTGlyph name="Umacron.c2sc" xMin="83" yMin="-16" xMax="1092" yMax="1482">
      <component glyphName="U.c2sc" x="0" y="0" flags="0x1204"/>
      <component glyphName="macron" x="54" y="24" flags="0x1004"/>
    </TTGlyph>
    <TTGlyph name="Uogonek" xMin="105" yMin="-341" xMax="1252" yMax="1456">
      <contour>
        <pt x="1252" y="1456" on="1"/>
        <pt x="1252" y="503" on="1"/>
        <pt x="1251" y="215" on="0"/>
        <pt x="1047" y="77" on="1"/>
        <pt x="1051" y="76" on="1"/>
        <pt x="973" y="37" on="0"/>
        <pt x="906" y="-34" on="0"/>
        <pt x="906" y="-85" on="1"/>
        <pt x="906" y="-147" on="0"/>
        <pt x="966" y="-147" on="1"/>
        <pt x="996" y="-147" on="0"/>
        <pt x="1035" y="-129" on="1"/>
        <pt x="1073" y="-297" on="1"/>
        <pt x="1000" y="-341" on="0"/>
        <pt x="907" y="-341" on="1"/>
        <pt x="797" y="-341" on="0"/>
        <pt x="664" y="-225" on="0"/>
        <pt x="664" y="-127" on="1"/>
        <pt x="664" y="-68" on="0"/>
        <pt x="686" y="-20" on="1"/>
        <pt x="411" y="-20" on="0"/>
        <pt x="105" y="261" on="0"/>
        <pt x="105" y="508" on="1"/>
        <pt x="105" y="1456" on="1"/>
        <pt x="458" y="1456" on="1"/>
        <pt x="458" y="489" on="1"/>
        <pt x="464" y="250" on="0"/>
        <pt x="680" y="250" on="1"/>
        <pt x="789" y="250" on="0"/>
        <pt x="901" y="370" on="0"/>
        <pt x="901" y="505" on="1"/>
        <pt x="901" y="1456" on="1"/>
      </contour>
    </TTGlyph>
    <TTGlyph name="Uogonek.c2sc" xMin="83" yMin="-350" xMax="1092" yMax="1165">
      <contour>
        <pt x="1092" y="1165" on="1"/>
        <pt x="1092" y="418" on="1"/>
        <pt x="1092" y="263" on="0"/>
        <pt x="946" y="61" on="0"/>
        <pt x="812" y="16" on="1"/>
        <pt x="751" y="-28" on="0"/>
        <pt x="751" y="-94" on="1"/>
        <pt x="751" y="-156" on="0"/>
        <pt x="811" y="-156" on="1"/>
        <pt x="841" y="-156" on="0"/>
        <pt x="880" y="-138" on="1"/>
        <pt x="918" y="-306" on="1"/>
        <pt x="845" y="-350" on="0"/>
        <pt x="752" y="-350" on="1"/>
        <pt x="642" y="-350" on="0"/>
        <pt x="509" y="-234" on="0"/>
        <pt x="509" y="-136" on="1"/>
        <pt x="509" y="-63" on="0"/>
        <pt x="538" y="-14" on="1"/>
        <pt x="329" y="-2" on="0"/>
        <pt x="87" y="220" on="0"/>
        <pt x="83" y="406" on="1"/>
        <pt x="83" y="1165" on="1"/>
        <pt x="422" y="1165" on="1"/>
        <pt x="422" y="418" on="1"/>
        <pt x="422" y="324" on="0"/>
        <pt x="506" y="243" on="0"/>
        <pt x="589" y="243" on="1"/>
        <pt x="674" y="243" on="0"/>
        <pt x="753" y="324" on="0"/>
        <pt x="753" y="418" on="1"/>
        <pt x="753" y="1165" on="1"/>
      </contour>
    </TTGlyph>
    <TTGlyph name="Upsilon" xMin="-3" yMin="0" xMax="1290" yMax="1456">
      <component glyphName="Y" x="0" y="0" flags="0x1204"/>
    </TTGlyph>
    <TTGlyph name="Upsilon.c2sc" xMin="-9" yMin="0" xMax="1129" yMax="1165">
      <component glyphName="Y.c2sc" x="0" y="0" flags="0x1204"/>
    </TTGlyph>
    <TTGlyph name="Upsilon1" xMin="-20" yMin="0" xMax="1297" yMax="1488">
      <contour>
        <pt x="638" y="770" on="1"/>
        <pt x="802" y="1230" on="1"/>
        <pt x="899" y="1488" on="0"/>
        <pt x="1141" y="1488" on="1"/>
        <pt x="1197" y="1488" on="0"/>
        <pt x="1297" y="1463" on="1"/>
        <pt x="1259" y="1207" on="1"/>
        <pt x="1197" y="1210" on="1"/>
        <pt x="1122" y="1210" on="0"/>
        <pt x="1095" y="1139" on="1"/>
        <pt x="812" y="459" on="1"/>
        <pt x="812" y="0" on="1"/>
        <pt x="459" y="0" on="1"/>
        <pt x="459" y="457" on="1"/>
        <pt x="182" y="1134" on="1"/>
        <pt x="151" y="1210" on="0"/>
        <pt x="77" y="1210" on="1"/>
        <pt x="15" y="1207" on="1"/>
        <pt x="-20" y="1463" on="1"/>
        <pt x="71" y="1488" on="0"/>
        <pt x="135" y="1488" on="1"/>
        <pt x="268" y="1488" on="0"/>
        <pt x="432" y="1360" on="0"/>
        <pt x="478" y="1229" on="1"/>
      </contour>
    </TTGlyph>
    <TTGlyph name="Upsilon1_acutecomb.ccmp" xMin="-420" yMin="0" xMax="1397" yMax="1602">
      <component glyphName="Upsilon1" x="100" y="0" flags="0x1004"/>
      <component glyphName="tonos" x="-659" y="0" flags="0x1004"/>
    </TTGlyph>
    <TTGlyph name="Upsilondieresis" xMin="-3" yMin="0" xMax="1290" yMax="1808">
      <component glyphName="Y" x="0" y="0" flags="0x1204"/>
      <component glyphName="dieresis" x="136" y="310" flags="0x1004"/>
    </TTGlyph>
    <TTGlyph name="Upsilondieresis.c2sc" xMin="-9" yMin="0" xMax="1129" yMax="1528">
      <component glyphName="Y.c2sc" x="0" y="0" flags="0x1204"/>
      <component glyphName="dieresis" x="36" y="30" flags="0x1004"/>
    </TTGlyph>
    <TTGlyph name="Upsilontonos" xMin="-382" yMin="0" xMax="1390" yMax="1602">
      <component glyphName="Y" x="100" y="0" flags="0x1004"/>
      <component glyphName="tonos" x="-621" y="0" flags="0x1004"/>
    </TTGlyph>
    <TTGlyph name="Upsilontonos.c2sc" xMin="-375" yMin="0" xMax="1189" yMax="1311">
      <component glyphName="Y.c2sc" x="60" y="0" flags="0x1004"/>
      <component glyphName="tonos" x="-614" y="-291" flags="0x1004"/>
    </TTGlyph>
    <TTGlyph name="Uring" xMin="105" yMin="-20" xMax="1252" yMax="1932">
      <component glyphName="U" x="0" y="0" flags="0x1204"/>
      <component glyphName="ring" x="334" y="435" flags="0x1004"/>
    </TTGlyph>
    <TTGlyph name="Uring.c2sc" xMin="83" yMin="-16" xMax="1092" yMax="1652">
      <component glyphName="U.c2sc" x="0" y="0" flags="0x1204"/>
      <component glyphName="ring" x="242" y="155" flags="0x1004"/>
    </TTGlyph>
    <TTGlyph name="Utilde" xMin="105" yMin="-20" xMax="1252" yMax="1848">
      <component glyphName="U" x="0" y="0" flags="0x1204"/>
      <component glyphName="tilde" x="175" y="305" flags="0x1004"/>
    </TTGlyph>
    <TTGlyph name="Utilde.c2sc" xMin="83" yMin="-16" xMax="1092" yMax="1568">
      <component glyphName="U.c2sc" x="0" y="0" flags="0x1204"/>
      <component glyphName="tilde" x="83" y="25" flags="0x1004"/>
    </TTGlyph>
    <TTGlyph name="V" xMin="-3" yMin="0" xMax="1357" yMax="1456">
      <contour>
        <pt x="675" y="396" on="1"/>
        <pt x="965" y="1456" on="1"/>
        <pt x="1357" y="1456" on="1"/>
        <pt x="867" y="0" on="1"/>
        <pt x="483" y="0" on="1"/>
        <pt x="-3" y="1456" on="1"/>
        <pt x="386" y="1456" on="1"/>
      </contour>
    </TTGlyph>
    <TTGlyph name="V.c2sc" xMin="-12" yMin="0" xMax="1185" yMax="1165">
      <contour>
        <pt x="581" y="326" on="1"/>
        <pt x="584" y="307" on="1"/>
        <pt x="587" y="322" on="1"/>
        <pt x="833" y="1165" on="1"/>
        <pt x="1185" y="1165" on="1"/>
        <pt x="775" y="0" on="1"/>
        <pt x="395" y="0" on="1"/>
        <pt x="-12" y="1165" on="1"/>
        <pt x="339" y="1165" on="1"/>
      </contour>
    </TTGlyph>
    <TTGlyph name="V_dotbelowcomb.ccmp" xMin="-3" yMin="-369" xMax="1357" yMax="1456">
      <component glyphName="V" x="0" y="0" flags="0x1204"/>
      <component glyphName="dotbelowcomb" x="1272" y="10" flags="0x1004"/>
    </TTGlyph>
    <TTGlyph name="V_tildecomb.ccmp" xMin="-3" yMin="0" xMax="1357" yMax="1860">
      <component glyphName="V" x="0" y="0" flags="0x1204"/>
      <component glyphName="tilde" x="175" y="317" flags="0x1004"/>
    </TTGlyph>
    <TTGlyph name="W" xMin="21" yMin="0" xMax="1753" yMax="1456">
      <contour>
        <pt x="1238" y="543" on="1"/>
        <pt x="1405" y="1456" on="1"/>
        <pt x="1753" y="1456" on="1"/>
        <pt x="1444" y="0" on="1"/>
        <pt x="1080" y="0" on="1"/>
        <pt x="885" y="830" on="1"/>
        <pt x="694" y="0" on="1"/>
        <pt x="331" y="0" on="1"/>
        <pt x="21" y="1456" on="1"/>
        <pt x="370" y="1456" on="1"/>
        <pt x="537" y="543" on="1"/>
        <pt x="737" y="1456" on="1"/>
        <pt x="1035" y="1456" on="1"/>
      </contour>
    </TTGlyph>
    <TTGlyph name="W.c2sc" xMin="22" yMin="0" xMax="1488" yMax="1165">
      <contour>
        <pt x="1047" y="490" on="1"/>
        <pt x="1168" y="1165" on="1"/>
        <pt x="1488" y="1165" on="1"/>
        <pt x="1234" y="0" on="1"/>
        <pt x="890" y="0" on="1"/>
        <pt x="753" y="601" on="1"/>
        <pt x="622" y="0" on="1"/>
        <pt x="279" y="0" on="1"/>
        <pt x="22" y="1165" on="1"/>
        <pt x="345" y="1165" on="1"/>
        <pt x="464" y="491" on="1"/>
        <pt x="605" y="1165" on="1"/>
        <pt x="902" y="1165" on="1"/>
      </contour>
    </TTGlyph>
    <TTGlyph name="W_dotbelowcomb.ccmp" xMin="21" yMin="-369" xMax="1753" yMax="1456">
      <component glyphName="W" x="0" y="0" flags="0x1204"/>
      <component glyphName="dotbelowcomb" x="1485" y="10" flags="0x1004"/>
    </TTGlyph>
    <TTGlyph name="Wacute" xMin="21" yMin="0" xMax="1753" yMax="1846">
      <component glyphName="W" x="0" y="0" flags="0x1204"/>
      <component glyphName="acute" x="648" y="310" flags="0x1004"/>
    </TTGlyph>
    <TTGlyph name="Wacute.c2sc" xMin="22" yMin="0" xMax="1488" yMax="1566">
      <component glyphName="W.c2sc" x="0" y="0" flags="0x1204"/>
      <component glyphName="acute" x="497" y="30" flags="0x1004"/>
    </TTGlyph>
    <TTGlyph name="Wcircumflex" xMin="21" yMin="0" xMax="1753" yMax="1846">
      <component glyphName="W" x="0" y="0" flags="0x1204"/>
      <component glyphName="circumflex" x="376" y="310" flags="0x1004"/>
    </TTGlyph>
    <TTGlyph name="Wcircumflex.c2sc" xMin="22" yMin="0" xMax="1488" yMax="1566">
      <component glyphName="W.c2sc" x="0" y="0" flags="0x1204"/>
      <component glyphName="circumflex" x="225" y="30" flags="0x1004"/>
    </TTGlyph>
    <TTGlyph name="Wdieresis" xMin="21" yMin="0" xMax="1753" yMax="1808">
      <component glyphName="W" x="0" y="0" flags="0x1204"/>
      <component glyphName="dieresis" x="385" y="310" flags="0x1004"/>
    </TTGlyph>
    <TTGlyph name="Wdieresis.c2sc" xMin="22" yMin="0" xMax="1488" yMax="1528">
      <component glyphName="W.c2sc" x="0" y="0" flags="0x1204"/>
      <component glyphName="dieresis" x="234" y="30" flags="0x1004"/>
    </TTGlyph>
    <TTGlyph name="Wgrave" xMin="21" yMin="0" xMax="1753" yMax="1846">
      <component glyphName="W" x="0" y="0" flags="0x1204"/>
      <component glyphName="grave" x="443" y="310" flags="0x1004"/>
    </TTGlyph>
    <TTGlyph name="Wgrave.c2sc" xMin="22" yMin="0" xMax="1488" yMax="1566">
      <component glyphName="W.c2sc" x="0" y="0" flags="0x1204"/>
      <component glyphName="grave" x="292" y="30" flags="0x1004"/>
    </TTGlyph>
    <TTGlyph name="X" xMin="4" yMin="0" xMax="1303" yMax="1456">
      <contour>
        <pt x="653" y="972" on="1"/>
        <pt x="891" y="1456" on="1"/>
        <pt x="1292" y="1456" on="1"/>
        <pt x="885" y="734" on="1"/>
        <pt x="1303" y="0" on="1"/>
        <pt x="898" y="0" on="1"/>
        <pt x="653" y="493" on="1"/>
        <pt x="408" y="0" on="1"/>
        <pt x="4" y="0" on="1"/>
        <pt x="421" y="734" on="1"/>
        <pt x="15" y="1456" on="1"/>
        <pt x="415" y="1456" on="1"/>
      </contour>
    </TTGlyph>
    <TTGlyph name="X.c2sc" xMin="-14" yMin="0" xMax="1136" yMax="1165">
      <contour>
        <pt x="544" y="809" on="1"/>
        <pt x="714" y="1165" on="1"/>
        <pt x="1099" y="1165" on="1"/>
        <pt x="760" y="587" on="1"/>
        <pt x="1136" y="0" on="1"/>
        <pt x="737" y="0" on="1"/>
        <pt x="549" y="363" on="1"/>
        <pt x="371" y="0" on="1"/>
        <pt x="-14" y="0" on="1"/>
        <pt x="335" y="587" on="1"/>
        <pt x="-4" y="1165" on="1"/>
        <pt x="378" y="1165" on="1"/>
      </contour>
    </TTGlyph>
    <TTGlyph name="Xi" xMin="81" yMin="0" xMax="1090" yMax="1456">
      <contour>
        <pt x="81" y="270" on="1"/>
        <pt x="1090" y="270" on="1"/>
        <pt x="1090" y="0" on="1"/>
        <pt x="81" y="0" on="1"/>
      </contour>
      <contour>
        <pt x="212" y="857" on="1"/>
        <pt x="963" y="857" on="1"/>
        <pt x="963" y="600" on="1"/>
        <pt x="212" y="600" on="1"/>
      </contour>
      <contour>
        <pt x="117" y="1456" on="1"/>
        <pt x="1031" y="1456" on="1"/>
        <pt x="1031" y="1185" on="1"/>
        <pt x="117" y="1185" on="1"/>
      </contour>
    </TTGlyph>
    <TTGlyph name="Xi.c2sc" xMin="82" yMin="0" xMax="876" yMax="1165">
      <contour>
        <pt x="876" y="0" on="1"/>
        <pt x="82" y="0" on="1"/>
        <pt x="82" y="260" on="1"/>
        <pt x="876" y="260" on="1"/>
      </contour>
      <contour>
        <pt x="785" y="472" on="1"/>
        <pt x="173" y="472" on="1"/>
        <pt x="173" y="732" on="1"/>
        <pt x="785" y="732" on="1"/>
      </contour>
      <contour>
        <pt x="876" y="905" on="1"/>
        <pt x="82" y="905" on="1"/>
        <pt x="82" y="1165" on="1"/>
        <pt x="876" y="1165" on="1"/>
      </contour>
    </TTGlyph>
    <TTGlyph name="Y" xMin="-3" yMin="0" xMax="1290" yMax="1456">
      <contour>
        <pt x="643" y="824" on="1"/>
        <pt x="911" y="1456" on="1"/>
        <pt x="1290" y="1456" on="1"/>
        <pt x="821" y="523" on="1"/>
        <pt x="821" y="0" on="1"/>
        <pt x="465" y="0" on="1"/>
        <pt x="465" y="523" on="1"/>
        <pt x="-3" y="1456" on="1"/>
        <pt x="374" y="1456" on="1"/>
      </contour>
    </TTGlyph>
    <TTGlyph name="Y.c2sc" xMin="-9" yMin="0" xMax="1129" yMax="1165">
      <contour>
        <pt x="558" y="703" on="1"/>
        <pt x="766" y="1165" on="1"/>
        <pt x="1129" y="1165" on="1"/>
        <pt x="725" y="409" on="1"/>
        <pt x="725" y="0" on="1"/>
        <pt x="387" y="0" on="1"/>
        <pt x="387" y="421" on="1"/>
        <pt x="-9" y="1165" on="1"/>
        <pt x="353" y="1165" on="1"/>
      </contour>
    </TTGlyph>
    <TTGlyph name="Yacute" xMin="-3" yMin="0" xMax="1290" yMax="1846">
      <component glyphName="Y" x="0" y="0" flags="0x1204"/>
      <component glyphName="acute" x="399" y="310" flags="0x1004"/>
    </TTGlyph>
    <TTGlyph name="Yacute.c2sc" xMin="-9" yMin="0" xMax="1129" yMax="1566">
      <component glyphName="Y.c2sc" x="0" y="0" flags="0x1204"/>
      <component glyphName="acute" x="299" y="30" flags="0x1004"/>
    </TTGlyph>
    <TTGlyph name="Ycircumflex" xMin="-3" yMin="0" xMax="1290" yMax="1846">
      <component glyphName="Y" x="0" y="0" flags="0x1204"/>
      <component glyphName="circumflex" x="127" y="310" flags="0x1004"/>
    </TTGlyph>
    <TTGlyph name="Ycircumflex.c2sc" xMin="-9" yMin="0" xMax="1129" yMax="1566">
      <component glyphName="Y.c2sc" x="0" y="0" flags="0x1204"/>
      <component glyphName="circumflex" x="27" y="30" flags="0x1004"/>
    </TTGlyph>
    <TTGlyph name="Ydieresis" xMin="-3" yMin="0" xMax="1290" yMax="1808">
      <component glyphName="Y" x="0" y="0" flags="0x1204"/>
      <component glyphName="dieresis" x="136" y="310" flags="0x1004"/>
    </TTGlyph>
    <TTGlyph name="Ydieresis.c2sc" xMin="-9" yMin="0" xMax="1129" yMax="1528">
      <component glyphName="Y.c2sc" x="0" y="0" flags="0x1204"/>
      <component glyphName="dieresis" x="36" y="30" flags="0x1004"/>
    </TTGlyph>
    <TTGlyph name="Ygrave" xMin="-3" yMin="0" xMax="1290" yMax="1846">
      <component glyphName="Y" x="0" y="0" flags="0x1204"/>
      <component glyphName="grave" x="194" y="310" flags="0x1004"/>
    </TTGlyph>
    <TTGlyph name="Ygrave.c2sc" xMin="-9" yMin="0" xMax="1129" yMax="1566">
      <component glyphName="Y.c2sc" x="0" y="0" flags="0x1204"/>
      <component glyphName="grave" x="94" y="30" flags="0x1004"/>
    </TTGlyph>
    <TTGlyph name="Z" xMin="62" yMin="0" xMax="1200" yMax="1456">
      <contour>
        <pt x="504" y="270" on="1"/>
        <pt x="1200" y="270" on="1"/>
        <pt x="1200" y="0" on="1"/>
        <pt x="66" y="0" on="1"/>
        <pt x="66" y="185" on="1"/>
        <pt x="760" y="1185" on="1"/>
        <pt x="62" y="1185" on="1"/>
        <pt x="62" y="1456" on="1"/>
        <pt x="1193" y="1456" on="1"/>
        <pt x="1193" y="1276" on="1"/>
      </contour>
    </TTGlyph>
    <TTGlyph name="Z.c2sc" xMin="44" yMin="0" xMax="1046" yMax="1165">
      <contour>
        <pt x="494" y="259" on="1"/>
        <pt x="1046" y="259" on="1"/>
        <pt x="1046" y="0" on="1"/>
        <pt x="51" y="0" on="1"/>
        <pt x="51" y="161" on="1"/>
        <pt x="122" y="255" on="1"/>
        <pt x="122" y="259" on="1"/>
        <pt x="125" y="259" on="1"/>
        <pt x="612" y="905" on="1"/>
        <pt x="44" y="905" on="1"/>
        <pt x="44" y="1165" on="1"/>
        <pt x="1046" y="1165" on="1"/>
        <pt x="1046" y="1008" on="1"/>
      </contour>
    </TTGlyph>
    <TTGlyph name="Z_dotbelowcomb.ccmp" xMin="62" yMin="-369" xMax="1200" yMax="1456">
      <component glyphName="Z" x="0" y="0" flags="0x1204"/>
      <component glyphName="dotbelowcomb" x="1235" y="10" flags="0x1004"/>
    </TTGlyph>
    <TTGlyph name="Zacute" xMin="62" yMin="0" xMax="1200" yMax="1846">
      <component glyphName="Z" x="0" y="0" flags="0x1204"/>
      <component glyphName="acute" x="392" y="310" flags="0x1004"/>
    </TTGlyph>
    <TTGlyph name="Zacute.c2sc" xMin="44" yMin="0" xMax="1046" yMax="1566">
      <component glyphName="Z.c2sc" x="0" y="0" flags="0x1204"/>
      <component glyphName="acute" x="309" y="30" flags="0x1004"/>
    </TTGlyph>
    <TTGlyph name="Zcaron" xMin="62" yMin="0" xMax="1200" yMax="1847">
      <component glyphName="Z" x="0" y="0" flags="0x1204"/>
      <component glyphName="caron" x="144" y="310" flags="0x1004"/>
    </TTGlyph>
    <TTGlyph name="Zcaron.c2sc" xMin="44" yMin="0" xMax="1046" yMax="1567">
      <component glyphName="Z.c2sc" x="0" y="0" flags="0x1204"/>
      <component glyphName="caron" x="61" y="30" flags="0x1004"/>
    </TTGlyph>
    <TTGlyph name="Zdotaccent" xMin="62" yMin="0" xMax="1200" yMax="1858">
      <component glyphName="Z" x="0" y="0" flags="0x1204"/>
      <component glyphName="dotaccent" x="362" y="333" flags="0x1004"/>
    </TTGlyph>
    <TTGlyph name="Zdotaccent.c2sc" xMin="44" yMin="0" xMax="1046" yMax="1578">
      <component glyphName="Z.c2sc" x="0" y="0" flags="0x1204"/>
      <component glyphName="dotaccent" x="279" y="53" flags="0x1004"/>
    </TTGlyph>
    <TTGlyph name="Zeta" xMin="62" yMin="0" xMax="1200" yMax="1456">
      <component glyphName="Z" x="0" y="0" flags="0x1204"/>
    </TTGlyph>
    <TTGlyph name="Zeta.c2sc" xMin="44" yMin="0" xMax="1046" yMax="1165">
      <component glyphName="Z.c2sc" x="0" y="0" flags="0x1204"/>
    </TTGlyph>
    <TTGlyph name="a" xMin="45" yMin="-20" xMax="1041" yMax="1102">
      <contour>
        <pt x="704" y="0" on="1"/>
        <pt x="686" y="33" on="0"/>
        <pt x="672" y="97" on="1"/>
        <pt x="579" y="-20" on="0"/>
        <pt x="412" y="-20" on="1"/>
        <pt x="259" y="-20" on="0"/>
        <pt x="45" y="165" on="0"/>
        <pt x="45" y="305" on="1"/>
        <pt x="45" y="481" on="0"/>
        <pt x="305" y="661" on="0"/>
        <pt x="553" y="661" on="1"/>
        <pt x="657" y="661" on="1"/>
        <pt x="657" y="718" on="1"/>
        <pt x="657" y="867" on="0"/>
        <pt x="528" y="867" on="1"/>
        <pt x="408" y="867" on="0"/>
        <pt x="408" y="749" on="1"/>
        <pt x="71" y="749" on="1"/>
        <pt x="71" y="906" on="0"/>
        <pt x="338" y="1102" on="0"/>
        <pt x="752" y="1102" on="0"/>
        <pt x="992" y="900" on="0"/>
        <pt x="995" y="724" on="1"/>
        <pt x="995" y="245" on="1"/>
        <pt x="997" y="96" on="0"/>
        <pt x="1041" y="17" on="1"/>
        <pt x="1041" y="0" on="1"/>
      </contour>
      <contour>
        <pt x="493" y="220" on="1"/>
        <pt x="556" y="220" on="0"/>
        <pt x="639" y="274" on="0"/>
        <pt x="657" y="308" on="1"/>
        <pt x="657" y="481" on="1"/>
        <pt x="559" y="481" on="1"/>
        <pt x="383" y="481" on="0"/>
        <pt x="383" y="323" on="1"/>
        <pt x="383" y="277" on="0"/>
        <pt x="445" y="220" on="0"/>
      </contour>
    </TTGlyph>
    <TTGlyph name="a_uni030F.ccmp" xMin="-62" yMin="-20" xMax="1041" yMax="1518">
      <component glyphName="a" x="0" y="0" flags="0x1204"/>
      <component glyphName="uni030F" x="1007" y="0" flags="0x1004"/>
    </TTGlyph>
    <TTGlyph name="aacute" xMin="45" yMin="-20" xMax="1041" yMax="1536">
      <component glyphName="a" x="0" y="0" flags="0x1204"/>
      <component glyphName="acute" x="290" y="0" flags="0x1004"/>
    </TTGlyph>
    <TTGlyph name="abreve" xMin="45" yMin="-20" xMax="1041" yMax="1538">
      <component glyphName="a" x="0" y="0" flags="0x1204"/>
      <component glyphName="breve" x="71" y="0" flags="0x1004"/>
    </TTGlyph>
    <TTGlyph name="acircumflex" xMin="45" yMin="-20" xMax="1041" yMax="1536">
      <component glyphName="a" x="0" y="0" flags="0x1204"/>
      <component glyphName="circumflex" x="18" y="0" flags="0x1004"/>
    </TTGlyph>
    <TTGlyph name="acute" xMin="90" yMin="1222" xMax="643" yMax="1536">
      <contour>
        <pt x="287" y="1536" on="1"/>
        <pt x="643" y="1536" on="1"/>
        <pt x="365" y="1222" on="1"/>
        <pt x="90" y="1222" on="1"/>
      </contour>
    </TTGlyph>
    <TTGlyph name="acutecomb" xMin="-690" yMin="1222" xMax="-137" yMax="1536">
      <contour>
        <pt x="-493" y="1536" on="1"/>
        <pt x="-137" y="1536" on="1"/>
        <pt x="-415" y="1222" on="1"/>
        <pt x="-690" y="1222" on="1"/>
      </contour>
    </TTGlyph>
    <TTGlyph name="adieresis" xMin="45" yMin="-20" xMax="1041" yMax="1498">
      <component glyphName="a" x="0" y="0" flags="0x1204"/>
      <component glyphName="dieresis" x="27" y="0" flags="0x1004"/>
    </TTGlyph>
    <TTGlyph name="ae" xMin="61" yMin="-20" xMax="1685" yMax="1104">
      <contour>
        <pt x="1238" y="-20" on="1"/>
        <pt x="998" y="-20" on="0"/>
        <pt x="858" y="114" on="1"/>
        <pt x="792" y="48" on="0"/>
        <pt x="596" y="-20" on="0"/>
        <pt x="484" y="-20" on="1"/>
        <pt x="285" y="-20" on="0"/>
        <pt x="61" y="163" on="0"/>
        <pt x="61" y="324" on="1"/>
        <pt x="61" y="482" on="0"/>
        <pt x="320" y="654" on="0"/>
        <pt x="575" y="655" on="1"/>
        <pt x="717" y="655" on="1"/>
        <pt x="717" y="701" on="1"/>
        <pt x="717" y="767" on="0"/>
        <pt x="649" y="842" on="0"/>
        <pt x="584" y="842" on="1"/>
        <pt x="512" y="842" on="0"/>
        <pt x="436" y="783" on="0"/>
        <pt x="436" y="740" on="1"/>
        <pt x="99" y="759" on="1"/>
        <pt x="99" y="910" on="0"/>
        <pt x="367" y="1102" on="0"/>
        <pt x="588" y="1102" on="1"/>
        <pt x="790" y="1102" on="0"/>
        <pt x="907" y="1011" on="1"/>
        <pt x="1033" y="1104" on="0"/>
        <pt x="1227" y="1102" on="1"/>
        <pt x="1439" y="1102" on="0"/>
        <pt x="1685" y="836" on="0"/>
        <pt x="1685" y="609" on="1"/>
        <pt x="1685" y="435" on="1"/>
        <pt x="1046" y="435" on="1"/>
        <pt x="1060" y="337" on="0"/>
        <pt x="1182" y="240" on="0"/>
        <pt x="1284" y="240" on="1"/>
        <pt x="1410" y="240" on="0"/>
        <pt x="1507" y="280" on="1"/>
        <pt x="1569" y="307" on="1"/>
        <pt x="1650" y="101" on="1"/>
        <pt x="1583" y="49" on="0"/>
        <pt x="1354" y="-20" on="0"/>
      </contour>
      <contour>
        <pt x="548" y="212" on="1"/>
        <pt x="637" y="212" on="0"/>
        <pt x="717" y="275" on="1"/>
        <pt x="717" y="451" on="1"/>
        <pt x="578" y="451" on="1"/>
        <pt x="500" y="450" on="0"/>
        <pt x="398" y="378" on="0"/>
        <pt x="398" y="320" on="1"/>
        <pt x="398" y="212" on="0"/>
      </contour>
      <contour>
        <pt x="1227" y="842" on="1"/>
        <pt x="1145" y="842" on="0"/>
        <pt x="1058" y="745" on="0"/>
        <pt x="1047" y="646" on="1"/>
        <pt x="1356" y="646" on="1"/>
        <pt x="1356" y="672" on="1"/>
        <pt x="1356" y="753" on="0"/>
        <pt x="1290" y="842" on="0"/>
      </contour>
    </TTGlyph>
    <TTGlyph name="aeacute" xMin="61" yMin="-20" xMax="1685" yMax="1537">
      <component glyphName="ae" x="0" y="0" flags="0x1204"/>
      <component glyphName="acute" x="619" y="1" flags="0x1004"/>
    </TTGlyph>
    <TTGlyph name="agrave" xMin="45" yMin="-20" xMax="1041" yMax="1536">
      <component glyphName="a" x="0" y="0" flags="0x1204"/>
      <component glyphName="grave" x="85" y="0" flags="0x1004"/>
    </TTGlyph>
    <TTGlyph name="alpha" xMin="60" yMin="-21" xMax="1152" yMax="1102">
      <contour>
        <pt x="1041" y="1082" on="1"/>
        <pt x="1041" y="353" on="1"/>
        <pt x="1044" y="241" on="0"/>
        <pt x="1110" y="241" on="1"/>
        <pt x="1121" y="241" on="0"/>
        <pt x="1126" y="244" on="1"/>
        <pt x="1152" y="0" on="1"/>
        <pt x="1101" y="-21" on="0"/>
        <pt x="1027" y="-21" on="1"/>
        <pt x="827" y="-21" on="0"/>
        <pt x="744" y="148" on="1"/>
        <pt x="649" y="-20" on="0"/>
        <pt x="481" y="-20" on="1"/>
        <pt x="286" y="-20" on="0"/>
        <pt x="60" y="269" on="0"/>
        <pt x="60" y="539" on="1"/>
        <pt x="60" y="796" on="0"/>
        <pt x="285" y="1102" on="0"/>
        <pt x="483" y="1102" on="1"/>
        <pt x="634" y="1102" on="0"/>
        <pt x="723" y="958" on="1"/>
        <pt x="746" y="1082" on="1"/>
      </contour>
      <contour>
        <pt x="399" y="518" on="1"/>
        <pt x="399" y="375" on="0"/>
        <pt x="482" y="240" on="0"/>
        <pt x="566" y="240" on="1"/>
        <pt x="658" y="240" on="0"/>
        <pt x="703" y="303" on="1"/>
        <pt x="703" y="768" on="1"/>
        <pt x="658" y="842" on="0"/>
        <pt x="568" y="842" on="1"/>
        <pt x="399" y="842" on="0"/>
      </contour>
    </TTGlyph>
    <TTGlyph name="alpha.ss02" xMin="60" yMin="-21" xMax="1115" yMax="1102">
      <contour>
        <pt x="803" y="138" on="1"/>
        <pt x="696" y="-21" on="0"/>
        <pt x="504" y="-21" on="1"/>
        <pt x="298" y="-21" on="0"/>
        <pt x="61" y="269" on="0"/>
        <pt x="60" y="517" on="1"/>
        <pt x="60" y="539" on="1"/>
        <pt x="60" y="797" on="0"/>
        <pt x="298" y="1102" on="0"/>
        <pt x="506" y="1102" on="1"/>
        <pt x="691" y="1102" on="0"/>
        <pt x="798" y="941" on="1"/>
        <pt x="818" y="1082" on="1"/>
        <pt x="1108" y="1082" on="1"/>
        <pt x="1000" y="540" on="1"/>
        <pt x="1115" y="0" on="1"/>
        <pt x="825" y="0" on="1"/>
      </contour>
      <contour>
        <pt x="399" y="518" on="1"/>
        <pt x="399" y="239" on="0"/>
        <pt x="566" y="239" on="1"/>
        <pt x="650" y="239" on="0"/>
        <pt x="745" y="369" on="0"/>
        <pt x="740" y="483" on="1"/>
        <pt x="740" y="562" on="1"/>
        <pt x="742" y="696" on="0"/>
        <pt x="651" y="842" on="0"/>
        <pt x="568" y="842" on="1"/>
        <pt x="399" y="842" on="0"/>
      </contour>
    </TTGlyph>
    <TTGlyph name="alphatonos" xMin="60" yMin="-21" xMax="1152" yMax="1602">
      <component glyphName="alpha" x="0" y="0" flags="0x1204"/>
      <component glyphName="tonos" x="254" y="0" flags="0x1004"/>
    </TTGlyph>
    <TTGlyph name="amacron" xMin="45" yMin="-20" xMax="1041" yMax="1453">
      <component glyphName="a" x="0" y="0" flags="0x1204"/>
      <component glyphName="macron" x="6" y="-5" flags="0x1004"/>
    </TTGlyph>
    <TTGlyph name="ampersand" xMin="56" yMin="-21" xMax="1345" yMax="1477">
      <contour>
        <pt x="311" y="767" on="1"/>
        <pt x="252" y="851" on="0"/>
        <pt x="185" y="1003" on="0"/>
        <pt x="185" y="1084" on="1"/>
        <pt x="185" y="1260" on="0"/>
        <pt x="413" y="1477" on="0"/>
        <pt x="597" y="1477" on="1"/>
        <pt x="762" y="1477" on="0"/>
        <pt x="978" y="1276" on="0"/>
        <pt x="978" y="1127" on="1"/>
        <pt x="978" y="941" on="0"/>
        <pt x="773" y="797" on="1"/>
        <pt x="697" y="744" on="1"/>
        <pt x="921" y="487" on="1"/>
        <pt x="976" y="597" on="0"/>
        <pt x="976" y="728" on="1"/>
        <pt x="1259" y="728" on="1"/>
        <pt x="1259" y="433" on="0"/>
        <pt x="1123" y="255" on="1"/>
        <pt x="1345" y="0" on="1"/>
        <pt x="969" y="0" on="1"/>
        <pt x="901" y="77" on="1"/>
        <pt x="817" y="27" on="0"/>
        <pt x="642" y="-21" on="0"/>
        <pt x="532" y="-21" on="1"/>
        <pt x="316" y="-21" on="0"/>
        <pt x="56" y="206" on="0"/>
        <pt x="56" y="391" on="1"/>
        <pt x="56" y="492" on="0"/>
        <pt x="159" y="656" on="0"/>
        <pt x="308" y="765" on="1"/>
      </contour>
      <contour>
        <pt x="554" y="239" on="1"/>
        <pt x="642" y="239" on="0"/>
        <pt x="722" y="280" on="1"/>
        <pt x="460" y="578" on="1"/>
        <pt x="451" y="572" on="1"/>
        <pt x="394" y="502" on="0"/>
        <pt x="394" y="414" on="1"/>
        <pt x="394" y="341" on="0"/>
        <pt x="486" y="239" on="0"/>
      </contour>
      <contour>
        <pt x="476" y="1088" on="1"/>
        <pt x="476" y="1018" on="0"/>
        <pt x="552" y="918" on="1"/>
        <pt x="619" y="960" on="1"/>
        <pt x="665" y="990" on="0"/>
        <pt x="707" y="1054" on="0"/>
        <pt x="707" y="1103" on="1"/>
        <pt x="707" y="1149" on="0"/>
        <pt x="643" y="1217" on="0"/>
        <pt x="596" y="1217" on="1"/>
        <pt x="540" y="1217" on="0"/>
        <pt x="476" y="1146" on="0"/>
      </contour>
    </TTGlyph>
    <TTGlyph name="ampersand.c2sc" xMin="78" yMin="-21" xMax="1285" yMax="1181">
      <contour>
        <pt x="554" y="-21" on="1"/>
        <pt x="342" y="-21" on="0"/>
        <pt x="78" y="155" on="0"/>
        <pt x="78" y="301" on="1"/>
        <pt x="78" y="441" on="0"/>
        <pt x="220" y="544" on="1"/>
        <pt x="312" y="604" on="1"/>
        <pt x="259" y="663" on="1"/>
        <pt x="177" y="764" on="0"/>
        <pt x="177" y="887" on="1"/>
        <pt x="177" y="1011" on="0"/>
        <pt x="383" y="1181" on="0"/>
        <pt x="549" y="1181" on="1"/>
        <pt x="729" y="1181" on="0"/>
        <pt x="939" y="1012" on="0"/>
        <pt x="939" y="866" on="1"/>
        <pt x="939" y="724" on="0"/>
        <pt x="771" y="611" on="1"/>
        <pt x="699" y="565" on="1"/>
        <pt x="886" y="385" on="1"/>
        <pt x="931" y="457" on="0"/>
        <pt x="931" y="552" on="1"/>
        <pt x="1213" y="552" on="1"/>
        <pt x="1213" y="333" on="0"/>
        <pt x="1084" y="193" on="1"/>
        <pt x="1285" y="0" on="1"/>
        <pt x="924" y="0" on="1"/>
        <pt x="878" y="45" on="1"/>
        <pt x="727" y="-21" on="0"/>
      </contour>
      <contour>
        <pt x="455" y="852" on="1"/>
        <pt x="455" y="807" on="0"/>
        <pt x="526" y="734" on="1"/>
        <pt x="556" y="753" on="1"/>
        <pt x="614" y="787" on="0"/>
        <pt x="656" y="833" on="0"/>
        <pt x="656" y="867" on="1"/>
        <pt x="656" y="898" on="0"/>
        <pt x="599" y="941" on="0"/>
        <pt x="557" y="941" on="1"/>
        <pt x="506" y="941" on="0"/>
        <pt x="455" y="889" on="0"/>
      </contour>
      <contour>
        <pt x="552" y="236" on="1"/>
        <pt x="618" y="236" on="0"/>
        <pt x="672" y="248" on="1"/>
        <pt x="486" y="431" on="1"/>
        <pt x="481" y="428" on="1"/>
        <pt x="417" y="388" on="0"/>
        <pt x="417" y="334" on="1"/>
        <pt x="417" y="287" on="0"/>
        <pt x="490" y="236" on="0"/>
      </contour>
    </TTGlyph>
    <TTGlyph name="anoteleia" xMin="138" yMin="516" xMax="510" yMax="854">
      <component glyphName="periodcentered" x="0" y="0" flags="0x1004"/>
    </TTGlyph>
    <TTGlyph name="aogonek" xMin="45" yMin="-417" xMax="1041" yMax="1102">
      <contour>
        <pt x="702" y="3" on="1"/>
        <pt x="683" y="42" on="0"/>
        <pt x="672" y="97" on="1"/>
        <pt x="579" y="-20" on="0"/>
        <pt x="412" y="-20" on="1"/>
        <pt x="259" y="-20" on="0"/>
        <pt x="45" y="165" on="0"/>
        <pt x="45" y="305" on="1"/>
        <pt x="45" y="481" on="0"/>
        <pt x="305" y="661" on="0"/>
        <pt x="553" y="661" on="1"/>
        <pt x="657" y="661" on="1"/>
        <pt x="657" y="718" on="1"/>
        <pt x="657" y="867" on="0"/>
        <pt x="528" y="867" on="1"/>
        <pt x="408" y="867" on="0"/>
        <pt x="408" y="749" on="1"/>
        <pt x="71" y="749" on="1"/>
        <pt x="71" y="906" on="0"/>
        <pt x="338" y="1102" on="0"/>
        <pt x="752" y="1102" on="0"/>
        <pt x="992" y="900" on="0"/>
        <pt x="995" y="724" on="1"/>
        <pt x="995" y="245" on="1"/>
        <pt x="997" y="96" on="0"/>
        <pt x="1041" y="17" on="1"/>
        <pt x="1041" y="0" on="1"/>
        <pt x="986" y="0" on="1"/>
        <pt x="908" y="-39" on="0"/>
        <pt x="841" y="-110" on="0"/>
        <pt x="841" y="-161" on="1"/>
        <pt x="841" y="-223" on="0"/>
        <pt x="901" y="-223" on="1"/>
        <pt x="931" y="-223" on="0"/>
        <pt x="970" y="-205" on="1"/>
        <pt x="1008" y="-373" on="1"/>
        <pt x="935" y="-417" on="0"/>
        <pt x="842" y="-417" on="1"/>
        <pt x="732" y="-417" on="0"/>
        <pt x="599" y="-301" on="0"/>
        <pt x="599" y="-203" on="1"/>
        <pt x="599" y="-76" on="0"/>
      </contour>
      <contour>
        <pt x="493" y="220" on="1"/>
        <pt x="556" y="220" on="0"/>
        <pt x="639" y="274" on="0"/>
        <pt x="657" y="308" on="1"/>
        <pt x="657" y="481" on="1"/>
        <pt x="559" y="481" on="1"/>
        <pt x="383" y="481" on="0"/>
        <pt x="383" y="323" on="1"/>
        <pt x="383" y="277" on="0"/>
        <pt x="445" y="220" on="0"/>
      </contour>
    </TTGlyph>
    <TTGlyph name="aogonek.locl" xMin="45" yMin="-395" xMax="1041" yMax="1102">
      <component glyphName="a" x="0" y="0" flags="0x1204"/>
      <component glyphName="ogonek" x="152" y="22" flags="0x1004"/>
    </TTGlyph>
    <TTGlyph name="approxequal" xMin="101" yMin="231" xMax="1068" yMax="1024">
      <contour>
        <pt x="101" y="917" on="1"/>
        <pt x="149" y="967" on="0"/>
        <pt x="281" y="1023" on="0"/>
        <pt x="347" y="1023" on="1"/>
        <pt x="403" y="1024" on="0"/>
        <pt x="505" y="999" on="0"/>
        <pt x="693" y="905" on="0"/>
        <pt x="788" y="881" on="0"/>
        <pt x="844" y="881" on="1"/>
        <pt x="967" y="881" on="0"/>
        <pt x="1068" y="1007" on="1"/>
        <pt x="1068" y="757" on="1"/>
        <pt x="1020" y="707" on="0"/>
        <pt x="921" y="651" on="0"/>
        <pt x="855" y="651" on="1"/>
        <pt x="799" y="651" on="0"/>
        <pt x="704" y="675" on="0"/>
        <pt x="516" y="769" on="0"/>
        <pt x="414" y="794" on="0"/>
        <pt x="358" y="793" on="1"/>
        <pt x="289" y="793" on="0"/>
        <pt x="146" y="723" on="0"/>
        <pt x="101" y="667" on="1"/>
      </contour>
      <contour>
        <pt x="101" y="497" on="1"/>
        <pt x="203" y="603" on="0"/>
        <pt x="335" y="603" on="1"/>
        <pt x="430" y="605" on="0"/>
        <pt x="526" y="562" on="1"/>
        <pt x="656" y="499" on="1"/>
        <pt x="741" y="461" on="0"/>
        <pt x="832" y="461" on="1"/>
        <pt x="967" y="461" on="0"/>
        <pt x="1068" y="587" on="1"/>
        <pt x="1068" y="337" on="1"/>
        <pt x="966" y="231" on="0"/>
        <pt x="844" y="231" on="1"/>
        <pt x="788" y="231" on="0"/>
        <pt x="693" y="255" on="0"/>
        <pt x="505" y="349" on="0"/>
        <pt x="403" y="374" on="0"/>
        <pt x="347" y="373" on="1"/>
        <pt x="281" y="373" on="0"/>
        <pt x="149" y="307" on="0"/>
        <pt x="101" y="247" on="1"/>
      </contour>
    </TTGlyph>
    <TTGlyph name="aring" xMin="45" yMin="-20" xMax="1041" yMax="1622">
      <component glyphName="a" x="0" y="0" flags="0x1204"/>
      <component glyphName="ring" x="194" y="125" flags="0x1004"/>
    </TTGlyph>
    <TTGlyph name="aringacute" xMin="45" yMin="-20" xMax="1041" yMax="1710">
      <component glyphName="a" x="0" y="0" flags="0x1204"/>
      <component glyphName="glyph551" x="177" y="-50" flags="0x1004"/>
    </TTGlyph>
    <TTGlyph name="asciicircum" xMin="36" yMin="729" xMax="884" yMax="1456">
      <contour>
        <pt x="460" y="1182" on="1"/>
        <pt x="289" y="729" on="1"/>
        <pt x="36" y="729" on="1"/>
        <pt x="335" y="1456" on="1"/>
        <pt x="584" y="1456" on="1"/>
        <pt x="884" y="729" on="1"/>
        <pt x="630" y="729" on="1"/>
      </contour>
    </TTGlyph>
    <TTGlyph name="asciitilde" xMin="94" yMin="367" xMax="1197" yMax="836">
      <contour>
        <pt x="1197" y="799" on="1"/>
        <pt x="1197" y="603" on="0"/>
        <pt x="1014" y="367" on="0"/>
        <pt x="863" y="367" on="1"/>
        <pt x="788" y="367" on="0"/>
        <pt x="667" y="425" on="0"/>
        <pt x="514" y="576" on="0"/>
        <pt x="449" y="576" on="1"/>
        <pt x="399" y="576" on="0"/>
        <pt x="332" y="478" on="0"/>
        <pt x="332" y="405" on="1"/>
        <pt x="94" y="409" on="1"/>
        <pt x="94" y="605" on="0"/>
        <pt x="273" y="836" on="0"/>
        <pt x="426" y="836" on="1"/>
        <pt x="502" y="836" on="0"/>
        <pt x="628" y="777" on="0"/>
        <pt x="777" y="628" on="0"/>
        <pt x="840" y="628" on="1"/>
        <pt x="891" y="628" on="0"/>
        <pt x="956" y="727" on="0"/>
        <pt x="956" y="800" on="1"/>
      </contour>
    </TTGlyph>
    <TTGlyph name="asterisk" xMin="26" yMin="561" xMax="948" yMax="1456">
      <contour>
        <pt x="352" y="956" on="1"/>
        <pt x="26" y="1046" on="1"/>
        <pt x="91" y="1235" on="1"/>
        <pt x="410" y="1104" on="1"/>
        <pt x="385" y="1456" on="1"/>
        <pt x="599" y="1456" on="1"/>
        <pt x="573" y="1097" on="1"/>
        <pt x="883" y="1225" on="1"/>
        <pt x="948" y="1034" on="1"/>
        <pt x="618" y="944" on="1"/>
        <pt x="837" y="679" on="1"/>
        <pt x="664" y="561" on="1"/>
        <pt x="481" y="855" on="1"/>
        <pt x="297" y="571" on="1"/>
        <pt x="124" y="684" on="1"/>
      </contour>
    </TTGlyph>
    <TTGlyph name="at" xMin="59" yMin="-453" xMax="1767" yMax="1410">
      <contour>
        <pt x="1756" y="550" on="1"/>
        <pt x="1746" y="289" on="0"/>
        <pt x="1506" y="-21" on="0"/>
        <pt x="1306" y="-21" on="1"/>
        <pt x="1224" y="-21" on="0"/>
        <pt x="1098" y="50" on="0"/>
        <pt x="1063" y="115" on="1"/>
        <pt x="965" y="-17" on="0"/>
        <pt x="800" y="-17" on="1"/>
        <pt x="704" y="-17" on="0"/>
        <pt x="560" y="96" on="0"/>
        <pt x="493" y="304" on="0"/>
        <pt x="506" y="436" on="1"/>
        <pt x="536" y="686" on="0"/>
        <pt x="798" y="990" on="0"/>
        <pt x="988" y="990" on="1"/>
        <pt x="1135" y="990" on="0"/>
        <pt x="1241" y="922" on="1"/>
        <pt x="1304" y="880" on="1"/>
        <pt x="1253" y="293" on="1"/>
        <pt x="1236" y="154" on="0"/>
        <pt x="1349" y="154" on="1"/>
        <pt x="1434" y="154" on="0"/>
        <pt x="1549" y="371" on="0"/>
        <pt x="1555" y="540" on="1"/>
        <pt x="1572" y="874" on="0"/>
        <pt x="1261" y="1238" on="0"/>
        <pt x="961" y="1238" on="1"/>
        <pt x="770" y="1238" on="0"/>
        <pt x="473" y="1043" on="0"/>
        <pt x="300" y="686" on="0"/>
        <pt x="289" y="458" on="1"/>
        <pt x="273" y="108" on="0"/>
        <pt x="585" y="-263" on="0"/>
        <pt x="897" y="-263" on="1"/>
        <pt x="981" y="-263" on="0"/>
        <pt x="1169" y="-224" on="0"/>
        <pt x="1228" y="-198" on="1"/>
        <pt x="1265" y="-364" on="1"/>
        <pt x="1204" y="-404" on="0"/>
        <pt x="997" y="-453" on="0"/>
        <pt x="893" y="-453" on="1"/>
        <pt x="620" y="-453" on="0"/>
        <pt x="243" y="-244" on="0"/>
        <pt x="59" y="166" on="0"/>
        <pt x="69" y="458" on="1"/>
        <pt x="81" y="734" on="0"/>
        <pt x="312" y="1171" on="0"/>
        <pt x="713" y="1410" on="0"/>
        <pt x="1217" y="1410" on="0"/>
        <pt x="1583" y="1201" on="0"/>
        <pt x="1767" y="809" on="0"/>
      </contour>
      <contour>
        <pt x="756" y="436" on="1"/>
        <pt x="745" y="306" on="0"/>
        <pt x="808" y="173" on="0"/>
        <pt x="878" y="173" on="1"/>
        <pt x="925" y="173" on="0"/>
        <pt x="1004" y="257" on="0"/>
        <pt x="1030" y="335" on="1"/>
        <pt x="1070" y="791" on="1"/>
        <pt x="1040" y="799" on="0"/>
        <pt x="1008" y="799" on="1"/>
        <pt x="896" y="799" on="0"/>
        <pt x="775" y="624" on="0"/>
      </contour>
    </TTGlyph>
    <TTGlyph name="atilde" xMin="45" yMin="-20" xMax="1041" yMax="1539">
      <component glyphName="a" x="0" y="0" flags="0x1204"/>
      <component glyphName="tilde" x="35" y="-4" flags="0x1004"/>
    </TTGlyph>
    <TTGlyph name="b" xMin="97" yMin="-20" xMax="1099" yMax="1536">
      <contour>
        <pt x="1099" y="532" on="1"/>
        <pt x="1099" y="266" on="0"/>
        <pt x="879" y="-20" on="0"/>
        <pt x="679" y="-20" on="1"/>
        <pt x="514" y="-20" on="0"/>
        <pt x="413" y="111" on="1"/>
        <pt x="399" y="0" on="1"/>
        <pt x="97" y="0" on="1"/>
        <pt x="97" y="1536" on="1"/>
        <pt x="434" y="1536" on="1"/>
        <pt x="434" y="995" on="1"/>
        <pt x="528" y="1102" on="0"/>
        <pt x="677" y="1102" on="1"/>
        <pt x="879" y="1102" on="0"/>
        <pt x="1099" y="812" on="0"/>
        <pt x="1099" y="549" on="1"/>
      </contour>
      <contour>
        <pt x="761" y="553" on="1"/>
        <pt x="761" y="709" on="0"/>
        <pt x="678" y="842" on="0"/>
        <pt x="592" y="842" on="1"/>
        <pt x="478" y="842" on="0"/>
        <pt x="434" y="755" on="1"/>
        <pt x="434" y="325" on="1"/>
        <pt x="477" y="239" on="0"/>
        <pt x="594" y="239" on="1"/>
        <pt x="713" y="239" on="0"/>
        <pt x="745" y="355" on="1"/>
        <pt x="761" y="412" on="0"/>
      </contour>
    </TTGlyph>
    <TTGlyph name="b.ss06" xMin="97" yMin="-20" xMax="1119" yMax="1536">
      <contour>
        <pt x="1119" y="529" on="1"/>
        <pt x="1119" y="279" on="0"/>
        <pt x="883" y="-20" on="0"/>
        <pt x="679" y="-20" on="1"/>
        <pt x="513" y="-20" on="0"/>
        <pt x="409" y="118" on="1"/>
        <pt x="389" y="0" on="1"/>
        <pt x="97" y="0" on="1"/>
        <pt x="97" y="1536" on="1"/>
        <pt x="434" y="1536" on="1"/>
        <pt x="434" y="995" on="1"/>
        <pt x="528" y="1102" on="0"/>
        <pt x="677" y="1102" on="1"/>
        <pt x="885" y="1102" on="0"/>
        <pt x="1119" y="808" on="0"/>
        <pt x="1119" y="543" on="1"/>
      </contour>
      <contour>
        <pt x="781" y="550" on="1"/>
        <pt x="781" y="842" on="0"/>
        <pt x="592" y="842" on="1"/>
        <pt x="481" y="842" on="0"/>
        <pt x="434" y="767" on="1"/>
        <pt x="434" y="315" on="1"/>
        <pt x="485" y="239" on="0"/>
        <pt x="594" y="239" on="1"/>
        <pt x="762" y="239" on="0"/>
        <pt x="779" y="469" on="1"/>
      </contour>
    </TTGlyph>
    <TTGlyph name="b_dotbelowcomb.ccmp" xMin="97" yMin="-388" xMax="1099" yMax="1536">
      <component glyphName="b" x="0" y="0" flags="0x1204"/>
      <component glyphName="dotbelowcomb" x="1289" y="-9" flags="0x1004"/>
    </TTGlyph>
    <TTGlyph name="backslash" xMin="-20" yMin="-125" xMax="939" yMax="1456">
      <contour>
        <pt x="-20" y="1456" on="1"/>
        <pt x="331" y="1456" on="1"/>
        <pt x="939" y="-125" on="1"/>
        <pt x="586" y="-125" on="1"/>
      </contour>
    </TTGlyph>
    <TTGlyph name="bar" xMin="172" yMin="-270" xMax="356" yMax="1456">
      <contour>
        <pt x="356" y="-270" on="1"/>
        <pt x="172" y="-270" on="1"/>
        <pt x="172" y="1456" on="1"/>
        <pt x="356" y="1456" on="1"/>
      </contour>
    </TTGlyph>
    <TTGlyph name="beta" xMin="134" yMin="-415" xMax="1188" yMax="1476">
      <contour>
        <pt x="637" y="1476" on="1"/>
        <pt x="869" y="1476" on="0"/>
        <pt x="1125" y="1268" on="0"/>
        <pt x="1125" y="1082" on="1"/>
        <pt x="1125" y="979" on="0"/>
        <pt x="1023" y="812" on="0"/>
        <pt x="932" y="762" on="1"/>
        <pt x="1056" y="720" on="0"/>
        <pt x="1188" y="541" on="0"/>
        <pt x="1188" y="409" on="1"/>
        <pt x="1188" y="205" on="0"/>
        <pt x="958" y="-20" on="0"/>
        <pt x="746" y="-20" on="1"/>
        <pt x="594" y="-20" on="0"/>
        <pt x="471" y="51" on="1"/>
        <pt x="471" y="-415" on="1"/>
        <pt x="134" y="-415" on="1"/>
        <pt x="134" y="1019" on="1"/>
        <pt x="134" y="1152" on="0"/>
        <pt x="262" y="1360" on="0"/>
        <pt x="495" y="1476" on="0"/>
      </contour>
      <contour>
        <pt x="788" y="1051" on="1"/>
        <pt x="788" y="1127" on="0"/>
        <pt x="705" y="1216" on="0"/>
        <pt x="637" y="1216" on="1"/>
        <pt x="564" y="1216" on="0"/>
        <pt x="471" y="1113" on="0"/>
        <pt x="471" y="1018" on="1"/>
        <pt x="471" y="281" on="1"/>
        <pt x="543" y="240" on="0"/>
        <pt x="658" y="240" on="1"/>
        <pt x="745" y="240" on="0"/>
        <pt x="851" y="339" on="0"/>
        <pt x="851" y="416" on="1"/>
        <pt x="851" y="527" on="0"/>
        <pt x="748" y="626" on="0"/>
        <pt x="649" y="626" on="1"/>
        <pt x="577" y="626" on="1"/>
        <pt x="577" y="857" on="1"/>
        <pt x="658" y="858" on="1"/>
        <pt x="788" y="871" on="0"/>
      </contour>
    </TTGlyph>
    <TTGlyph name="braceleft" xMin="40" yMin="-360" xMax="625" yMax="1597">
      <contour>
        <pt x="562" y="-360" on="1"/>
        <pt x="202" y="-259" on="0"/>
        <pt x="202" y="105" on="1"/>
        <pt x="202" y="303" on="1"/>
        <pt x="202" y="505" on="0"/>
        <pt x="40" y="505" on="1"/>
        <pt x="40" y="732" on="1"/>
        <pt x="202" y="732" on="0"/>
        <pt x="202" y="935" on="1"/>
        <pt x="202" y="1145" on="1"/>
        <pt x="205" y="1325" on="0"/>
        <pt x="386" y="1547" on="0"/>
        <pt x="562" y="1597" on="1"/>
        <pt x="625" y="1421" on="1"/>
        <pt x="499" y="1373" on="0"/>
        <pt x="494" y="1152" on="1"/>
        <pt x="494" y="935" on="1"/>
        <pt x="494" y="711" on="0"/>
        <pt x="309" y="619" on="1"/>
        <pt x="494" y="527" on="0"/>
        <pt x="494" y="302" on="1"/>
        <pt x="494" y="86" on="1"/>
        <pt x="499" y="-135" on="0"/>
        <pt x="625" y="-183" on="1"/>
      </contour>
    </TTGlyph>
    <TTGlyph name="braceright" xMin="41" yMin="-360" xMax="626" yMax="1597">
      <contour>
        <pt x="41" y="-183" on="1"/>
        <pt x="167" y="-135" on="0"/>
        <pt x="172" y="86" on="1"/>
        <pt x="172" y="303" on="1"/>
        <pt x="172" y="528" on="0"/>
        <pt x="358" y="619" on="1"/>
        <pt x="172" y="710" on="0"/>
        <pt x="172" y="935" on="1"/>
        <pt x="172" y="1152" on="1"/>
        <pt x="167" y="1373" on="0"/>
        <pt x="41" y="1421" on="1"/>
        <pt x="104" y="1597" on="1"/>
        <pt x="283" y="1547" on="0"/>
        <pt x="463" y="1320" on="0"/>
        <pt x="464" y="1136" on="1"/>
        <pt x="464" y="935" on="1"/>
        <pt x="464" y="732" on="0"/>
        <pt x="626" y="732" on="1"/>
        <pt x="626" y="505" on="1"/>
        <pt x="464" y="505" on="0"/>
        <pt x="464" y="304" on="1"/>
        <pt x="464" y="91" on="1"/>
        <pt x="457" y="-261" on="0"/>
        <pt x="104" y="-360" on="1"/>
      </contour>
    </TTGlyph>
    <TTGlyph name="bracketleft" xMin="108" yMin="-349" xMax="564" yMax="1706">
      <contour>
        <pt x="564" y="1460" on="1"/>
        <pt x="446" y="1460" on="1"/>
        <pt x="446" y="-104" on="1"/>
        <pt x="564" y="-104" on="1"/>
        <pt x="564" y="-349" on="1"/>
        <pt x="108" y="-349" on="1"/>
        <pt x="108" y="1706" on="1"/>
        <pt x="564" y="1706" on="1"/>
      </contour>
    </TTGlyph>
    <TTGlyph name="bracketright" xMin="14" yMin="-349" xMax="470" yMax="1706">
      <contour>
        <pt x="14" y="1706" on="1"/>
        <pt x="470" y="1706" on="1"/>
        <pt x="470" y="-349" on="1"/>
        <pt x="14" y="-349" on="1"/>
        <pt x="14" y="-104" on="1"/>
        <pt x="133" y="-104" on="1"/>
        <pt x="133" y="1460" on="1"/>
        <pt x="14" y="1460" on="1"/>
      </contour>
    </TTGlyph>
    <TTGlyph name="breve" xMin="94" yMin="1231" xMax="834" yMax="1538">
      <contour>
        <pt x="834" y="1538" on="1"/>
        <pt x="834" y="1401" on="0"/>
        <pt x="632" y="1231" on="0"/>
        <pt x="296" y="1231" on="0"/>
        <pt x="94" y="1401" on="0"/>
        <pt x="94" y="1538" on="1"/>
        <pt x="323" y="1538" on="1"/>
        <pt x="323" y="1478" on="0"/>
        <pt x="398" y="1411" on="0"/>
        <pt x="530" y="1411" on="0"/>
        <pt x="603" y="1476" on="0"/>
        <pt x="603" y="1538" on="1"/>
      </contour>
    </TTGlyph>
    <TTGlyph name="brokenbar" xMin="119" yMin="-270" xMax="411" yMax="1456">
      <contour>
        <pt x="119" y="-270" on="1"/>
        <pt x="119" y="525" on="1"/>
        <pt x="411" y="525" on="1"/>
        <pt x="411" y="-270" on="1"/>
      </contour>
      <contour>
        <pt x="411" y="698" on="1"/>
        <pt x="119" y="698" on="1"/>
        <pt x="119" y="1456" on="1"/>
        <pt x="411" y="1456" on="1"/>
      </contour>
    </TTGlyph>
    <TTGlyph name="bullet" xMin="134" yMin="488" xMax="641" yMax="1004">
      <contour>
        <pt x="134" y="763" on="1"/>
        <pt x="134" y="870" on="0"/>
        <pt x="274" y="1004" on="0"/>
        <pt x="386" y="1004" on="1"/>
        <pt x="501" y="1004" on="0"/>
        <pt x="639" y="874" on="0"/>
        <pt x="641" y="768" on="1"/>
        <pt x="641" y="726" on="1"/>
        <pt x="641" y="619" on="0"/>
        <pt x="503" y="488" on="0"/>
        <pt x="388" y="488" on="1"/>
        <pt x="275" y="488" on="0"/>
        <pt x="136" y="617" on="0"/>
        <pt x="134" y="721" on="1"/>
      </contour>
    </TTGlyph>
    <TTGlyph name="c" xMin="52" yMin="-20" xMax="1016" yMax="1102">
      <contour>
        <pt x="552" y="240" on="1"/>
        <pt x="623" y="240" on="0"/>
        <pt x="701" y="317" on="0"/>
        <pt x="700" y="386" on="1"/>
        <pt x="1016" y="386" on="1"/>
        <pt x="1016" y="208" on="0"/>
        <pt x="761" y="-20" on="0"/>
        <pt x="560" y="-20" on="1"/>
        <pt x="324" y="-20" on="0"/>
        <pt x="52" y="276" on="0"/>
        <pt x="52" y="538" on="1"/>
        <pt x="52" y="552" on="1"/>
        <pt x="52" y="716" on="0"/>
        <pt x="173" y="967" on="0"/>
        <pt x="401" y="1102" on="0"/>
        <pt x="557" y="1102" on="1"/>
        <pt x="768" y="1102" on="0"/>
        <pt x="1016" y="868" on="0"/>
        <pt x="1016" y="668" on="1"/>
        <pt x="700" y="668" on="1"/>
        <pt x="700" y="752" on="0"/>
        <pt x="618" y="842" on="0"/>
        <pt x="549" y="842" on="1"/>
        <pt x="418" y="842" on="0"/>
        <pt x="396" y="675" on="1"/>
        <pt x="389" y="622" on="0"/>
        <pt x="389" y="529" on="1"/>
        <pt x="389" y="366" on="0"/>
        <pt x="467" y="240" on="0"/>
      </contour>
    </TTGlyph>
    <TTGlyph name="c.ss06" xMin="56" yMin="-20" xMax="1053" yMax="1102">
      <contour>
        <pt x="578" y="240" on="1"/>
        <pt x="649" y="240" on="0"/>
        <pt x="735" y="317" on="0"/>
        <pt x="737" y="386" on="1"/>
        <pt x="1053" y="386" on="1"/>
        <pt x="1049" y="210" on="0"/>
        <pt x="788" y="-20" on="0"/>
        <pt x="585" y="-20" on="1"/>
        <pt x="345" y="-20" on="0"/>
        <pt x="56" y="283" on="0"/>
        <pt x="56" y="538" on="1"/>
        <pt x="56" y="552" on="1"/>
        <pt x="56" y="712" on="0"/>
        <pt x="184" y="964" on="0"/>
        <pt x="425" y="1102" on="0"/>
        <pt x="583" y="1102" on="1"/>
        <pt x="793" y="1102" on="0"/>
        <pt x="1049" y="868" on="0"/>
        <pt x="1053" y="668" on="1"/>
        <pt x="737" y="668" on="1"/>
        <pt x="735" y="748" on="0"/>
        <pt x="647" y="842" on="0"/>
        <pt x="575" y="842" on="1"/>
        <pt x="407" y="842" on="0"/>
        <pt x="394" y="588" on="1"/>
        <pt x="393" y="529" on="1"/>
        <pt x="393" y="240" on="0"/>
      </contour>
    </TTGlyph>
    <TTGlyph name="cacute" xMin="52" yMin="-20" xMax="1016" yMax="1536">
      <component glyphName="c" x="0" y="0" flags="0x1204"/>
      <component glyphName="acute" x="292" y="0" flags="0x1004"/>
    </TTGlyph>
    <TTGlyph name="caron" xMin="55" yMin="1243" xMax="926" yMax="1537">
      <contour>
        <pt x="492" y="1403" on="1"/>
        <pt x="639" y="1537" on="1"/>
        <pt x="926" y="1537" on="1"/>
        <pt x="926" y="1526" on="1"/>
        <pt x="600" y="1243" on="1"/>
        <pt x="383" y="1243" on="1"/>
        <pt x="55" y="1528" on="1"/>
        <pt x="55" y="1537" on="1"/>
        <pt x="345" y="1537" on="1"/>
      </contour>
    </TTGlyph>
    <TTGlyph name="ccaron" xMin="52" yMin="-20" xMax="1016" yMax="1537">
      <component glyphName="c" x="0" y="0" flags="0x1204"/>
      <component glyphName="caron" x="44" y="0" flags="0x1004"/>
    </TTGlyph>
    <TTGlyph name="ccedilla" xMin="52" yMin="-472" xMax="1016" yMax="1102">
      <component glyphName="c" x="0" y="0" flags="0x1204"/>
      <component glyphName="cedilla" x="325" y="0" flags="0x1004"/>
    </TTGlyph>
    <TTGlyph name="ccircumflex" xMin="52" yMin="-20" xMax="1016" yMax="1536">
      <component glyphName="c" x="0" y="0" flags="0x1204"/>
      <component glyphName="circumflex" x="20" y="0" flags="0x1004"/>
    </TTGlyph>
    <TTGlyph name="cdotaccent" xMin="52" yMin="-20" xMax="1016" yMax="1548">
      <component glyphName="c" x="0" y="0" flags="0x1204"/>
      <component glyphName="dotaccent" x="262" y="23" flags="0x1004"/>
    </TTGlyph>
    <TTGlyph name="cedilla" xMin="86" yMin="-472" xMax="513" yMax="10">
      <contour>
        <pt x="373" y="10" on="1"/>
        <pt x="363" y="-51" on="1"/>
        <pt x="513" y="-79" on="0"/>
        <pt x="513" y="-224" on="1"/>
        <pt x="513" y="-340" on="0"/>
        <pt x="315" y="-472" on="0"/>
        <pt x="139" y="-472" on="1"/>
        <pt x="132" y="-286" on="1"/>
        <pt x="220" y="-286" on="0"/>
        <pt x="220" y="-209" on="1"/>
        <pt x="220" y="-171" on="0"/>
        <pt x="157" y="-141" on="0"/>
        <pt x="86" y="-136" on="1"/>
        <pt x="117" y="10" on="1"/>
      </contour>
    </TTGlyph>
    <TTGlyph name="cent" xMin="98" yMin="-245" xMax="1062" yMax="1318">
      <contour>
        <pt x="598" y="240" on="1"/>
        <pt x="669" y="240" on="0"/>
        <pt x="747" y="317" on="0"/>
        <pt x="746" y="386" on="1"/>
        <pt x="1062" y="386" on="1"/>
        <pt x="1062" y="230" on="0"/>
        <pt x="868" y="17" on="0"/>
        <pt x="710" y="-11" on="1"/>
        <pt x="710" y="-245" on="1"/>
        <pt x="510" y="-245" on="1"/>
        <pt x="510" y="-13" on="1"/>
        <pt x="317" y="15" on="0"/>
        <pt x="98" y="302" on="0"/>
        <pt x="98" y="534" on="1"/>
        <pt x="98" y="552" on="1"/>
        <pt x="98" y="776" on="0"/>
        <pt x="316" y="1067" on="0"/>
        <pt x="510" y="1095" on="1"/>
        <pt x="510" y="1318" on="1"/>
        <pt x="710" y="1318" on="1"/>
        <pt x="710" y="1093" on="1"/>
        <pt x="875" y="1064" on="0"/>
        <pt x="1062" y="839" on="0"/>
        <pt x="1062" y="668" on="1"/>
        <pt x="746" y="668" on="1"/>
        <pt x="746" y="752" on="0"/>
        <pt x="664" y="842" on="0"/>
        <pt x="595" y="842" on="1"/>
        <pt x="464" y="842" on="0"/>
        <pt x="442" y="675" on="1"/>
        <pt x="435" y="622" on="0"/>
        <pt x="435" y="529" on="1"/>
        <pt x="435" y="366" on="0"/>
        <pt x="513" y="240" on="0"/>
      </contour>
    </TTGlyph>
    <TTGlyph name="chi" xMin="11" yMin="-435" xMax="1128" yMax="1099">
      <contour>
        <pt x="194" y="1099" on="1"/>
        <pt x="308" y="1099" on="0"/>
        <pt x="466" y="999" on="0"/>
        <pt x="517" y="882" on="1"/>
        <pt x="599" y="699" on="1"/>
        <pt x="785" y="1082" on="1"/>
        <pt x="1128" y="1082" on="1"/>
        <pt x="760" y="340" on="1"/>
        <pt x="936" y="-51" on="1"/>
        <pt x="967" y="-143" on="0"/>
        <pt x="1045" y="-166" on="1"/>
        <pt x="1062" y="-172" on="0"/>
        <pt x="1094" y="-172" on="1"/>
        <pt x="1085" y="-423" on="1"/>
        <pt x="1046" y="-430" on="0"/>
        <pt x="999" y="-432" on="1"/>
        <pt x="878" y="-435" on="0"/>
        <pt x="764" y="-363" on="0"/>
        <pt x="670" y="-223" on="0"/>
        <pt x="614" y="-76" on="1"/>
        <pt x="586" y="-12" on="1"/>
        <pt x="386" y="-416" on="1"/>
        <pt x="59" y="-416" on="1"/>
        <pt x="429" y="347" on="1"/>
        <pt x="254" y="748" on="1"/>
        <pt x="218" y="838" on="0"/>
        <pt x="84" y="838" on="1"/>
        <pt x="42" y="838" on="0"/>
        <pt x="20" y="832" on="1"/>
        <pt x="11" y="1073" on="1"/>
        <pt x="119" y="1099" on="0"/>
      </contour>
    </TTGlyph>
    <TTGlyph name="circumflex" xMin="97" yMin="1242" xMax="941" yMax="1536">
      <contour>
        <pt x="941" y="1255" on="1"/>
        <pt x="941" y="1242" on="1"/>
        <pt x="675" y="1242" on="1"/>
        <pt x="516" y="1378" on="1"/>
        <pt x="357" y="1242" on="1"/>
        <pt x="97" y="1242" on="1"/>
        <pt x="97" y="1259" on="1"/>
        <pt x="420" y="1536" on="1"/>
        <pt x="613" y="1536" on="1"/>
      </contour>
    </TTGlyph>
    <TTGlyph name="colon" xMin="118" yMin="-11" xMax="490" yMax="1125">
      <component glyphName="period" x="1" y="0" flags="0x1004"/>
      <component glyphName="period" x="1" y="798" flags="0x1004"/>
    </TTGlyph>
    <TTGlyph name="comma" xMin="43" yMin="-392" xMax="420" yMax="254">
      <contour>
        <pt x="213" y="-392" on="1"/>
        <pt x="43" y="-312" on="1"/>
        <pt x="77" y="-244" on="1"/>
        <pt x="147" y="-114" on="0"/>
        <pt x="150" y="4" on="1"/>
        <pt x="150" y="254" on="1"/>
        <pt x="420" y="254" on="1"/>
        <pt x="419" y="37" on="1"/>
        <pt x="418" y="-78" on="0"/>
        <pt x="302" y="-316" on="0"/>
      </contour>
    </TTGlyph>
    <TTGlyph name="copyright" xMin="85" yMin="-20" xMax="1505" yMax="1476">
      <contour>
        <pt x="1116" y="596" on="1"/>
        <pt x="1116" y="444" on="0"/>
        <pt x="941" y="282" on="0"/>
        <pt x="621" y="282" on="0"/>
        <pt x="432" y="495" on="0"/>
        <pt x="432" y="675" on="1"/>
        <pt x="432" y="788" on="1"/>
        <pt x="432" y="962" on="0"/>
        <pt x="623" y="1175" on="0"/>
        <pt x="781" y="1175" on="1"/>
        <pt x="944" y="1175" on="0"/>
        <pt x="1117" y="1010" on="0"/>
        <pt x="1117" y="861" on="1"/>
        <pt x="961" y="861" on="1"/>
        <pt x="961" y="957" on="0"/>
        <pt x="869" y="1040" on="0"/>
        <pt x="781" y="1040" on="1"/>
        <pt x="689" y="1040" on="0"/>
        <pt x="588" y="905" on="0"/>
        <pt x="587" y="792" on="1"/>
        <pt x="587" y="669" on="1"/>
        <pt x="587" y="552" on="0"/>
        <pt x="689" y="417" on="0"/>
        <pt x="781" y="417" on="1"/>
        <pt x="870" y="417" on="0"/>
        <pt x="960" y="498" on="0"/>
        <pt x="960" y="596" on="1"/>
      </contour>
      <contour>
        <pt x="207" y="729" on="1"/>
        <pt x="207" y="564" on="0"/>
        <pt x="356" y="278" on="0"/>
        <pt x="630" y="105" on="0"/>
        <pt x="795" y="105" on="1"/>
        <pt x="959" y="105" on="0"/>
        <pt x="1232" y="277" on="0"/>
        <pt x="1382" y="563" on="0"/>
        <pt x="1382" y="895" on="0"/>
        <pt x="1232" y="1180" on="0"/>
        <pt x="958" y="1351" on="0"/>
        <pt x="795" y="1351" on="1"/>
        <pt x="636" y="1351" on="0"/>
        <pt x="363" y="1187" on="0"/>
        <pt x="207" y="899" on="0"/>
      </contour>
      <contour>
        <pt x="85" y="729" on="1"/>
        <pt x="85" y="931" on="0"/>
        <pt x="272" y="1277" on="0"/>
        <pt x="603" y="1476" on="0"/>
        <pt x="987" y="1476" on="0"/>
        <pt x="1318" y="1277" on="0"/>
        <pt x="1505" y="931" on="0"/>
        <pt x="1505" y="729" on="1"/>
        <pt x="1505" y="525" on="0"/>
        <pt x="1315" y="178" on="0"/>
        <pt x="986" y="-20" on="0"/>
        <pt x="795" y="-20" on="1"/>
        <pt x="602" y="-20" on="0"/>
        <pt x="273" y="180" on="0"/>
        <pt x="85" y="526" on="0"/>
      </contour>
    </TTGlyph>
    <TTGlyph name="currency" xMin="69" yMin="-27" xMax="1335" yMax="1265">
      <contour>
        <pt x="1061" y="107" on="1"/>
        <pt x="902" y="-20" on="0"/>
        <pt x="700" y="-20" on="1"/>
        <pt x="497" y="-20" on="0"/>
        <pt x="339" y="106" on="1"/>
        <pt x="210" y="-26" on="1"/>
        <pt x="69" y="118" on="1"/>
        <pt x="204" y="255" on="1"/>
        <pt x="104" y="411" on="0"/>
        <pt x="104" y="608" on="1"/>
        <pt x="104" y="812" on="0"/>
        <pt x="213" y="973" on="1"/>
        <pt x="69" y="1120" on="1"/>
        <pt x="210" y="1264" on="1"/>
        <pt x="352" y="1119" on="1"/>
        <pt x="507" y="1234" on="0"/>
        <pt x="700" y="1234" on="1"/>
        <pt x="894" y="1234" on="0"/>
        <pt x="1049" y="1117" on="1"/>
        <pt x="1193" y="1265" on="1"/>
        <pt x="1335" y="1120" on="1"/>
        <pt x="1187" y="969" on="1"/>
        <pt x="1294" y="810" on="0"/>
        <pt x="1294" y="608" on="1"/>
        <pt x="1294" y="415" on="0"/>
        <pt x="1196" y="259" on="1"/>
        <pt x="1335" y="118" on="1"/>
        <pt x="1193" y="-27" on="1"/>
      </contour>
      <contour>
        <pt x="290" y="608" on="1"/>
        <pt x="290" y="490" on="0"/>
        <pt x="398" y="289" on="0"/>
        <pt x="588" y="173" on="0"/>
        <pt x="700" y="173" on="1"/>
        <pt x="811" y="173" on="0"/>
        <pt x="1001" y="289" on="0"/>
        <pt x="1109" y="490" on="0"/>
        <pt x="1109" y="608" on="1"/>
        <pt x="1109" y="727" on="0"/>
        <pt x="1000" y="928" on="0"/>
        <pt x="811" y="1042" on="0"/>
        <pt x="700" y="1042" on="1"/>
        <pt x="588" y="1042" on="0"/>
        <pt x="399" y="928" on="0"/>
        <pt x="290" y="727" on="0"/>
      </contour>
    </TTGlyph>
    <TTGlyph name="d" xMin="52" yMin="-20" xMax="1055" yMax="1536">
      <contour>
        <pt x="52" y="549" on="1"/>
        <pt x="52" y="806" on="0"/>
        <pt x="274" y="1102" on="0"/>
        <pt x="473" y="1102" on="1"/>
        <pt x="618" y="1102" on="0"/>
        <pt x="717" y="988" on="1"/>
        <pt x="717" y="1536" on="1"/>
        <pt x="1055" y="1536" on="1"/>
        <pt x="1055" y="0" on="1"/>
        <pt x="752" y="0" on="1"/>
        <pt x="735" y="116" on="1"/>
        <pt x="631" y="-20" on="0"/>
        <pt x="471" y="-20" on="1"/>
        <pt x="278" y="-20" on="0"/>
        <pt x="52" y="276" on="0"/>
      </contour>
      <contour>
        <pt x="389" y="528" on="1"/>
        <pt x="389" y="240" on="0"/>
        <pt x="557" y="240" on="1"/>
        <pt x="669" y="240" on="0"/>
        <pt x="717" y="334" on="1"/>
        <pt x="717" y="746" on="1"/>
        <pt x="671" y="842" on="0"/>
        <pt x="559" y="842" on="1"/>
        <pt x="403" y="842" on="0"/>
        <pt x="390" y="590" on="1"/>
      </contour>
    </TTGlyph>
    <TTGlyph name="d.ss06" xMin="56" yMin="-20" xMax="1079" yMax="1536">
      <contour>
        <pt x="56" y="551" on="1"/>
        <pt x="56" y="804" on="0"/>
        <pt x="296" y="1102" on="0"/>
        <pt x="497" y="1102" on="1"/>
        <pt x="642" y="1102" on="0"/>
        <pt x="740" y="989" on="1"/>
        <pt x="740" y="1536" on="1"/>
        <pt x="1079" y="1536" on="1"/>
        <pt x="1079" y="0" on="1"/>
        <pt x="785" y="0" on="1"/>
        <pt x="763" y="122" on="1"/>
        <pt x="658" y="-20" on="0"/>
        <pt x="495" y="-20" on="1"/>
        <pt x="296" y="-20" on="0"/>
        <pt x="56" y="285" on="0"/>
        <pt x="56" y="538" on="1"/>
      </contour>
      <contour>
        <pt x="393" y="530" on="1"/>
        <pt x="393" y="393" on="0"/>
        <pt x="494" y="240" on="0"/>
        <pt x="581" y="240" on="1"/>
        <pt x="685" y="240" on="0"/>
        <pt x="740" y="322" on="1"/>
        <pt x="740" y="761" on="1"/>
        <pt x="688" y="842" on="0"/>
        <pt x="583" y="842" on="1"/>
        <pt x="496" y="842" on="0"/>
        <pt x="393" y="688" on="0"/>
      </contour>
    </TTGlyph>
    <TTGlyph name="d_dotbelowcomb.ccmp" xMin="52" yMin="-379" xMax="1055" yMax="1536">
      <component glyphName="d" x="0" y="0" flags="0x1204"/>
      <component glyphName="dotbelowcomb" x="1172" y="0" flags="0x1004"/>
    </TTGlyph>
    <TTGlyph name="d_uniF6C3.ccmp" xMin="52" yMin="-515" xMax="1055" yMax="1536">
      <component glyphName="d" x="0" y="0" flags="0x1204"/>
      <component glyphName="uniF6C3" x="355" y="-369" flags="0x1004"/>
    </TTGlyph>
    <TTGlyph name="dagger" xMin="50" yMin="0" xMax="1039" yMax="1456">
      <contour>
        <pt x="1039" y="812" on="1"/>
        <pt x="711" y="812" on="1"/>
        <pt x="711" y="0" on="1"/>
        <pt x="374" y="0" on="1"/>
        <pt x="374" y="812" on="1"/>
        <pt x="50" y="812" on="1"/>
        <pt x="50" y="1082" on="1"/>
        <pt x="374" y="1082" on="1"/>
        <pt x="374" y="1456" on="1"/>
        <pt x="711" y="1456" on="1"/>
        <pt x="711" y="1082" on="1"/>
        <pt x="1039" y="1082" on="1"/>
      </contour>
    </TTGlyph>
</ttFont>
